<svg xmlns="http://www.w3.org/2000/svg" width="120.397" height="120.397" viewBox="0 0 120.397 120.397">
  <g id="그룹_205" data-name="그룹 205" transform="translate(-401 -1356.603)">
    <g id="그룹_155" data-name="그룹 155" transform="translate(-70 1008.603)">
      <g id="그룹_136" data-name="그룹 136" transform="translate(520.394 348)">
        <path id="패스_176" data-name="패스 176" d="M538.5,419a35.141,35.141,0,0,1-16.138-3.871l1.406-2.749a32.066,32.066,0,0,0,14.732,3.533A32.415,32.415,0,1,0,506.087,383.5a32.044,32.044,0,0,0,3.535,14.733l-2.749,1.4A35.106,35.106,0,0,1,503,383.5,35.5,35.5,0,1,1,538.5,419Z" transform="translate(-503 -348)" fill="#ef373e"/>
      </g>
      <g id="그룹_137" data-name="그룹 137" transform="translate(471 406.655)">
        <path id="패스_177" data-name="패스 177" d="M532.742,447.742H471V386h61.742Zm-58.655-3.087h55.568V389.087H474.087Z" transform="translate(-471 -386)" fill="#ef373e"/>
      </g>
      <g id="그룹_138" data-name="그룹 138" transform="translate(480.261 397.394)">
        <path id="패스_178" data-name="패스 178" d="M538.742,441.742h-10.8v-3.087h7.718V383.087H480.087V390.8H477V380h61.742Z" transform="translate(-477 -380)" fill="#ef373e"/>
      </g>
      <g id="그룹_139" data-name="그룹 139" transform="translate(504.958 425.178)">
        <path id="패스_179" data-name="패스 179" d="M497.631,407.261a4.631,4.631,0,1,1,4.631-4.631A4.636,4.636,0,0,1,497.631,407.261Zm0-6.174a1.544,1.544,0,1,0,1.544,1.544A1.546,1.546,0,0,0,497.631,401.087Z" transform="translate(-493 -398)" fill="#ef373e"/>
      </g>
      <g id="그룹_140" data-name="그룹 140" transform="translate(548.178 374.83)">
        <path id="패스_180" data-name="패스 180" d="M521,382.725V365.382l17.343,8.672Zm3.087-12.348v7.353l7.353-3.677Z" transform="translate(-521 -365.382)" fill="#ef373e"/>
      </g>
      <g id="그룹_141" data-name="그룹 141" transform="translate(478.419 360.29)">
        <rect id="사각형_48" data-name="사각형 48" width="13" height="3" transform="translate(-0.419 0.107)" fill="#ef373e"/>
      </g>
      <g id="그룹_142" data-name="그룹 142" transform="translate(503.856 360.29)">
        <rect id="사각형_49" data-name="사각형 49" width="55" height="3" transform="translate(0.144 0.107)" fill="#ef373e"/>
      </g>
      <g id="그룹_143" data-name="그룹 143" transform="translate(489.523 354.174)">
        <path id="패스_181" data-name="패스 181" d="M490.718,367.436a7.718,7.718,0,1,1,7.718-7.718A7.727,7.727,0,0,1,490.718,367.436Zm0-12.348a4.631,4.631,0,1,0,4.631,4.631A4.636,4.636,0,0,0,490.718,355.087Z" transform="translate(-483 -352)" fill="#ef373e"/>
      </g>
      <g id="그룹_149" data-name="그룹 149" transform="translate(548.178 415.536)">
        <g id="그룹_147" data-name="그룹 147">
          <g id="그룹_144" data-name="그룹 144" transform="translate(0 37.426)">
            <path id="패스_182" data-name="패스 182" d="M528.718,431.435a7.718,7.718,0,1,1,0-15.436h7.718v7.718A7.726,7.726,0,0,1,528.718,431.435Zm0-12.348a4.631,4.631,0,1,0,4.631,4.631v-4.631Z" transform="translate(-521 -416)" fill="#ef373e"/>
          </g>
          <g id="그룹_145" data-name="그룹 145" transform="translate(27.784 31.252)">
            <path id="패스_183" data-name="패스 183" d="M546.718,427.435a7.718,7.718,0,1,1,0-15.436h7.718v7.718A7.726,7.726,0,0,1,546.718,427.435Zm0-12.348a4.631,4.631,0,1,0,4.631,4.631v-4.631Z" transform="translate(-539 -412)" fill="#ef373e"/>
          </g>
          <g id="그룹_146" data-name="그룹 146" transform="translate(12.348)">
            <path id="패스_184" data-name="패스 184" d="M532.087,430.723H529V398.614l30.871-6.86v32.8h-3.087V395.6l-24.7,5.488Z" transform="translate(-529 -391.753)" fill="#ef373e"/>
          </g>
        </g>
        <g id="그룹_148" data-name="그룹 148" transform="translate(13.557 12.767)">
          <rect id="사각형_50" data-name="사각형 50" width="28.462" height="3.087" transform="translate(0 6.171) rotate(-12.523)" fill="#ef373e"/>
        </g>
      </g>
      <g id="그룹_152" data-name="그룹 152" transform="translate(472.06 377.248)">
        <g id="그룹_150" data-name="그룹 150" transform="translate(0 0)">
          <rect id="사각형_51" data-name="사각형 51" width="32" height="3" transform="translate(-0.06 0.149)" fill="#ef373e"/>
        </g>
        <g id="그룹_151" data-name="그룹 151" transform="translate(0 10.206)">
          <rect id="사각형_52" data-name="사각형 52" width="19" height="3" transform="translate(-0.06 -0.057)" fill="#ef373e"/>
        </g>
      </g>
      <g id="그룹_153" data-name="그룹 153" transform="translate(480.261 397.983)">
        <path id="패스_185" data-name="패스 185" d="M492.436,426.689H477V380.382h15.436ZM480.087,423.6h9.261V383.469h-9.261Z" transform="translate(-477 -380.382)" fill="#ef373e"/>
      </g>
      <g id="그룹_154" data-name="그룹 154" transform="translate(480.424 442.056)">
        <path id="패스_186" data-name="패스 186" d="M484.66,425.425l-7.555-15.109,2.761-1.381,4.793,9.588,4.794-9.588,2.761,1.381Z" transform="translate(-477.105 -408.935)" fill="#ef373e"/>
      </g>
    </g>
  </g>
</svg>
