<svg xmlns="http://www.w3.org/2000/svg" width="123.406" height="120.397" viewBox="0 0 123.406 120.397">
  <g id="그룹_207" data-name="그룹 207" transform="translate(-403.656 -1778.603)">
    <g id="그룹_193" data-name="그룹 193" transform="translate(-858 396)">
      <g id="그룹_176" data-name="그룹 176" transform="translate(888.656 1161.603)">
        <g id="그룹_160" data-name="그룹 160" transform="translate(373 274.253)">
          <g id="그룹_156" data-name="그룹 156" transform="translate(0 54.936)">
            <path id="패스_187" data-name="패스 187" d="M466.48,410.941H380.216l-7.216-7v-5.21h39.985l3.147,3.052h14.43l3.147-3.052H473.7v5.21Zm-84.962-3.052h83.659l5.372-5.21v-.894H435.013l-3.147,3.052H414.829l-3.147-3.052H376.147v.894Z" transform="translate(-373 -398.733)" fill="#ef373e"/>
          </g>
          <g id="그룹_157" data-name="그룹 157" transform="translate(6.104 0)">
            <path id="패스_188" data-name="패스 188" d="M388.185,341.417h-3.052v-45.78a6.11,6.11,0,0,1,6.1-6.1h9.156v3.052h-9.156a3.056,3.056,0,0,0-3.052,3.052Z" transform="translate(-385.133 -289.533)" fill="#ef373e"/>
          </g>
          <g id="그룹_158" data-name="그룹 158" transform="translate(91.539 6.104)">
            <rect id="사각형_53" data-name="사각형 53" width="3.137" height="45.78" fill="#ef373e"/>
          </g>
          <g id="그룹_159" data-name="그룹 159" transform="translate(12.208 6.104)">
            <path id="패스_189" data-name="패스 189" d="M473.546,344.395H397.267V301.667H406.8v3.052h-6.357v36.624h69.923V301.667h3.178Z" transform="translate(-397.267 -301.667)" fill="#ef373e"/>
          </g>
        </g>
        <g id="그룹_161" data-name="그룹 161" transform="translate(452.331 265.397)">
          <rect id="사각형_54" data-name="사각형 54" width="12.208" height="3" transform="translate(0 0)" fill="#ef373e"/>
        </g>
        <g id="그룹_162" data-name="그룹 162" transform="translate(405.036 236.26)">
          <rect id="사각형_55" data-name="사각형 55" width="36.624" height="3.052" fill="#ef373e"/>
        </g>
        <g id="그룹_163" data-name="그룹 163" transform="translate(405.036 244.104)">
          <rect id="사각형_56" data-name="사각형 56" width="36.624" height="3.052" fill="#ef373e"/>
        </g>
        <g id="그룹_164" data-name="그룹 164" transform="translate(405.036 250.705)">
          <rect id="사각형_57" data-name="사각형 57" width="36.624" height="3.052" transform="translate(0 0)" fill="#ef373e"/>
        </g>
        <g id="그룹_165" data-name="그룹 165" transform="translate(399.088 221)">
          <path id="패스_190" data-name="패스 190" d="M424.585,308.144h-3.052V250.156A9.166,9.166,0,0,1,430.689,241h44.254v3.052H430.689a6.11,6.11,0,0,0-6.1,6.1Z" transform="translate(-421.533 -241)" fill="#ef373e"/>
        </g>
        <g id="그룹_166" data-name="그룹 166" transform="translate(421.822 230.156)">
          <rect id="사각형_58" data-name="사각형 58" width="3.052" height="3.052" transform="translate(0)" fill="#ef373e"/>
        </g>
        <g id="그룹_167" data-name="그룹 167" transform="translate(415.522 230.156)">
          <rect id="사각형_59" data-name="사각형 59" width="3.052" height="3.052" transform="translate(0)" fill="#ef373e"/>
        </g>
        <g id="그룹_168" data-name="그룹 168" transform="translate(428.121 230.156)">
          <rect id="사각형_60" data-name="사각형 60" width="3.052" height="3.052" fill="#ef373e"/>
        </g>
        <g id="그룹_169" data-name="그룹 169" transform="translate(446.227 221)">
          <path id="패스_191" data-name="패스 191" d="M515.585,308.144h-3.052V248.63a7.63,7.63,0,1,1,15.26,0V282.2a3.052,3.052,0,1,0,6.1,0V253.208h-3.052v-3.052h6.1V282.2a6.1,6.1,0,0,1-12.208,0V248.63a4.578,4.578,0,0,0-9.156,0Z" transform="translate(-512.533 -241)" fill="#ef373e"/>
        </g>
        <g id="그룹_175" data-name="그룹 175" transform="translate(411.14 275.839)">
          <g id="그룹_170" data-name="그룹 170" transform="translate(6.104 3.052)">
            <path id="패스_192" data-name="패스 192" d="M464.037,341.231a6.11,6.11,0,0,1-6.1-6.1h3.052a3.052,3.052,0,1,0,6.1,0c0-.991-2.173-2.512-3.676-3.185-.915-.411-5.48-2.625-5.48-5.972a6.1,6.1,0,0,1,12.208,0h-3.052a3.052,3.052,0,1,0-6.1,0c0,.991,2.173,2.512,3.676,3.184.915.412,5.479,2.625,5.479,5.972A6.11,6.11,0,0,1,464.037,341.231Z" transform="translate(-457.933 -319.867)" fill="#ef373e"/>
          </g>
          <g id="그룹_171" data-name="그룹 171" transform="translate(10.682)">
            <rect id="사각형_61" data-name="사각형 61" width="3.052" height="4.578" fill="#ef373e"/>
          </g>
          <g id="그룹_172" data-name="그룹 172" transform="translate(10.682 22.89)">
            <rect id="사각형_62" data-name="사각형 62" width="3.052" height="4.578" fill="#ef373e"/>
          </g>
          <g id="그룹_173" data-name="그룹 173" transform="translate(21.364 12.208)">
            <rect id="사각형_63" data-name="사각형 63" width="3.052" height="3.052" fill="#ef373e"/>
          </g>
          <g id="그룹_174" data-name="그룹 174" transform="translate(0 12.208)">
            <rect id="사각형_64" data-name="사각형 64" width="3.052" height="3.052" fill="#ef373e"/>
          </g>
        </g>
        <g id="그룹_177" data-name="그룹 177" transform="translate(405.036 257.081)">
          <rect id="사각형_56-2" data-name="사각형 56" width="36.624" height="3.052" fill="#ef373e"/>
        </g>
        <g id="그룹_178" data-name="그룹 178" transform="translate(405.036 263.682)">
          <rect id="사각형_57-2" data-name="사각형 57" width="36.624" height="3.052" transform="translate(0 0)" fill="#ef373e"/>
        </g>
      </g>
      <g id="그룹_192" data-name="그룹 192" transform="translate(1666.885 1202.902) rotate(90)">
        <g id="그룹_190" data-name="그룹 190" transform="translate(222.572 281.823)">
          <path id="패스_202" data-name="패스 202" d="M268.2,308.359l-2.816-.1a16.97,16.97,0,0,0-.387-4.246l-.256-1.164,5.756-2.322-1.251-3.1-5.758,2.323-.623-1.017a16.848,16.848,0,0,0-5.343-5.441l-1-.642,2.431-5.712-3.08-1.309-2.43,5.714-1.158-.279a16.871,16.871,0,0,0-7.624-.073l-1.165.256-2.322-5.756-3.1,1.252,2.323,5.758-1.017.623a16.816,16.816,0,0,0-5.441,5.342l-.642,1-5.714-2.43-1.309,3.08,5.712,2.43-.277,1.158a17.118,17.118,0,0,0-.461,4.556l-2.816.1a19.929,19.929,0,0,1,.293-4.135l-6.145-2.615,3.512-8.267,6.146,2.615a19.581,19.581,0,0,1,4.666-4.583l-2.5-6.191,8.328-3.358,2.5,6.193a20,20,0,0,1,6.537.062l2.615-6.148,8.265,3.515-2.615,6.145a19.578,19.578,0,0,1,4.583,4.666l6.191-2.5,3.36,8.328-6.193,2.5A19.707,19.707,0,0,1,268.2,308.359Z" transform="translate(-222.572 -281.823)" fill="#ef373e"/>
        </g>
        <g id="그룹_191" data-name="그룹 191" transform="translate(237.658 297.654)">
          <path id="패스_203" data-name="패스 203" d="M254.587,303.715h-2.818a7.835,7.835,0,1,0-15.671,0h-2.817a10.653,10.653,0,1,1,21.306,0Z" transform="translate(-233.281 -293.061)" fill="#ef373e"/>
        </g>
      </g>
    </g>
  </g>
</svg>
