<svg xmlns="http://www.w3.org/2000/svg" id="pgrm1.svg" width="69" height="64" viewBox="0 0 69 64">
    <defs>
        <style>
            .cls-1{fill:none}.cls-2{clip-path:url(#clip-path)}.cls-3{fill:#ef373e}
        </style>
        <clipPath id="clip-path">
            <path id="사각형_19" d="M0 0h69v64H0z" class="cls-1" data-name="사각형 19"/>
        </clipPath>
    </defs>
    <g id="그룹_30" data-name="그룹 30">
        <g id="그룹_29" class="cls-2" data-name="그룹 29">
            <path id="패스_45" d="M43.957 24.9a6.039 6.039 0 0 1-5.041-2.783.434.434 0 0 0-.567-.124c-1.575.935-4.844 1.494-8.746 1.494a1.067 1.067 0 1 1 0-2.133c4.157 0 6.711-.641 7.636-1.19a2.606 2.606 0 0 1 3.5.809 3.874 3.874 0 0 0 3.221 1.794 1.067 1.067 0 1 1 0 2.133" class="cls-3" data-name="패스 45"/>
            <path id="패스_46" d="M47.439 45.867a1.086 1.086 0 0 1-.3-.041L39.6 43.693a1.069 1.069 0 0 1-.783-1.026V38.4a1.065 1.065 0 0 1 .353-.789c.22-.2.454-.388.7-.588a8.362 8.362 0 0 0 3.3-5.282 58.294 58.294 0 0 0 1.052-6.259 22.008 22.008 0 0 0 0-5.077c-.458-3.482-5-6.538-9.712-6.538s-9.254 3.056-9.713 6.538a22.071 22.071 0 0 0 0 5.077 58.3 58.3 0 0 0 1.052 6.259 8.362 8.362 0 0 0 3.3 5.282c.243.2.477.39.7.588a1.065 1.065 0 0 1 .353.789v4.267a1.069 1.069 0 0 1-.783 1.026l-7.547 2.133a1.082 1.082 0 0 1-1.333-.734 1.066 1.066 0 0 1 .742-1.318l6.764-1.911v-2.976c-.086-.073-.175-.144-.264-.218a10.529 10.529 0 0 1-4.016-6.411 60.251 60.251 0 0 1-1.1-6.541 23.891 23.891 0 0 1 0-5.588c.661-5.023 6.662-8.4 11.851-8.4s11.19 3.374 11.85 8.4a23.83 23.83 0 0 1 0 5.588 60.25 60.25 0 0 1-1.1 6.541 10.529 10.529 0 0 1-4.016 6.411c-.089.074-.178.145-.264.218v2.975l6.764 1.911a1.066 1.066 0 0 1 .742 1.318 1.077 1.077 0 0 1-1.036.774" class="cls-3" data-name="패스 46"/>
            <path id="패스_47" d="M47.823 54.156a1.082 1.082 0 0 1-.915-.5l-3.617-5.727a1.061 1.061 0 0 1 .342-1.47 1.085 1.085 0 0 1 1.486.34l3.618 5.726a1.06 1.06 0 0 1-.343 1.47 1.082 1.082 0 0 1-.57.162" class="cls-3" data-name="패스 47"/>
            <path id="패스_48" d="M21.177 54.156a1.082 1.082 0 0 1-.57-.162 1.06 1.06 0 0 1-.343-1.47l3.618-5.724a1.085 1.085 0 0 1 1.486-.34 1.061 1.061 0 0 1 .342 1.47l-3.617 5.727a1.082 1.082 0 0 1-.915.5" class="cls-3" data-name="패스 48"/>
            <path id="패스_49" d="M57.141 33.067h-4.313a1.067 1.067 0 1 1 0-2.133h4.313a1.067 1.067 0 1 1 0 2.133" class="cls-3" data-name="패스 49"/>
            <path id="패스_50" d="M16.172 33.067h-4.313a1.067 1.067 0 1 1 0-2.133h4.313a1.067 1.067 0 1 1 0 2.133" class="cls-3" data-name="패스 50"/>
            <path id="패스_51" d="M10.506 24.349a1.086 1.086 0 0 1-.448-.1 1.061 1.061 0 0 1-.53-1.414l3.782-8.164a1.082 1.082 0 0 1 1.43-.525 1.061 1.061 0 0 1 .53 1.413l-3.782 8.165a1.079 1.079 0 0 1-.981.622" class="cls-3" data-name="패스 51"/>
            <path id="패스_52" d="M58.494 24.349a1.079 1.079 0 0 1-.981-.622l-3.782-8.165a1.061 1.061 0 0 1 .53-1.413 1.082 1.082 0 0 1 1.43.525l3.782 8.164a1.061 1.061 0 0 1-.53 1.414 1.086 1.086 0 0 1-.449.1" class="cls-3" data-name="패스 52"/>
            <path id="패스_53" d="M18.328 12.8a6.441 6.441 0 0 1-6.469-6.4 6.469 6.469 0 0 1 12.941 0 6.441 6.441 0 0 1-6.469 6.4m0-10.667a4.267 4.267 0 1 0 4.31 4.267 4.294 4.294 0 0 0-4.312-4.267" class="cls-3" data-name="패스 53"/>
            <path id="패스_54" d="M50.672 12.8A6.441 6.441 0 0 1 44.2 6.4a6.469 6.469 0 0 1 12.938 0 6.441 6.441 0 0 1-6.469 6.4m0-10.667A4.267 4.267 0 1 0 54.984 6.4a4.294 4.294 0 0 0-4.312-4.267" class="cls-3" data-name="패스 54"/>
            <path id="패스_55" d="M62.531 38.4A6.4 6.4 0 1 1 69 32a6.441 6.441 0 0 1-6.469 6.4m0-10.667A4.267 4.267 0 1 0 66.844 32a4.294 4.294 0 0 0-4.312-4.267" class="cls-3" data-name="패스 55"/>
            <path id="패스_56" d="M6.469 38.4a6.4 6.4 0 1 1 6.469-6.4 6.441 6.441 0 0 1-6.469 6.4m0-10.667A4.267 4.267 0 1 0 10.781 32a4.294 4.294 0 0 0-4.312-4.267" class="cls-3" data-name="패스 56"/>
            <path id="패스_57" d="M50.672 64a6.4 6.4 0 1 1 6.469-6.4 6.441 6.441 0 0 1-6.469 6.4m0-10.667a4.267 4.267 0 1 0 4.312 4.267 4.294 4.294 0 0 0-4.312-4.267" class="cls-3" data-name="패스 57"/>
            <path id="패스_58" d="M18.328 64a6.4 6.4 0 1 1 6.472-6.4 6.441 6.441 0 0 1-6.472 6.4m0-10.667a4.267 4.267 0 1 0 4.313 4.267 4.294 4.294 0 0 0-4.312-4.267" class="cls-3" data-name="패스 58"/>
            <path id="패스_59" d="M34.5 51.2A19.326 19.326 0 0 1 15.094 32a19.067 19.067 0 0 1 2.282-9.039 1.084 1.084 0 0 1 1.46-.437 1.06 1.06 0 0 1 .442 1.443A16.938 16.938 0 0 0 17.25 32a17.251 17.251 0 0 0 34.5 0 16.937 16.937 0 0 0-2.028-8.032 1.06 1.06 0 0 1 .442-1.443 1.084 1.084 0 0 1 1.46.437A19.066 19.066 0 0 1 53.906 32 19.326 19.326 0 0 1 34.5 51.2" class="cls-3" data-name="패스 59"/>
        </g>
    </g>
</svg>
