<svg xmlns="http://www.w3.org/2000/svg" width="18" height="18" viewBox="0 0 18 18">
    <defs>
        <style>
            .cls-1{fill:none}.cls-2{fill:#8e8e8e}.cls-3{clip-path:url(#clip-path)}.cls-4{fill:#fff}
        </style>
        <clipPath id="clip-path">
            <path id="사각형_5" d="M0 0h18v18H0z" class="cls-1" data-name="사각형 5"/>
        </clipPath>
    </defs>
    <g id="insicon.svg" transform="translate(-1508 -5532)">
        <g id="insicon.svg-2" data-name="insicon.svg" transform="translate(1508 5532)">
            <g id="그룹_10" data-name="그룹 10">
                <g id="그룹_9" class="cls-3" data-name="그룹 9">
                    <path id="패스_23" d="M8.948 17.976c-1.318 0-2.637.045-3.953-.009A4.76 4.76 0 0 1 .06 13.075a142.841 142.841 0 0 1-.01-7.909C.129 2.106 1.909.227 4.966.087c2.63-.12 5.274-.112 7.905 0a4.9 4.9 0 0 1 5.06 5.139c.085 2.537.093 5.081.008 7.617-.108 3.209-1.977 5.014-5.185 5.132-1.268.047-2.538.008-3.807.008zm.069-16.195v-.05H5.505a7.124 7.124 0 0 0-.73.051c-1.691.182-2.868 1.048-2.955 2.7-.158 3.008-.132 6.033-.018 9.045a2.672 2.672 0 0 0 2.753 2.7c2.915.108 5.843.173 8.752.012a2.8 2.8 0 0 0 2.9-3.054c.1-2.775.1-5.559 0-8.335a2.993 2.993 0 0 0-3.1-3.051c-1.358-.095-2.728-.019-4.092-.019" class="cls-4" data-name="패스 23"/>
                    <path id="패스_24" d="M8.944 13.652a4.536 4.536 0 0 1-4.579-4.686 4.518 4.518 0 0 1 4.568-4.544 4.561 4.561 0 0 1 4.654 4.615 4.514 4.514 0 0 1-4.642 4.614M5.976 9a3.077 3.077 0 0 0 2.948 3.045 3.084 3.084 0 0 0 3.041-2.95 3.01 3.01 0 0 0-2.946-3.028A3.055 3.055 0 0 0 5.976 9" class="cls-4" data-name="패스 24"/>
                    <path id="패스_25" d="M14.494 4.4a.907.907 0 1 1-.907-.908.908.908 0 0 1 .907.908" class="cls-4" data-name="패스 25"/>
                </g>
            </g>
        </g>
        <path id="Color_Overlay" d="M1516.948 5549.985v-.01c-1.318 0-2.637.046-3.953-.008a4.761 4.761 0 0 1-4.935-4.893 142.839 142.839 0 0 1-.01-7.909c.078-3.06 1.858-4.939 4.915-5.079q1.924-.088 3.854-.087h.046q2 0 4.006.089a4.9 4.9 0 0 1 5.06 5.138c.085 2.538.093 5.082.008 7.618-.109 3.209-1.976 5.015-5.186 5.133a37.98 37.98 0 0 1-1.433.022c-.79.001-1.581-.014-2.372-.014zm-3.443-16.252a7.2 7.2 0 0 0-.73.05c-1.691.182-2.867 1.047-2.954 2.7-.159 3.007-.132 6.033-.018 9.044a2.673 2.673 0 0 0 2.754 2.7c2.915.109 5.843.173 8.753.013a2.8 2.8 0 0 0 2.9-3.055c.1-2.776.1-5.559 0-8.335a2.992 2.992 0 0 0-3.1-3.05c-1.358-.095-2.729-.02-4.092-.02v-.05h-1.873c-.545 0-1.093 0-1.645.003zm3.439 11.919a4.624 4.624 0 1 1 .036 0zm-2.968-4.654a3 3 0 1 0 5.989.095 3.009 3.009 0 0 0-2.944-3.026h-.058a3.059 3.059 0 0 0-2.988 2.933zm6.7-4.6a.907.907 0 1 1 .907.908.907.907 0 0 1-.904-.906z" class="cls-2" data-name="Color Overlay"/>
    </g>
</svg>
