<svg xmlns="http://www.w3.org/2000/svg" xmlns:xlink="http://www.w3.org/1999/xlink" width="18" height="18" viewBox="0 0 18 18">
  <defs>
    <clipPath id="clip-path">
      <rect id="사각형_13" data-name="사각형 13" width="18" height="18" transform="translate(0 0)" fill="none"/>
    </clipPath>
  </defs>
  <g id="insicon_act" transform="translate(-1508 -3648)">
    <g id="insicon_act-2" data-name="insicon_act" transform="translate(1508 3648)">
      <g id="그룹_22" data-name="그룹 22">
        <g id="그룹_21" data-name="그룹 21" clip-path="url(#clip-path)">
          <path id="패스_35" data-name="패스 35" d="M8.948,17.976c-1.318,0-2.637.045-3.953-.009A4.76,4.76,0,0,1,.06,13.075C-.019,10.441-.017,7.8.05,5.166.129,2.106,1.909.227,4.966.087c2.63-.12,5.274-.112,7.905,0a4.9,4.9,0,0,1,5.06,5.139c.085,2.537.093,5.081.008,7.617-.108,3.209-1.977,5.014-5.185,5.132-1.268.047-2.538.008-3.807.008ZM9.017,1.781V1.731c-1.171,0-2.341,0-3.512,0a7.124,7.124,0,0,0-.73.051c-1.691.182-2.868,1.048-2.955,2.7-.158,3.008-.132,6.033-.018,9.045a2.672,2.672,0,0,0,2.753,2.7c2.915.108,5.843.173,8.752.012a2.8,2.8,0,0,0,2.9-3.054c.1-2.775.1-5.559,0-8.335a2.993,2.993,0,0,0-3.1-3.051c-1.358-.095-2.728-.019-4.092-.019" fill="#fff"/>
          <path id="패스_36" data-name="패스 36" d="M8.944,13.652A4.536,4.536,0,0,1,4.365,8.966,4.518,4.518,0,0,1,8.933,4.422a4.561,4.561,0,0,1,4.654,4.615,4.514,4.514,0,0,1-4.642,4.614M5.976,9a3.077,3.077,0,0,0,2.948,3.045,3.084,3.084,0,0,0,3.041-2.95A3.01,3.01,0,0,0,9.019,6.067,3.055,3.055,0,0,0,5.976,9" fill="#fff"/>
          <path id="패스_37" data-name="패스 37" d="M14.494,4.4a.907.907,0,1,1-.907-.908.908.908,0,0,1,.907.908" fill="#fff"/>
        </g>
      </g>
    </g>
    <path id="Color_Overlay" data-name="Color Overlay" d="M1516.948,3665.985v-.009c-1.318,0-2.637.046-3.953-.008a4.761,4.761,0,0,1-4.935-4.893c-.079-2.633-.077-5.273-.009-7.908.078-3.06,1.859-4.94,4.916-5.079q1.922-.089,3.852-.087h.046q2.005,0,4.007.087a4.9,4.9,0,0,1,5.06,5.139c.085,2.538.093,5.081.007,7.617-.108,3.209-1.976,5.014-5.184,5.132-.477.018-.956.024-1.433.024C1518.53,3666,1517.739,3665.985,1516.948,3665.985Zm-3.443-16.251a7.178,7.178,0,0,0-.73.05c-1.691.182-2.867,1.048-2.954,2.7-.158,3.007-.132,6.033-.018,9.044a2.674,2.674,0,0,0,2.754,2.7c2.916.108,5.843.172,8.752.011a2.8,2.8,0,0,0,2.9-3.054c.1-2.775.1-5.559,0-8.335a2.992,2.992,0,0,0-3.1-3.051c-1.358-.095-2.728-.019-4.092-.019v-.05h-1.872Q1514.325,3649.73,1513.5,3649.734Zm3.439,11.918a4.625,4.625,0,1,1,.036,0Zm-2.968-4.653a3,3,0,1,0,5.99.094,3.011,3.011,0,0,0-2.946-3.026h-.057A3.058,3.058,0,0,0,1513.976,3657Zm6.7-4.6a.907.907,0,1,1,.907.908A.907.907,0,0,1,1520.679,3652.4Z" fill="#ef373e"/>
  </g>
</svg>
