<svg xmlns="http://www.w3.org/2000/svg" width="18" height="18" viewBox="0 0 18 18">
  <g id="insicon" transform="translate(-1508 -3648)">
    <path id="Color_Overlay" data-name="Color Overlay" d="M1516.948,3665.985v-.009c-1.318,0-2.637.046-3.953-.008a4.761,4.761,0,0,1-4.935-4.893c-.079-2.633-.077-5.273-.009-7.908.078-3.06,1.859-4.94,4.916-5.079q1.922-.089,3.852-.087h.046q2.005,0,4.007.087a4.9,4.9,0,0,1,5.06,5.139c.085,2.538.093,5.081.007,7.617-.108,3.209-1.976,5.014-5.184,5.132-.477.018-.956.024-1.433.024C1518.53,3666,1517.739,3665.985,1516.948,3665.985Zm-3.443-16.251a7.178,7.178,0,0,0-.73.05c-1.691.182-2.867,1.048-2.954,2.7-.158,3.007-.132,6.033-.018,9.044a2.674,2.674,0,0,0,2.754,2.7c2.916.108,5.843.172,8.752.011a2.8,2.8,0,0,0,2.9-3.054c.1-2.775.1-5.559,0-8.335a2.992,2.992,0,0,0-3.1-3.051c-1.358-.095-2.728-.019-4.092-.019v-.05h-1.872Q1514.325,3649.73,1513.5,3649.734Zm3.439,11.918a4.625,4.625,0,1,1,.036,0Zm-2.968-4.653a3,3,0,1,0,5.99.094,3.011,3.011,0,0,0-2.946-3.026h-.057A3.058,3.058,0,0,0,1513.976,3657Zm6.7-4.6a.907.907,0,1,1,.907.908A.907.907,0,0,1,1520.679,3652.4Z" fill="#8e8e8e"/>
  </g>
</svg>
