<svg xmlns="http://www.w3.org/2000/svg" xmlns:xlink="http://www.w3.org/1999/xlink" width="18.001" height="18" viewBox="0 0 18.001 18">
  <defs>
    <clipPath id="clip-path">
      <rect id="사각형_16" data-name="사각형 16" width="18" height="18" transform="translate(0 0)" fill="none"/>
    </clipPath>
  </defs>
  <g id="lkinicon_act" transform="translate(-1550 -3648)">
    <g id="lkinicon_act-2" data-name="lkinicon_act" transform="translate(1550 3648)">
      <g id="그룹_26" data-name="그룹 26">
        <g id="그룹_25" data-name="그룹 25" clip-path="url(#clip-path)">
          <path id="패스_41" data-name="패스 41" d="M10.067,18H6.4V6.29C8.71,5.679,9.71,5.9,10.084,7.01a11.716,11.716,0,0,1,2.582-1.19c2.949-.575,4.683.753,5.18,3.791A9.058,9.058,0,0,1,17.991,11c.015,2.278.007,4.556.007,6.96H14.263q0-1.846,0-3.692c0-.83.019-1.662-.018-2.491-.084-1.948-.688-2.755-2.009-2.747-1.374.008-2.112.919-2.158,2.831-.048,2.016-.011,4.035-.011,6.137" fill="#fff"/>
          <rect id="사각형_15" data-name="사각형 15" width="3.581" height="11.88" transform="translate(0.36 6.108)" fill="#fff"/>
          <path id="패스_42" data-name="패스 42" d="M2.163,4.328A2.124,2.124,0,0,1,0,2.192,2.157,2.157,0,0,1,2.132,0,2.13,2.13,0,0,1,4.276,2.161,2.073,2.073,0,0,1,2.163,4.328" fill="#fff"/>
        </g>
      </g>
    </g>
    <path id="Color_Overlay" data-name="Color Overlay" d="M1556.4,3666v-11.71c2.314-.611,3.314-.391,3.688.72a11.712,11.712,0,0,1,2.583-1.19c2.949-.575,4.682.753,5.18,3.791a9.089,9.089,0,0,1,.145,1.391c.005.854.008,1.708.009,2.568v1.661c0,.9,0,1.8,0,2.731h-3.735c0-1.231,0-2.462,0-3.692,0-.831.019-1.662-.016-2.491-.085-1.948-.688-2.755-2.01-2.747-1.375.007-2.111.918-2.157,2.831-.047,2.017-.01,4.035-.01,6.138Zm-6.035-.012v-11.88h3.58v11.88Zm1.791-13.661a2.123,2.123,0,0,1-2.153-2.135,2.157,2.157,0,0,1,2.133-2.192h.048a2.13,2.13,0,0,1,2.1,2.161,2.073,2.073,0,0,1-2.112,2.166Z" fill="#ef373e"/>
  </g>
</svg>
