<svg xmlns="http://www.w3.org/2000/svg" width="18.001" height="18" viewBox="0 0 18.001 18">
  <g id="lkinicon" transform="translate(-1550 -3648)">
    <path id="Color_Overlay" data-name="Color Overlay" d="M1556.4,3666v-11.71c2.314-.611,3.314-.391,3.688.72a11.712,11.712,0,0,1,2.583-1.19c2.949-.575,4.682.753,5.18,3.791a9.089,9.089,0,0,1,.145,1.391c.005.854.008,1.708.009,2.568v1.661c0,.9,0,1.8,0,2.731h-3.735c0-1.231,0-2.462,0-3.692,0-.831.019-1.662-.016-2.491-.085-1.948-.688-2.755-2.01-2.747-1.375.007-2.111.918-2.157,2.831-.047,2.017-.01,4.035-.01,6.138Zm-6.035-.012v-11.88h3.58v11.88Zm1.791-13.661a2.123,2.123,0,0,1-2.153-2.135,2.157,2.157,0,0,1,2.133-2.192h.048a2.13,2.13,0,0,1,2.1,2.161,2.073,2.073,0,0,1-2.112,2.166Z" fill="#8e8e8e"/>
  </g>
</svg>
