<svg xmlns="http://www.w3.org/2000/svg" width="18" height="18" viewBox="0 0 18 18">
    <defs>
        <style>
            .cls-1{fill:none}.cls-2{fill:#8e8e8e}.cls-3{clip-path:url(#clip-path)}.cls-4{fill:#fff}
        </style>
        <clipPath id="clip-path">
            <path id="사각형_8" d="M0 0h18v18H0z" class="cls-1" data-name="사각형 8"/>
        </clipPath>
    </defs>
    <g id="lkinicon.svg" transform="translate(-1550 -5532)">
        <g id="lkinicon.svg-2" data-name="lkinicon.svg" transform="translate(1550 5532)">
            <g id="그룹_14" data-name="그룹 14">
                <g id="그룹_13" class="cls-3" data-name="그룹 13">
                    <path id="패스_29" d="M10.067 18H6.4V6.29c2.31-.611 3.31-.39 3.684.72a11.716 11.716 0 0 1 2.582-1.19c2.949-.575 4.683.753 5.18 3.791A9.058 9.058 0 0 1 17.991 11c.015 2.278.007 4.556.007 6.96h-3.735v-3.692c0-.83.019-1.662-.018-2.491-.084-1.948-.688-2.755-2.009-2.747-1.374.008-2.112.919-2.158 2.831-.048 2.016-.011 4.035-.011 6.137" class="cls-4" data-name="패스 29"/>
                    <path id="사각형_7" d="M0 0h3.581v11.88H0z" class="cls-4" data-name="사각형 7" transform="translate(.36 6.108)"/>
                    <path id="패스_30" d="M2.163 4.328A2.124 2.124 0 0 1 0 2.192 2.157 2.157 0 0 1 2.132 0a2.13 2.13 0 0 1 2.144 2.161 2.073 2.073 0 0 1-2.113 2.167" class="cls-4" data-name="패스 30"/>
                </g>
            </g>
        </g>
        <path id="Color_Overlay" d="M1556.4 5550v-11.71c2.313-.611 3.314-.391 3.687.72a11.7 11.7 0 0 1 2.582-1.189c2.95-.575 4.683.752 5.18 3.79a9 9 0 0 1 .145 1.39c.005.855.008 1.709.01 2.57v4.39h-3.736v-3.691c0-.832.02-1.663-.017-2.492-.085-1.947-.688-2.755-2.01-2.747-1.373.007-2.112.918-2.158 2.832-.047 2.016-.01 4.035-.01 6.137zm-6.035-.011v-11.88h3.58v11.88zm1.791-13.661a2.123 2.123 0 0 1-2.152-2.135 2.157 2.157 0 0 1 2.133-2.192h.047a2.131 2.131 0 0 1 2.1 2.162 2.073 2.073 0 0 1-2.113 2.166z" class="cls-2" data-name="Color Overlay"/>
    </g>
</svg>
