<svg xmlns="http://www.w3.org/2000/svg" id="pgrm2.svg" width="69" height="43" viewBox="0 0 69 43">
    <defs>
        <style>
            .cls-1{fill:none}.cls-2{clip-path:url(#clip-path)}.cls-3{fill:#ef373e}
        </style>
        <clipPath id="clip-path">
            <path id="사각형_20" d="M0 0h69v43H0z" class="cls-1" data-name="사각형 20"/>
        </clipPath>
    </defs>
    <g id="그룹_32" data-name="그룹 32">
        <g id="그룹_31" class="cls-2" data-name="그룹 31">
            <path id="패스_60" d="M22.945 20.046a1.072 1.072 0 0 1-1-.668 11.044 11.044 0 0 0-3.838-4.756l-1.607-.789a11.934 11.934 0 0 1-4.268.939 11.93 11.93 0 0 1-4.268-.939l-1.679.828a11 11 0 0 0-3.767 4.717 1.079 1.079 0 0 1-1.389.6 1.05 1.05 0 0 1-.605-1.366 13.037 13.037 0 0 1 4.732-5.8l2.214-1.095a1.092 1.092 0 0 1 .959 0 9.816 9.816 0 0 0 3.808.944 9.819 9.819 0 0 0 3.8-.944 1.092 1.092 0 0 1 .959 0l2.142 1.055a13.082 13.082 0 0 1 4.8 5.834 1.05 1.05 0 0 1-.605 1.366 1.087 1.087 0 0 1-.392.073" class="cls-3" data-name="패스 60"/>
            <path id="패스_61" d="M12.233 10.55a5.322 5.322 0 0 1-5.356-5.275 5.356 5.356 0 0 1 10.711 0 5.322 5.322 0 0 1-5.355 5.275m0-8.44A3.193 3.193 0 0 0 9.02 5.275a3.214 3.214 0 0 0 6.426 0 3.193 3.193 0 0 0-3.213-3.165" class="cls-3" data-name="패스 61"/>
            <path id="패스_62" d="M45.437 20.046a1.072 1.072 0 0 1-1-.668 11.044 11.044 0 0 0-3.837-4.756l-1.608-.789a11.934 11.934 0 0 1-4.268.939 11.93 11.93 0 0 1-4.268-.939l-1.679.828a11 11 0 0 0-3.767 4.717 1.079 1.079 0 0 1-1.389.6 1.05 1.05 0 0 1-.605-1.366 13.037 13.037 0 0 1 4.732-5.8l2.213-1.094a1.092 1.092 0 0 1 .959 0 9.816 9.816 0 0 0 3.808.944 9.819 9.819 0 0 0 3.8-.944 1.092 1.092 0 0 1 .959 0l2.142 1.055a13.09 13.09 0 0 1 4.8 5.834 1.05 1.05 0 0 1-.606 1.366 1.086 1.086 0 0 1-.391.073" class="cls-3" data-name="패스 62"/>
            <path id="패스_63" d="M34.725 10.55a5.322 5.322 0 0 1-5.355-5.275 5.356 5.356 0 0 1 10.711 0 5.322 5.322 0 0 1-5.355 5.275m0-8.44a3.193 3.193 0 0 0-3.213 3.165 3.214 3.214 0 0 0 6.426 0 3.193 3.193 0 0 0-3.214-3.165" class="cls-3" data-name="패스 63"/>
            <path id="패스_64" d="M67.93 20.046a1.072 1.072 0 0 1-1-.668 11.044 11.044 0 0 0-3.838-4.756l-1.609-.789a11.926 11.926 0 0 1-4.268.939 11.922 11.922 0 0 1-4.267-.939l-1.681.828a11.006 11.006 0 0 0-3.767 4.717 1.079 1.079 0 0 1-1.389.6 1.05 1.05 0 0 1-.605-1.366 13.037 13.037 0 0 1 4.732-5.8l2.213-1.094a1.09 1.09 0 0 1 .958 0 9.819 9.819 0 0 0 3.809.944 9.819 9.819 0 0 0 3.8-.944 1.09 1.09 0 0 1 .958 0l2.142 1.055a13.088 13.088 0 0 1 4.8 5.834 1.05 1.05 0 0 1-.606 1.366 1.086 1.086 0 0 1-.391.073" class="cls-3" data-name="패스 64"/>
            <path id="패스_65" d="M57.218 10.55a5.322 5.322 0 0 1-5.355-5.275 5.356 5.356 0 0 1 10.711 0 5.322 5.322 0 0 1-5.355 5.275m0-8.44A3.193 3.193 0 0 0 54 5.275a3.214 3.214 0 0 0 6.426 0 3.193 3.193 0 0 0-3.208-3.165" class="cls-3" data-name="패스 65"/>
            <path id="패스_66" d="M22.494 43a1.072 1.072 0 0 1-1-.668 11.044 11.044 0 0 0-3.838-4.756l-1.608-.789a11.934 11.934 0 0 1-4.268.939 11.93 11.93 0 0 1-4.268-.939l-1.679.828a11 11 0 0 0-3.767 4.717 1.08 1.08 0 0 1-1.389.6 1.05 1.05 0 0 1-.605-1.366 13.037 13.037 0 0 1 4.732-5.8l2.213-1.094a1.092 1.092 0 0 1 .959 0 9.816 9.816 0 0 0 3.808.944 9.819 9.819 0 0 0 3.8-.944 1.092 1.092 0 0 1 .959 0l2.142 1.055a13.082 13.082 0 0 1 4.8 5.834 1.05 1.05 0 0 1-.605 1.366 1.087 1.087 0 0 1-.392.073" class="cls-3" data-name="패스 66"/>
            <path id="패스_67" d="M11.782 33.506a5.276 5.276 0 1 1 5.355-5.275 5.322 5.322 0 0 1-5.355 5.275m0-8.44A3.165 3.165 0 1 0 15 28.231a3.193 3.193 0 0 0-3.213-3.165" class="cls-3" data-name="패스 67"/>
            <path id="패스_68" d="M44.986 43a1.072 1.072 0 0 1-1-.668 11.044 11.044 0 0 0-3.838-4.756l-1.608-.789a11.934 11.934 0 0 1-4.268.939 11.93 11.93 0 0 1-4.268-.939l-1.679.828a11 11 0 0 0-3.767 4.717 1.08 1.08 0 0 1-1.389.6 1.05 1.05 0 0 1-.605-1.366 13.037 13.037 0 0 1 4.732-5.8l2.213-1.094a1.092 1.092 0 0 1 .959 0 9.816 9.816 0 0 0 3.808.944 9.819 9.819 0 0 0 3.8-.944 1.092 1.092 0 0 1 .959 0l2.142 1.055a13.09 13.09 0 0 1 4.8 5.834 1.05 1.05 0 0 1-.606 1.366 1.086 1.086 0 0 1-.391.073" class="cls-3" data-name="패스 68"/>
            <path id="패스_69" d="M34.274 33.506a5.276 5.276 0 1 1 5.355-5.275 5.322 5.322 0 0 1-5.355 5.275m0-8.44a3.165 3.165 0 1 0 3.213 3.165 3.193 3.193 0 0 0-3.213-3.165" class="cls-3" data-name="패스 69"/>
            <path id="패스_70" d="M67.479 43a1.072 1.072 0 0 1-1-.668 11.044 11.044 0 0 0-3.838-4.756l-1.609-.789a11.926 11.926 0 0 1-4.268.939 11.922 11.922 0 0 1-4.267-.939l-1.681.828a11.006 11.006 0 0 0-3.766 4.717 1.08 1.08 0 0 1-1.389.6 1.05 1.05 0 0 1-.605-1.366 13.037 13.037 0 0 1 4.732-5.8L52 34.672a1.09 1.09 0 0 1 .958 0 9.819 9.819 0 0 0 3.809.944 9.819 9.819 0 0 0 3.8-.944 1.09 1.09 0 0 1 .958 0l2.142 1.055a13.088 13.088 0 0 1 4.8 5.834 1.05 1.05 0 0 1-.606 1.366 1.086 1.086 0 0 1-.391.073" class="cls-3" data-name="패스 70"/>
            <path id="패스_71" d="M56.767 33.506a5.276 5.276 0 1 1 5.355-5.275 5.322 5.322 0 0 1-5.355 5.275m0-8.44a3.165 3.165 0 1 0 3.213 3.165 3.193 3.193 0 0 0-3.213-3.165" class="cls-3" data-name="패스 71"/>
        </g>
    </g>
</svg>
