<svg xmlns="http://www.w3.org/2000/svg" id="pgrm3.svg" width="62" height="58" viewBox="0 0 62 58">
    <defs>
        <style>
            .cls-1{fill:none}.cls-2{clip-path:url(#clip-path)}.cls-3{fill:#ef373e}
        </style>
        <clipPath id="clip-path">
            <path id="사각형_21" d="M0 0h62v58H0z" class="cls-1" data-name="사각형 21"/>
        </clipPath>
    </defs>
    <g id="그룹_34" data-name="그룹 34">
        <g id="그룹_33" class="cls-2" data-name="그룹 33">
            <path id="패스_72" d="M61.031 53.167H25.188a.967.967 0 1 1 0-1.933h35.843a.967.967 0 1 1 0 1.933" class="cls-3" data-name="패스 72"/>
            <path id="패스_73" d="M7.75 53.167H.969a.967.967 0 1 1 0-1.933H7.75a.967.967 0 1 1 0 1.933" class="cls-3" data-name="패스 73"/>
            <path id="패스_74" d="M16.469 58a5.8 5.8 0 1 1 5.813-5.8 5.812 5.812 0 0 1-5.813 5.8m0-9.667a3.867 3.867 0 1 0 3.875 3.867 3.875 3.875 0 0 0-3.875-3.867" class="cls-3" data-name="패스 74"/>
            <path id="패스_75" d="M59.094 42.533H2.906A2.907 2.907 0 0 1 0 39.633V2.9A2.907 2.907 0 0 1 2.906 0h56.188A2.907 2.907 0 0 1 62 2.9v36.733a2.907 2.907 0 0 1-2.906 2.9M2.906 1.933a.969.969 0 0 0-.969.967v36.733a.969.969 0 0 0 .969.967h56.188a.969.969 0 0 0 .969-.967V2.9a.969.969 0 0 0-.969-.967z" class="cls-3" data-name="패스 75"/>
            <path id="패스_76" d="M21.313 32.867a.97.97 0 0 1-.969-.967V10.633a.968.968 0 0 1 1.435-.847L41.153 20.42a.964.964 0 0 1 0 1.694L21.778 32.747a.959.959 0 0 1-.466.12m.969-20.6v18l16.4-9z" class="cls-3" data-name="패스 76"/>
        </g>
    </g>
</svg>
