<svg xmlns="http://www.w3.org/2000/svg" width="25" height="18" viewBox="0 0 25 18">
    <defs>
        <style>
            .cls-1{fill:none}.cls-2{fill:#8e8e8e}.cls-3{clip-path:url(#clip-path)}.cls-4{fill:#fff}
        </style>
        <clipPath id="clip-path">
            <path id="사각형_3" d="M0 0h25v18H0z" class="cls-1" data-name="사각형 3"/>
        </clipPath>
    </defs>
    <g id="yticon.svg" transform="translate(-1459 -5532)">
        <g id="yticon.svg-2" data-name="yticon.svg" transform="translate(1459 5532)">
            <g id="그룹_6" data-name="그룹 6">
                <g id="그룹_5" class="cls-3" data-name="그룹 5">
                    <path id="패스_21" d="M12.517 17.946c-2.738 0-5.478.071-8.213-.02C1.477 17.833.221 16.654.1 13.8c-.134-3.207-.139-6.432.013-9.638C.243 1.462 1.42.277 4.015.2 9.351.051 14.694-.06 20.03.036c3.724.067 4.785 1.308 4.906 5.194.083 2.667.1 5.345-.035 8.008-.174 3.458-1.389 4.573-4.77 4.7-.734.029-1.469.05-2.2.053-1.8.008-3.606 0-5.41 0zM9.969 5.629v6.84l6.5-3.6c-2.154-1.15-3.911-2.1-5.676-3.023a4.106 4.106 0 0 0-.819-.215" class="cls-4" data-name="패스 21"/>
                </g>
            </g>
        </g>
        <path id="Color_Overlay" d="M1471.518 5550v-.052c-2.738 0-5.478.07-8.214-.02-2.828-.093-4.083-1.273-4.2-4.131-.134-3.208-.138-6.432.014-9.637.128-2.7 1.307-3.88 3.9-3.954 5.338-.153 10.679-.265 16.017-.168 3.723.068 4.785 1.309 4.906 5.2.082 2.666.1 5.344-.036 8.007-.174 3.458-1.389 4.573-4.769 4.7-.734.029-1.469.05-2.2.053h-2.319zm-2.549-5.53c2.247-1.244 4.227-2.343 6.5-3.6-2.155-1.149-3.911-2.095-5.677-3.022a4.176 4.176 0 0 0-.819-.216z" class="cls-2" data-name="Color Overlay"/>
    </g>
</svg>
