<svg xmlns="http://www.w3.org/2000/svg" xmlns:xlink="http://www.w3.org/1999/xlink" width="25" height="18" viewBox="0 0 25 18">
  <defs>
    <clipPath id="clip-path">
      <rect id="사각형_11" data-name="사각형 11" width="25" height="18" transform="translate(0 0)" fill="none"/>
    </clipPath>
  </defs>
  <g id="yticon_act" transform="translate(-1459 -3648)">
    <g id="yticon_act-2" data-name="yticon_act" transform="translate(1459 3648)">
      <g id="그룹_18" data-name="그룹 18">
        <g id="그룹_17" data-name="그룹 17" clip-path="url(#clip-path)">
          <path id="패스_33" data-name="패스 33" d="M12.517,17.946c-2.738,0-5.478.071-8.213-.02C1.477,17.833.221,16.654.1,13.8c-.134-3.207-.139-6.432.013-9.638C.243,1.462,1.42.277,4.015.2,9.351.051,14.694-.06,20.03.036c3.724.067,4.785,1.308,4.906,5.194.083,2.667.1,5.345-.035,8.008-.174,3.458-1.389,4.573-4.77,4.7-.734.029-1.469.05-2.2.053-1.8.008-3.606,0-5.41,0ZM9.969,5.629v6.84l6.5-3.6c-2.154-1.15-3.911-2.1-5.676-3.023a4.106,4.106,0,0,0-.819-.215" fill="#fff"/>
        </g>
      </g>
    </g>
    <path id="Color_Overlay" data-name="Color Overlay" d="M1471.517,3666v-.052c-2.738,0-5.478.071-8.212-.019-2.828-.093-4.083-1.272-4.2-4.131-.134-3.207-.139-6.431.013-9.637.128-2.7,1.306-3.881,3.9-3.954,5.337-.152,10.678-.264,16.015-.167,3.724.067,4.784,1.308,4.906,5.195.083,2.667.1,5.345-.036,8.007-.174,3.459-1.388,4.573-4.769,4.7-.735.03-1.47.051-2.2.053q-1.158.005-2.318,0Zm-2.548-5.53c2.246-1.245,4.227-2.343,6.495-3.6-2.153-1.15-3.91-2.095-5.676-3.022a4.032,4.032,0,0,0-.819-.215Z" fill="#ef373e"/>
  </g>
</svg>
