<svg xmlns="http://www.w3.org/2000/svg" width="25" height="18" viewBox="0 0 25 18">
  <g id="yticon" transform="translate(-1459 -3648)">
    <path id="Color_Overlay" data-name="Color Overlay" d="M1471.517,3666v-.052c-2.738,0-5.478.071-8.212-.019-2.828-.093-4.083-1.272-4.2-4.131-.134-3.207-.139-6.431.013-9.637.128-2.7,1.306-3.881,3.9-3.954,5.337-.152,10.678-.264,16.015-.167,3.724.067,4.784,1.308,4.906,5.195.083,2.667.1,5.345-.036,8.007-.174,3.459-1.388,4.573-4.769,4.7-.735.03-1.47.051-2.2.053q-1.158.005-2.318,0Zm-2.548-5.53c2.246-1.245,4.227-2.343,6.495-3.6-2.153-1.15-3.91-2.095-5.676-3.022a4.032,4.032,0,0,0-.819-.215Z" fill="#8e8e8e"/>
  </g>
</svg>
