<svg xmlns="http://www.w3.org/2000/svg" id="pgrm8.svg" width="64" height="64" viewBox="0 0 64 64">
    <defs>
        <style>
            .cls-1{fill:none}.cls-2{clip-path:url(#clip-path)}.cls-3{fill:#ef373e}
        </style>
        <clipPath id="clip-path">
            <path id="사각형_24" d="M0 0h64v64H0z" class="cls-1" data-name="사각형 24"/>
        </clipPath>
    </defs>
    <g id="그룹_38" data-name="그룹 38">
        <g id="그룹_37" class="cls-2" data-name="그룹 37">
            <path id="패스_84" d="M20 46a1 1 0 0 1-.275-.038L12.86 44H9a1 1 0 0 1 0-2h4a1.047 1.047 0 0 1 .274.038l7 2A1 1 0 0 1 20 46" class="cls-3" data-name="패스 84"/>
            <path id="패스_85" d="M13 24H9a1 1 0 0 1 0-2h3.91l10.911-1.984a1 1 0 0 1 .358 1.968l-11 2A.977.977 0 0 1 13 24" class="cls-3" data-name="패스 85"/>
            <path id="패스_86" d="M9 47H0v-2h8V21H0v-2h9a1 1 0 0 1 1 1v26a1 1 0 0 1-1 1" class="cls-3" data-name="패스 86"/>
            <path id="패스_87" d="M5 40.5A1.5 1.5 0 1 1 3.5 39 1.5 1.5 0 0 1 5 40.5" class="cls-3" data-name="패스 87"/>
            <path id="패스_88" d="M3.5 42.5a2 2 0 1 1 2-2 2 2 0 0 1-2 2m0-3a1 1 0 1 0 1 1 1 1 0 0 0-1-1" class="cls-3" data-name="패스 88"/>
            <path id="패스_89" d="M43 46a1 1 0 0 1-.241-1.97l8-2A.984.984 0 0 1 51 42h4a1 1 0 0 1 0 2h-3.877l-7.881 1.97A.968.968 0 0 1 43 46" class="cls-3" data-name="패스 89"/>
            <path id="패스_90" d="M55 24h-4a.984.984 0 0 1-.242-.03l-8-2a1 1 0 1 1 .484-1.94L51.123 22H55a1 1 0 0 1 0 2" class="cls-3" data-name="패스 90"/>
            <path id="패스_91" d="M64 47h-9a1 1 0 0 1-1-1V20a1 1 0 0 1 1-1h9v2h-8v24h8z" class="cls-3" data-name="패스 91"/>
            <path id="패스_92" d="M59 40.5a1.5 1.5 0 1 0 1.5-1.5 1.5 1.5 0 0 0-1.5 1.5" class="cls-3" data-name="패스 92"/>
            <path id="패스_93" d="M60.5 42.5a2 2 0 1 1 2-2 2 2 0 0 1-2 2m0-3a1 1 0 1 0 1 1 1 1 0 0 0-1-1" class="cls-3" data-name="패스 93"/>
            <path id="패스_94" d="M19 22a1 1 0 0 1-.894-1.447L22 12.764V9a1 1 0 0 1 2 0v4a1 1 0 0 1-.1.447l-4 8A1 1 0 0 1 19 22" class="cls-3" data-name="패스 94"/>
            <path id="패스_95" d="M44 25a1 1 0 0 1-.964-.736l-3-11A1.024 1.024 0 0 1 40 13V9a1 1 0 0 1 2 0v3.867l2.965 10.869A1 1 0 0 1 44 25" class="cls-3" data-name="패스 95"/>
            <path id="패스_96" d="M44 9H20a1 1 0 0 1-1-1V0h2v7h22V0h2v8a1 1 0 0 1-1 1" class="cls-3" data-name="패스 96"/>
            <path id="패스_97" d="M25.5 5A1.5 1.5 0 1 1 27 3.5 1.5 1.5 0 0 1 25.5 5" class="cls-3" data-name="패스 97"/>
            <path id="패스_98" d="M25.5 5.5a2 2 0 1 1 2-2 2 2 0 0 1-2 2m0-3a1 1 0 1 0 1 1 1 1 0 0 0-1-1" class="cls-3" data-name="패스 98"/>
            <path id="패스_99" d="M40 57a1 1 0 0 1-1-.986c-.072-5.1-.027-5.195.1-5.461l2.523-5.044A13.078 13.078 0 0 0 43 39.695V24.5a1.5 1.5 0 0 0-3 0V33a1 1 0 0 1-2 0V19.5a1.5 1.5 0 0 0-3 0V31a1 1 0 0 1-2 0V17.5a1.5 1.5 0 0 0-3 0V31a1 1 0 0 1-2 0V19.5a1.5 1.5 0 0 0-3 0V31a1 1 0 0 1-2 0V19.5a3.5 3.5 0 0 1 5.169-3.076 3.5 3.5 0 0 1 6.662 0A3.5 3.5 0 0 1 40 19.5v1.838a3.5 3.5 0 0 1 5 3.162v15.195a15.084 15.084 0 0 1-1.583 6.705l-2.438 4.874c-.02.6-.006 2.765.021 4.709A1 1 0 0 1 40.015 57z" class="cls-3" data-name="패스 99"/>
            <path id="패스_100" d="M24 57a1 1 0 0 1-1-1v-4.713l-3.936-6.3A7 7 0 0 1 18 41.279V29a2 2 0 0 1 2-2 5.006 5.006 0 0 1 5 5v5a1 1 0 0 1-2 0v-5a3 3 0 0 0-3-3v12.279a5 5 0 0 0 .76 2.65l4.088 6.541A1 1 0 0 1 25 51v5a1 1 0 0 1-1 1" class="cls-3" data-name="패스 100"/>
            <path id="패스_101" d="M44 64h-2v-7H22v7h-2v-8a1 1 0 0 1 1-1h22a1 1 0 0 1 1 1z" class="cls-3" data-name="패스 101"/>
            <path id="패스_102" d="M37.5 59a1.5 1.5 0 1 1-1.5 1.5 1.5 1.5 0 0 1 1.5-1.5" class="cls-3" data-name="패스 102"/>
            <path id="패스_103" d="M37.5 62.5a2 2 0 1 1 2-2 2 2 0 0 1-2 2m0-3a1 1 0 1 0 1 1 1 1 0 0 0-1-1" class="cls-3" data-name="패스 103"/>
        </g>
    </g>
</svg>
