<svg xmlns="http://www.w3.org/2000/svg" width="66" height="69" viewBox="0 0 66 69">
    <defs>
        <style>
            .cls-1{fill:none}.cls-2{clip-path:url(#clip-path)}.cls-3{fill:#ef373e}
        </style>
        <clipPath id="clip-path">
            <path id="사각형_23" d="M0 0h66v69H0z" class="cls-1" data-name="사각형 23"/>
        </clipPath>
    </defs>
    <g id="pgrm7.svg">
        <g id="그룹_36" data-name="그룹 36">
            <g id="그룹_35" class="cls-2" data-name="그룹 35">
                <path id="패스_76" d="M28.147 25.821a.97.97 0 0 1-.892-.58L22.323 13.9l-4.931 11.342a.976.976 0 0 1-1.274.5.951.951 0 0 1-.51-1.256L21.432 11.1a.976.976 0 0 1 1.784 0l5.824 13.389a.951.951 0 0 1-.51 1.256.963.963 0 0 1-.382.077" class="cls-3" data-name="패스 76"/>
                <path id="패스_77" d="M26.206 22h-7.765a.956.956 0 1 1 0-1.913h7.765a.956.956 0 1 1 0 1.913" class="cls-3" data-name="패스 77"/>
                <path id="패스_78" d="M49.888 51.642h-6.212a.963.963 0 0 1-.971-.956V37.3a.963.963 0 0 1 .971-.956h5.338a4.341 4.341 0 0 1 4.368 4.3 4.256 4.256 0 0 1-1.245 3.007 4.292 4.292 0 0 1 2.119 3.688 4.341 4.341 0 0 1-4.368 4.3m-5.241-1.913h5.241a2.391 2.391 0 1 0 0-4.782h-5.241zm0-6.694h4.368a2.391 2.391 0 1 0 0-4.782h-4.368z" class="cls-3" data-name="패스 78"/>
                <path id="패스_79" d="M27.176 36.341H8.735a4.823 4.823 0 0 1-4.853-4.782V4.782A4.823 4.823 0 0 1 8.735 0h27.177a4.823 4.823 0 0 1 4.853 4.782V22a.971.971 0 0 1-1.941 0V4.782a2.894 2.894 0 0 0-2.912-2.869H8.735a2.894 2.894 0 0 0-2.911 2.869v26.777a2.894 2.894 0 0 0 2.912 2.869h18.44a.956.956 0 1 1 0 1.913" class="cls-3" data-name="패스 79"/>
                <path id="패스_80" d="M61.147 61.205H35.912a4.823 4.823 0 0 1-4.853-4.782V31.559a4.823 4.823 0 0 1 4.853-4.782h10.676a.956.956 0 1 1 0 1.913H35.912A2.894 2.894 0 0 0 33 31.559v24.865a2.894 2.894 0 0 0 2.912 2.869h25.235a2.894 2.894 0 0 0 2.912-2.869V36.341a.971.971 0 0 1 1.941 0v20.083a4.823 4.823 0 0 1-4.853 4.782" class="cls-3" data-name="패스 80"/>
                <path id="패스_81" d="M57.427 36.5h-.006a.978.978 0 0 1-.749-.356L52.627 31.2a.946.946 0 0 1 .146-1.345.978.978 0 0 1 1.364.145l3.3 4.029 6.846-8.18a.978.978 0 0 1 1.366-.129.945.945 0 0 1 .131 1.346l-7.6 9.085a.976.976 0 0 1-.748.348" class="cls-3" data-name="패스 81"/>
                <path id="패스_82" d="M15.688 50.579a.955.955 0 0 1-.158-1.9l9.547-1.568A.957.957 0 1 1 25.394 49l-9.547 1.567a.913.913 0 0 1-.16.013" class="cls-3" data-name="패스 82"/>
                <path id="패스_83" d="M5.744 69C2.577 69 0 66.812 0 64.123s2.577-4.875 5.744-4.875a6.57 6.57 0 0 1 2.809.623A.948.948 0 0 1 9 61.147a.976.976 0 0 1-1.3.446 4.591 4.591 0 0 0-1.964-.432c-2.1 0-3.8 1.328-3.8 2.963s1.706 2.964 3.8 2.964 3.8-1.329 3.8-2.964v-16.7a2.527 2.527 0 0 1 2.164-2.488l11.536-1.843a2.6 2.6 0 0 1 2.068.569 2.5 2.5 0 0 1 .9 1.923v16.187c0 2.689-2.577 4.876-5.744 4.876s-5.744-2.187-5.744-4.876 2.579-4.872 5.746-4.872a6.57 6.57 0 0 1 2.809.623.948.948 0 0 1 .451 1.277.976.976 0 0 1-1.3.446 4.591 4.591 0 0 0-1.964-.432c-2.1 0-3.8 1.328-3.8 2.963s1.706 2.964 3.8 2.964 3.8-1.329 3.8-2.964V45.586a.6.6 0 0 0-.218-.467.631.631 0 0 0-.5-.137l-11.531 1.843a.611.611 0 0 0-.521.6v16.7c0 2.687-2.577 4.875-5.744 4.875" class="cls-3" data-name="패스 83"/>
            </g>
        </g>
    </g>
</svg>
