<svg xmlns="http://www.w3.org/2000/svg" id="pgrm4.svg" width="65" height="65" viewBox="0 0 65 65">
    <defs>
        <style>
            .cls-1{fill:none}.cls-2{clip-path:url(#clip-path)}.cls-3{fill:#ef373e}
        </style>
        <clipPath id="clip-path">
            <path id="사각형_19" d="M0 0h65v65H0z" class="cls-1" data-name="사각형 19"/>
        </clipPath>
    </defs>
    <g id="그룹_30" data-name="그룹 30">
        <g id="그룹_29" class="cls-2" data-name="그룹 29">
            <path id="패스_45" d="M28.434 56.869a28.434 28.434 0 1 1 28.435-28.435 28.467 28.467 0 0 1-28.435 28.435m0-54.838a26.4 26.4 0 1 0 26.4 26.4 26.434 26.434 0 0 0-26.4-26.4" class="cls-3" data-name="패스 45"/>
            <path id="패스_46" d="M54.639 65a10.334 10.334 0 0 1-7.33-3.031l-7.625-7.625 1.436-1.436 7.625 7.625a8.335 8.335 0 0 0 11.788-11.788l-7.625-7.623 1.436-1.436 7.625 7.623A10.361 10.361 0 0 1 54.639 65" class="cls-3" data-name="패스 46"/>
            <path id="패스_47" d="M44.683 45.308a1.006 1.006 0 0 1-.424-.093L34.1 40.527a1.016 1.016 0 1 1 .851-1.844l10.156 4.688a1.016 1.016 0 0 1-.427 1.938" class="cls-3" data-name="패스 47"/>
            <path id="패스_48" d="M12.186 45.311a1.016 1.016 0 0 1-.426-1.938l10.161-4.691a1.016 1.016 0 0 1 .851 1.845l-10.162 4.69a1 1 0 0 1-.424.093" class="cls-3" data-name="패스 48"/>
            <path id="패스_49" d="M32.5 37.575a1.016 1.016 0 0 1-.4-1.949c5.188-2.224 5.765-6.926 6.375-11.9.306-2.492.451-5.331-.775-7.662a9.162 9.162 0 0 0-5.31-4.245 12.7 12.7 0 0 0-7.9 0 9.159 9.159 0 0 0-5.309 4.245c-1.225 2.33-1.082 5.169-.779 7.64.613 5 1.19 9.7 6.378 11.927a1.015 1.015 0 1 1-.8 1.866c-6.261-2.683-6.967-8.443-7.59-13.524-.344-2.8-.492-6.029.993-8.854a11.174 11.174 0 0 1 6.45-5.229 14.746 14.746 0 0 1 9.2 0 11.169 11.169 0 0 1 6.458 5.224c1.487 2.827 1.338 6.051 1 8.832-.627 5.1-1.332 10.863-7.593 13.546a1 1 0 0 1-.4.083" class="cls-3" data-name="패스 49"/>
            <path id="패스_50" d="M28.434 44.683a7.116 7.116 0 0 1-7.109-7.109v-2.031a1.016 1.016 0 1 1 2.031 0v2.031a5.078 5.078 0 1 0 10.155 0v-2.031a1.016 1.016 0 1 1 2.031 0v2.031a7.116 7.116 0 0 1-7.109 7.109" class="cls-3" data-name="패스 50"/>
        </g>
    </g>
</svg>
