<?xml version="1.0" encoding="utf-8"?>
<!-- Generator: Adobe Illustrator 20.1.0, SVG Export Plug-In . SVG Version: 6.00 Build 0)  -->
<svg version="1.1" id="Layer_1" xmlns="http://www.w3.org/2000/svg" xmlns:xlink="http://www.w3.org/1999/xlink" x="0px" y="0px"
	 viewBox="0 0 1080 1080" style="enable-background:new 0 0 1080 1080;" xml:space="preserve">
<style type="text/css">
	.st0{clip-path:url(#SVGID_2_);}
	.st1{fill:#F1F4F6;}
	.st2{fill:none;}
</style>
<title>tile_bg_1080</title>
<g>
	<defs>
		<rect id="SVGID_1_" width="1080" height="1080"/>
	</defs>
	<clipPath id="SVGID_2_">
		<use xlink:href="#SVGID_1_"  style="overflow:visible;"/>
	</clipPath>
	<g class="st0">
		<path class="st1" d="M370.7,921.1h-52.2l25.2-64.7c0.5-1.2-0.1-2.5-1.3-2.9c-0.8-0.3-1.8-0.1-2.4,0.5L237.4,956.4
			c-0.9,0.9-0.9,2.3,0,3.2c0.4,0.4,1,0.7,1.6,0.7h52.2l-25.2,64.7c-0.4,1,0,2.1,0.9,2.7c0.4,0.2,0.8,0.4,1.2,0.4
			c0.6,0,1.2-0.2,1.6-0.7l102.6-102.4c0.9-0.9,0.9-2.3,0-3.2C371.9,921.3,371.3,921.1,370.7,921.1L370.7,921.1z M271.1,1022.9
			l-1.6-1.1l23.5-60.1c0.5-1.4-0.1-2.9-1.5-3.4c-0.3-0.1-0.6-0.2-1-0.2h-51.8l99.9-99.7l1.6,1.1l-24.3,62.3
			c-0.2,0.5,0.1,1.2,0.6,1.4c0.1,0,0.3,0.1,0.4,0.1H371L271.1,1022.9z"/>
		<path class="st1" d="M69.1,946.1c5,0,9-4.1,9-9c0-0.5,0-1-0.1-1.5l-8.3-48.4l35.2-34.3c3.5-3.5,3.6-9.1,0.2-12.7
			c-1.4-1.4-3.2-2.3-5.1-2.6l-48.6-7.1l-21.7-44c-2.2-4.4-7.6-6.3-12-4.1c-1.8,0.9-3.2,2.3-4.1,4.1l-21.7,44l-48.6,7.1
			c-3.4,0.5-6.2,2.8-7.2,6.1c-1.1,3.2-0.2,6.8,2.3,9.2l35.2,34.3l-8.3,48.4c-0.6,3.4,0.8,6.8,3.6,8.8c1.5,1.1,3.4,1.7,5.3,1.7
			c1.5,0,2.9-0.4,4.2-1l43.4-22.8L64.9,945C66.2,945.7,67.6,946.1,69.1,946.1z M21.5,919.9c-0.2,0-0.3,0-0.5,0.1L-23,943.2
			c-1,0.5-2.1,0.8-3.2,0.8c-1.4,0-2.8-0.5-4-1.3c-2.1-1.5-3.2-4.1-2.7-6.7l8.4-48.9c0.1-0.3-0.1-0.7-0.3-0.9l-35.5-34.6
			c-1.9-1.8-2.6-4.5-1.7-7c0.8-2.5,2.9-4.3,5.5-4.7l49.1-7.1c0.3,0,0.6-0.3,0.8-0.6l22-44.5c1.7-3.4,5.8-4.8,9.2-3.1
			c1.4,0.7,2.4,1.8,3.1,3.1l22,44.5c0.2,0.3,0.5,0.5,0.8,0.6l49.1,7.1c3.7,0.5,6.3,4,5.8,7.8c-0.2,1.5-0.9,2.9-2,3.9l-35.5,34.6
			c-0.2,0.2-0.4,0.6-0.3,0.9l8.4,48.9c0.6,3.8-1.9,7.3-5.7,7.9c-0.4,0.1-0.7,0.1-1.1,0.1c-1.1,0-2.2-0.3-3.2-0.8L22,920.1
			C21.8,920,21.6,919.9,21.5,919.9z"/>
		<path class="st1" d="M460.8,851.6c-13.6,0-24.7,11-24.7,24.7c0,13.6,11,24.7,24.7,24.7c13.6,0,24.7-11,24.7-24.7
			C485.5,862.6,474.4,851.6,460.8,851.6z M460.8,898.8c-12.5,0-22.5-10.1-22.5-22.5s10.1-22.5,22.5-22.5s22.5,10.1,22.5,22.5v0
			C483.3,888.7,473.3,898.8,460.8,898.8z"/>
		<path class="st1" d="M959.9,771.4c-0.1,0-0.3,0-0.4,0.1c-15.8,6.1-32.6,9.1-49.5,9c-18.2,0-36.2-3-53.3-9c-0.1,0-0.3-0.1-0.4-0.1
			c-0.6,0-1.1,0.5-1.1,1.1c0,0.4,0.3,0.8,0.7,1c1,0.4,23.7,9.1,54.2,9.1c17.2,0.1,34.2-2.9,50.2-9.1c0.5-0.2,0.8-0.8,0.6-1.4
			C960.7,771.7,960.3,771.4,959.9,771.4z"/>
		<path class="st1" d="M971.1,689.1c-0.4-0.2-0.8-0.2-1.2,0l-37.4,24.8L909,672.8c-0.4-0.5-1.1-0.6-1.6-0.2
			c-0.1,0.1-0.2,0.1-0.2,0.2l-23.6,41.1l-37.4-24.8c-0.5-0.3-1.1-0.2-1.5,0.3c-0.2,0.2-0.2,0.5-0.2,0.8l10.7,57.9
			c0.1,0.4,0.3,0.7,0.6,0.8c17.4,6,35.7,9.1,54.1,9.1h0c17.2,0.1,34.2-2.9,50.2-9.1c0.3-0.1,0.6-0.4,0.7-0.8l10.7-57.9
			C971.7,689.7,971.5,689.3,971.1,689.1z M959,747.1l-0.5,0.2c-15.5,5.8-31.9,8.7-48.4,8.6c-17.8,0-35.4-2.9-52.3-8.6l-0.5-0.2
			l-10.1-54.9l36.2,24.1c0.2,0.1,0.4,0.2,0.6,0.2c0.1,0,0.2,0,0.2,0c0.3-0.1,0.5-0.2,0.7-0.5l23.3-40.5l23.3,40.5
			c0.1,0.2,0.4,0.4,0.7,0.5c0.1,0,0.2,0,0.3,0c0.2,0,0.4-0.1,0.6-0.2l36.2-24.1L959,747.1z"/>
		<path class="st1" d="M718.4,284.8c-0.4-0.9-1.2-1.4-2.2-1.4h-56.6l27.4-70.1c0.4-1,0-2.2-0.9-2.8c-0.4-0.3-0.8-0.4-1.3-0.4
			c-0.6,0-1.2,0.2-1.7,0.7l-111,110.8c-0.9,0.9-0.9,2.4,0,3.3c0.4,0.4,1,0.7,1.7,0.7h56.6L603,395.6c-0.4,1,0,2.2,0.9,2.8
			c0.4,0.3,0.8,0.4,1.3,0.4c0.6,0,1.2-0.3,1.6-0.7l111-110.8C718.5,286.7,718.7,285.7,718.4,284.8z M608,394l-1.6-1.1l25.7-65.8
			c0.6-1.4-0.1-3-1.6-3.6c-0.3-0.1-0.7-0.2-1-0.2h-56.2L682,214.8l1.6,1.1L657,284c-0.2,0.5,0.1,1.2,0.6,1.4c0.1,0,0.3,0.1,0.4,0.1
			h58.7L608,394z"/>
		<path class="st1" d="M145.7,214.4c2.5-3.8,4-8.2,4-12.8c0-13.7-11.1-24.8-24.8-24.8c-6.7,0-13.1,2.7-17.8,7.5l-0.7,0.7l-0.7-0.7
			c-9.5-9.8-25.2-10.1-35-0.5c-4.8,4.7-7.5,11.1-7.5,17.8c0.1,4.6,1.5,9,4,12.8c2.6,3.5,5.5,6.9,8.5,10l25.4,25.4
			c3,2.9,7.7,2.9,10.7,0l25.4-25.4C140.2,221.2,143.1,217.9,145.7,214.4z M110.3,248.2c-2.2,2.1-5.6,2.1-7.7,0l-25.4-25.4
			c-3-3.1-5.8-6.3-8.3-9.7c-2.3-3.4-3.5-7.5-3.6-11.6c0-12.5,10.2-22.7,22.7-22.7c6.2,0,12.1,2.5,16.4,7l0.4,0.5
			c0.4,0.5,1.1,0.8,1.7,0.7c0.6,0,1.2-0.2,1.6-0.7l0.5-0.5c4.3-4.5,10.2-7,16.4-7c12.5,0,22.7,10.2,22.7,22.7
			c-0.1,4.1-1.4,8.1-3.6,11.6c-2.6,3.4-5.3,6.7-8.3,9.8L110.3,248.2z"/>
		<path class="st1" d="M554.7,218.5c13.6,0,24.7-11,24.7-24.7s-11-24.7-24.7-24.7c-13.6,0-24.7,11-24.7,24.7
			C530,207.5,541,218.5,554.7,218.5z M554.7,171.3c12.5,0,22.5,10.1,22.5,22.5s-10.1,22.5-22.5,22.5c-12.4,0-22.5-10.1-22.5-22.5
			C532.1,181.4,542.2,171.3,554.7,171.3z"/>
		<path class="st1" d="M681.9,128.2c0.2,0.1,0.3,0.1,0.5,0.1c0.4,0,0.7-0.2,0.9-0.5c0.3-0.5,0.1-1.2-0.4-1.4c0,0,0,0,0,0
			c-43.2-23.9-70-69.3-70-118.7c0-74.7,60.8-135.5,135.5-135.5c74.7,0,135.5,60.8,135.5,135.5c-0.1,48.2-25.7,92.8-67.4,117.2
			c-0.4,0.3-0.6,0.8-0.5,1.3l20.1,54.9l-1.5,0c-14-0.2-61.5-2.2-85.7-19.5c-0.2-0.1-0.4-0.2-0.6-0.2c-0.3,0-0.7,0.2-0.9,0.4
			c-0.3,0.5-0.2,1.1,0.2,1.5c26.5,19,78.4,20,88.6,20c0.7,0,1.1,0,1.3,0c0.6,0,1-0.5,1-1.1c0-0.1,0-0.2-0.1-0.4l-20.3-55.5l0.7-0.4
			c41.4-25,66.8-69.7,67-118.1c0-75.9-61.7-137.6-137.6-137.6S610.7-68.2,610.7,7.6C610.7,57.8,638,103.9,681.9,128.2z"/>
		<path class="st1" d="M113.4,67.5c0.1,0,0.1,0,0.2,0c0.6,0,1.1-0.5,1.1-1.1c0-0.5-0.4-1-0.9-1C95.3,62.6,78.9,52.5,68,37.5
			c-11-15-15.5-33.7-12.6-52.1C58-31.1,66.5-46.2,79.3-57.1c12.6-10.7,28.7-16.6,45.2-16.6c3.6,0,7.3,0.3,10.9,0.8
			C153.7-70,170.2-60,181.1-45c11,15,15.5,33.7,12.6,52.1l-16,101.8c-6.2,39.3,20.7,76.2,60.1,82.4c0,0,0,0,0,0
			c39.3,6.1,76.2-20.7,82.4-60.1c6.1-39.3-20.7-76.2-60.1-82.4c-0.1,0-0.1,0-0.2,0c-0.6,0-1.1,0.5-1.1,1.1c0,0.5,0.4,1,0.9,1
			c38.2,6,64.3,41.8,58.3,80c-6,38.2-41.8,64.3-80,58.3c-38.2-6-64.3-41.8-58.3-80l16-101.8c3-18.9-1.7-38.2-13-53.6
			C171.6-61.7,154.6-72,135.7-75c-3.7-0.6-7.5-0.9-11.2-0.9c-17.1,0-33.6,6.1-46.6,17.2C64.7-47.5,56-32,53.3-14.9
			c-3,18.9,1.7,38.2,13,53.6C77.5,54.2,94.5,64.6,113.4,67.5z"/>
		<path class="st1" d="M395.2,803.1c16.5-0.1,30.6-12.1,33.3-28.5c2.9-18.4-9.7-35.6-28.1-38.5c-0.1,0-0.1,0-0.2,0
			c-0.6,0-1.1,0.5-1,1.1c0,0.5,0.4,1,0.9,1c17.2,2.7,29,18.9,26.3,36.1c-2.4,15.3-15.6,26.7-31.1,26.7c-1.7,0-3.3-0.1-4.9-0.4
			c-17.2-2.7-29-18.9-26.3-36.1l7.4-46.8c2.9-18.4-9.7-35.6-28.1-38.5c-1.8-0.3-3.5-0.4-5.3-0.4c-18.6,0-33.7,15.2-33.6,33.8
			c0,16.6,12.1,30.6,28.5,33.2c0.1,0,0.1,0,0.2,0c0.6,0,1.1-0.5,1.1-1.1c0-0.5-0.4-1-0.9-1c-17.2-2.7-29-18.9-26.3-36.1
			c2.7-17.2,18.8-29,36.1-26.3c0,0,0,0,0,0c17.2,2.7,29,18.9,26.3,36.1l-7.4,46.8c-2.9,18.4,9.7,35.6,28.1,38.5
			C391.7,803,393.4,803.1,395.2,803.1L395.2,803.1z"/>
		<path class="st1" d="M254.3,309.7c-0.5-1.4-1.7-2.4-3.1-2.6l-17.1-2.5l-7.6-15.5c-1-1.9-3.3-2.7-5.2-1.8c-0.8,0.4-1.4,1-1.8,1.8
			l-7.6,15.5l-17.1,2.5c-2.1,0.3-3.6,2.3-3.3,4.4c0.1,0.8,0.5,1.6,1.1,2.2l12.3,12l-2.9,17c-0.4,2.1,1.1,4.1,3.2,4.5
			c0.2,0,0.4,0.1,0.6,0.1c0.6,0,1.3-0.2,1.8-0.5l15.3-8l15.3,8c0.6,0.3,1.2,0.5,1.8,0.5c2.2,0,3.9-1.8,3.9-3.9c0-0.2,0-0.4-0.1-0.6
			l-2.9-17l12.3-12C254.4,312.7,254.7,311.2,254.3,309.7z M251.8,312.2l-12.7,12.4c-0.2,0.2-0.4,0.6-0.3,0.9l3,17.5
			c0.1,0.7-0.2,1.4-0.7,1.7c-0.5,0.4-1.3,0.5-1.9,0.1l-15.8-8.3c-0.3-0.2-0.7-0.2-1,0l-15.8,8.3c-0.6,0.3-1.3,0.3-1.9-0.1
			c-0.6-0.4-0.8-1.1-0.7-1.7l3-17.5c0.1-0.3-0.1-0.7-0.3-0.9l-12.7-12.4c-0.7-0.7-0.7-1.8,0-2.5c0.3-0.3,0.6-0.5,1-0.5l17.6-2.6
			c0.3,0,0.6-0.3,0.8-0.6l7.9-16c0.3-0.6,0.9-1,1.6-1h0c0.7,0,1.3,0.4,1.6,1l7.9,16c0.2,0.3,0.5,0.5,0.8,0.6l17.6,2.6
			c1,0.1,1.6,1,1.5,2C252.3,311.6,252.1,311.9,251.8,312.2L251.8,312.2z"/>
		<path class="st1" d="M518.6,124.4c-0.2-0.4-0.6-0.7-1-0.7c-0.1,0-0.3,0-0.4,0.1c-15.8,6.1-32.6,9.1-49.5,9c-18.2,0-36.2-3-53.3-9
			c-0.1,0-0.3-0.1-0.4-0.1c-0.6,0-1.1,0.5-1.1,1.1c0,0.4,0.3,0.8,0.7,1c0.2,0.1,23.1,9.1,54.2,9.1C485,135,502,132,518,125.8
			C518.6,125.6,518.8,125,518.6,124.4C518.6,124.4,518.6,124.4,518.6,124.4L518.6,124.4z"/>
		<path class="st1" d="M413,100.4c0.1,0.4,0.3,0.7,0.6,0.8c0.2,0.1,23.2,9.1,54.1,9.1h0c17.2,0.1,34.2-2.9,50.2-9.1
			c0.3-0.1,0.6-0.4,0.7-0.8l10.7-57.9c0.1-0.6-0.3-1.1-0.9-1.2c-0.3,0-0.5,0-0.8,0.2l-37.4,24.8l-23.6-41.1
			c-0.4-0.5-1.1-0.6-1.6-0.2c-0.1,0.1-0.2,0.1-0.2,0.2l-23.6,41.1L404,41.4c-0.2-0.1-0.4-0.2-0.6-0.2c-0.6,0-1.1,0.5-1.1,1
			c0,0.1,0,0.1,0,0.2L413,100.4z M441.1,68.6c0.2,0.1,0.4,0.2,0.6,0.2c0.1,0,0.2,0,0.2,0c0.3-0.1,0.5-0.2,0.7-0.5l23.3-40.5
			l23.3,40.5c0.2,0.3,0.5,0.5,0.9,0.5c0.2,0,0.4-0.1,0.6-0.2l36.2-24.1l-10.1,54.9l-0.5,0.2c-15.5,5.8-31.9,8.7-48.4,8.6h0
			c-17.8,0-35.4-2.9-52.2-8.6l-0.5-0.2l-10.1-54.9L441.1,68.6z"/>
		<path class="st1" d="M217.5,472.7c-0.3-0.5-0.9-0.7-1.4-0.4c-0.2,0.1-0.4,0.4-0.5,0.6c-12.9,46.8-12.6,96.2,0.7,142.9
			c0.1,0.5,0.5,0.8,1,0.8c0.1,0,0.2,0,0.3,0c0.6-0.2,0.9-0.7,0.7-1.3c0,0,0,0,0,0c-13.2-46.3-13.4-95.3-0.7-141.7
			C217.7,473.2,217.7,473,217.5,472.7z"/>
		<path class="st1" d="M287.1,404.5v2.9c0,14.8-4.1,29.1-12.6,43.9c-0.8,1.3-19.3,31.4-22.8,47.5c-3.4,16.8-3.7,26.4-3.7,44.4
			c0,16.6,1.6,33.2,4.7,49.6c2.7,13.9,15,23.9,29.1,23.8l108.1,0l3.1,0c0.4,0,0.8,0,1.1-0.1l0.4,0c0.2,0,0.4,0,0.8-0.1
			c0.4,0,0.8-0.1,1.1-0.2c12.1-2.2,20.2-13.8,18-25.9c-0.8-4.5-3-8.7-6.3-11.9l-0.7-0.7l0.7-0.7c8.7-8.7,8.8-22.8,0.1-31.5
			c0,0-0.1-0.1-0.1-0.1l-0.7-0.7l0.7-0.7c8.7-8.7,8.8-22.8,0.1-31.5c0,0-0.1-0.1-0.1-0.1l-0.7-0.7l0.7-0.7c4.2-4.2,6.6-9.9,6.6-15.8
			c0-12.3-10-22.3-22.3-22.3c-0.2,0-0.5,0-0.8,0l-73,0l0.8-1.5c21.1-39.7,17.1-67.2,17.1-67.5c-1.1-14.1-11.7-24.7-24.7-24.7
			C297.5,379,287.1,389.7,287.1,404.5z M334.5,403.9c0,0.3,3.9,29-18.5,69.3c-0.3,0.5-0.1,1.2,0.4,1.4c0.2,0.1,0.3,0.1,0.5,0.1h68.6
			l6,0l0.5,0c0.2,0,0.3,0,0.5,0c11.2,0,20.2,9,20.2,20.2c0,6.1-2.8,11.9-7.5,15.7c-0.5,0.4-0.5,1-0.2,1.5c0,0.1,0.1,0.1,0.2,0.2
			c8.7,7,10.1,19.7,3.1,28.4c-0.9,1.1-1.9,2.2-3.1,3.1c-0.5,0.4-0.5,1-0.2,1.5c0,0.1,0.1,0.1,0.2,0.2c8.7,7,10.1,19.7,3.1,28.4
			c-0.9,1.1-1.9,2.2-3.1,3.1c-0.5,0.4-0.5,1-0.2,1.5c0,0.1,0.1,0.1,0.2,0.2c8.7,7,10.1,19.7,3.1,28.4c-3.1,3.8-7.4,6.4-12.2,7.2
			c-0.2,0-0.5,0.1-0.8,0.1l0.1,1.1l-2,0.3l-0.3-1.2c-0.1,0-0.2,0-0.3,0l-111,0c-13.2,0.1-24.5-9.2-27-22.1
			c-3.1-16.2-4.6-32.7-4.6-49.2c0-17.8,0.3-27.4,3.7-44c3.4-15.5,21.7-45.6,22.5-46.8c8.7-15.1,12.9-29.8,12.9-45v-2.9
			c0-13.8,9.3-23.4,22.6-23.4C323.8,381.1,333.5,390.9,334.5,403.9z"/>
		<path class="st1" d="M710.3,739.2c0.1-31-14.2-60.3-38.8-79.3l-4.5-3.6c-26.2-17.7-42.3-46.9-43.4-78.5c0-1.1-0.1-2.3,0-3.4
			c0-0.6-0.5-1.1-1.1-1.1c-0.1,0-0.3,0-0.4,0.1l-10.9,4.2c0,0-0.1,0-0.1,0.1c-31.1,18-50.3,51.2-50.4,87.2
			c0,16.3,9.6,37.1,16.7,51.3c0.3,0.7,0.7,1.4,1,2l0.6,1.1l-3.5,0.9l-0.1,0c-14.8-0.1-26.7-6.9-35.4-20.2
			c-4.1-6.3-7.1-13.3-8.8-20.6c-0.1-0.4-0.4-0.7-0.8-0.8c-0.1,0-0.2,0-0.2,0c-0.3,0-0.6,0.2-0.9,0.4
			c-33.3,44.4-24.4,107.4,20.1,140.8c44.4,33.3,107.4,24.4,140.8-20.1C703.2,782.1,710.3,761,710.3,739.2z M609.7,837.6
			c-54.4,0-98.5-44.1-98.4-98.5c0-19.8,6-39.2,17.2-55.6l1.2-1.7l0.6,1.9c1.6,5.1,5.4,14.9,12.7,23.3c8.7,10,19.7,15.1,32.7,15.1
			c0.1,0,0.2,0,0.3,0l5-1.3c0.6-0.1,0.9-0.7,0.8-1.3c0-0.1-0.1-0.2-0.1-0.3c-0.8-1.4-1.6-2.8-2.3-4.2c-4.1-8.1-16.5-32.7-16.5-50.3
			c0.1-35.1,18.8-67.6,49.2-85.3l0.1,0l9.3-3.6l0.1,2c1.1,32.3,17.5,62.1,44.2,80.2l4.5,3.6c42.9,33.4,50.6,95.3,17.2,138.2
			C668.7,823.6,640.1,837.6,609.7,837.6z"/>
		<path class="st1" d="M-22,616.3c0.2,0.2,0.5,0.3,0.7,0.3c0.3,0,0.5-0.1,0.7-0.3L107.7,488c0.4-0.4,0.4-1.1,0-1.5
			c-0.2-0.2-0.5-0.3-0.7-0.3H-18.7l145.5-145.5l-0.4,69.1c0,0.6,0.5,1.1,1,1.1c0.6,0,1.1-0.5,1.1-1c0,0,0,0,0,0l0.4-71.2l0.2-0.3
			c0.3-0.4,0.2-1-0.1-1.3l-0.2-0.2l-0.2-0.2c-0.2-0.2-0.5-0.3-0.8-0.3l-74,0.6c-0.6,0-1.1,0.5-1,1.1c0,0,0,0,0,0c0,0.6,0.5,1,1.1,1
			l72.1-0.6l-148,148c-0.3,0.3-0.4,0.8-0.2,1.2c0.2,0.4,0.5,0.7,1,0.7h125.7L-22,614.8C-22.4,615.2-22.4,615.9-22,616.3z"/>
		<path class="st1" d="M591.5,898.1L591.5,898.1L591.5,898.1c-0.3-0.3-0.6-0.4-0.9-0.4l-35.8,0.3c-0.6,0-1.1,0.5-1,1.1
			s0.5,1.1,1.1,1l33.6-0.3l-70.8,70.8c-0.4,0.4-0.4,1.1,0,1.5c0.2,0.2,0.5,0.3,0.7,0.3H578l-60.4,60.4c-0.4,0.4-0.4,1.1,0,1.5
			c0.4,0.4,1.1,0.4,1.5,0c0,0,0,0,0,0l62.2-62.2c0.4-0.4,0.4-1.1,0-1.5c-0.2-0.2-0.5-0.3-0.7-0.3H521l68.7-68.7l-0.2,32.2
			c0,0.6,0.5,1.1,1,1.1s1.1-0.5,1.1-1l0.2-34.3l0.1-0.2c0.2-0.4,0.1-0.8-0.2-1.1L591.5,898.1z"/>
		<path class="st1" d="M342.9,277.8c0.3,0,0.6-0.1,0.8-0.3l15.5-15.8V295c0,7.2,5.9,13.1,13.1,13.1h96.1c0.6,0,1.1-0.5,1.1-1.1
			s-0.5-1.1-1.1-1.1c0,0,0,0,0,0h-96.1c-6,0-11-4.9-11-11v-33.4l15.7,15.9c0.4,0.4,1.1,0.4,1.5,0s0.4-1.1,0-1.5L361,258.3
			c-0.4-0.4-1.1-0.4-1.5,0c0,0,0,0,0,0L342.1,276c-0.4,0.4-0.4,1.1,0,1.5C342.3,277.7,342.6,277.8,342.9,277.8L342.9,277.8z"/>
		<path class="st1" d="M359.7,215.1h96.1c6,0,11,4.9,11,11v33.4l-15.7-15.9c-0.4-0.4-1.1-0.4-1.5,0c-0.4,0.4-0.4,1.1,0,1.5
			c0,0,0,0,0,0l17.5,17.7c0.2,0.2,0.5,0.3,0.8,0.3h0c0.3,0,0.6-0.1,0.7-0.3L486,245c0.4-0.4,0.4-1.1,0-1.5c-0.4-0.4-1.1-0.4-1.5,0
			l-15.5,15.8V226c0-7.2-5.9-13.1-13.1-13.1h-96.1c-0.6,0-1.1,0.5-1.1,1.1C358.7,214.6,359.1,215.1,359.7,215.1
			C359.7,215.1,359.7,215.1,359.7,215.1z"/>
		<path class="st1" d="M480.6,463.3c0.6,0,1.1-0.5,1.1-1.1v-39h39c0.6,0,1.1-0.5,1.1-1.1c0-0.6-0.5-1.1-1.1-1.1h-39v-39
			c0-0.6-0.5-1.1-1.1-1.1c-0.6,0-1.1,0.5-1.1,1.1v39h-39c-0.6,0-1.1,0.5-1.1,1.1s0.5,1.1,1.1,1.1c0,0,0,0,0,0h39v39
			C479.5,462.8,480,463.3,480.6,463.3z"/>
		<path class="st1" d="M207,895.7c0.6,0,1.1-0.5,1.1-1.1v-39h39c0.6,0,1.1-0.5,1.1-1.1c0-0.6-0.5-1.1-1.1-1.1h-39v-39
			c0-0.6-0.5-1.1-1.1-1.1c-0.6,0-1.1,0.5-1.1,1.1c0,0,0,0,0,0v39h-39c-0.6,0-1.1,0.5-1.1,1.1s0.5,1.1,1.1,1.1c0,0,0,0,0,0h39v39
			C205.9,895.2,206.4,895.7,207,895.7z"/>
		<path class="st1" d="M1056.3,1034.5h-39v-39c0-0.6-0.5-1.1-1.1-1.1s-1.1,0.5-1.1,1.1v39h-39c-0.6,0-1.1,0.5-1.1,1.1
			s0.5,1.1,1.1,1.1h39v39c0,0.6,0.5,1.1,1.1,1.1s1.1-0.5,1.1-1.1v-39h39c0.6,0,1.1-0.5,1.1-1.1S1056.9,1034.5,1056.3,1034.5z"/>
		<path class="st1" d="M805.5,577.1c-7.3,0-14.3,2.9-19.3,8.2l-0.7,0.8l-0.7-0.8c-5-5.3-12-8.3-19.3-8.2c-14.7,0-26.7,12-26.7,26.7
			c0.1,4.9,1.6,9.7,4.3,13.8c2.8,3.8,5.9,7.4,9.2,10.8l27.4,27.4c3.2,3.2,8.3,3.2,11.4,0l27.4-27.4c3.3-3.4,6.4-7,9.2-10.8
			c2.7-4.1,4.3-8.9,4.3-13.8C832.2,589,820.3,577.1,805.5,577.1z M826.2,616.3c-2.8,3.7-5.8,7.2-9,10.5l-27.4,27.4
			c-2.4,2.3-6.1,2.3-8.5,0l-27.4-27.4c-3.2-3.3-6.2-6.8-9-10.5c-2.5-3.7-3.8-8.1-3.9-12.5c0-13.6,11-24.5,24.6-24.6
			c6.7,0,13.1,2.7,17.7,7.6l0.5,0.5c0.5,0.5,1.1,0.8,1.8,0.8c0.6,0,1.3-0.2,1.7-0.7l0.5-0.5c4.6-4.9,11-7.6,17.7-7.6
			c13.6,0,24.6,11,24.6,24.6C830,608.2,828.6,612.6,826.2,616.3z"/>
		<path class="st1" d="M595.3,467c-3.2,0-5.9,2.6-5.9,5.9v38.5c0,3.2,2.6,5.9,5.9,5.9h38.5c3.2,0,5.9-2.6,5.9-5.9v-38.5
			c0-3.2-2.6-5.9-5.9-5.9H595.3z M637.5,472.8v38.5c0,2.1-1.7,3.7-3.8,3.8h-38.5c-2.1,0-3.7-1.7-3.8-3.8v-38.5
			c0-2.1,1.7-3.7,3.8-3.8h38.5C635.8,469.1,637.5,470.7,637.5,472.8z"/>
		<path class="st1" d="M932.1,887.2c-25.7,0-46.6,20.9-46.6,46.6s20.9,46.6,46.6,46.6s46.6-20.9,46.6-46.6c0,0,0,0,0,0
			C978.6,908.1,957.8,887.2,932.1,887.2z M932.1,978.2c-24.6,0-44.5-19.9-44.5-44.5c0-24.6,19.9-44.5,44.5-44.5
			c24.6,0,44.5,19.9,44.5,44.5l0,0C976.5,958.3,956.6,978.2,932.1,978.2L932.1,978.2z"/>
		<path class="st1" d="M938.4,127.4c2.6,1.5,5.8,1.5,8.4,0l56.9-32.9c4-2.3,5.4-7.4,3.1-11.4c-0.7-1.3-1.8-2.3-3.1-3.1l-56.9-32.9
			c-2.6-1.5-5.8-1.5-8.4,0c-2.6,1.5-4.2,4.3-4.2,7.2v65.7C934.2,123.2,935.8,126,938.4,127.4z M936.3,54.5c0-2.2,1.2-4.3,3.1-5.4
			c1.9-1.1,4.3-1.1,6.3,0l56.9,32.9c3,1.7,4,5.6,2.3,8.5c-0.5,0.9-1.3,1.7-2.3,2.3l-56.9,32.9c-1.9,1.1-4.3,1.1-6.3,0
			c-1.9-1.1-3.1-3.2-3.1-5.4L936.3,54.5z"/>
		<path class="st1" d="M518,594.4c0.6,0.3,1.2,0.4,1.8,0.4c2.1,0,3.9-1.7,3.9-3.9c0-0.2,0-0.4-0.1-0.6l-2.9-16.8l12.2-11.9
			c1.5-1.5,1.6-3.9,0.1-5.5c-0.6-0.6-1.4-1-2.2-1.1l-16.9-2.4l-7.5-15.3c-0.9-1.9-3.3-2.7-5.2-1.8c-0.8,0.4-1.4,1-1.8,1.8l-7.5,15.3
			l-16.9,2.4c-2.1,0.3-3.6,2.3-3.3,4.4c0.1,0.8,0.5,1.6,1.1,2.2l12.2,11.9l-2.9,16.8c-0.4,2.1,1.1,4.1,3.2,4.5
			c0.2,0,0.4,0.1,0.6,0.1c0.6,0,1.2-0.2,1.8-0.4l15.1-7.9L518,594.4z M486.9,592.6c-0.2,0.1-0.5,0.2-0.8,0.2c-0.4,0-0.7-0.1-1-0.3
			c-0.5-0.4-0.8-1.1-0.7-1.7l3-17.3c0.1-0.3-0.1-0.7-0.3-0.9l-12.6-12.3c-0.7-0.7-0.7-1.8,0-2.5c0.3-0.3,0.6-0.5,1-0.5l17.4-2.5
			c0.3,0,0.6-0.3,0.8-0.6l7.8-15.8c0.4-0.9,1.5-1.2,2.3-0.8c0.3,0.2,0.6,0.4,0.8,0.8l7.8,15.8c0.2,0.3,0.5,0.5,0.8,0.6l17.4,2.5
			c1,0.1,1.6,1,1.5,2c-0.1,0.4-0.2,0.7-0.5,1l-12.6,12.3c-0.2,0.2-0.4,0.6-0.3,0.9l3,17.3c0.1,0.7-0.2,1.3-0.7,1.7
			c-0.5,0.4-1.2,0.4-1.8,0.1l-15.6-8.2c-0.3-0.2-0.7-0.2-1,0L486.9,592.6z"/>
		<path class="st1" d="M57.6,694.3c0,42.6,34.5,77.1,77.1,77.1c42.6,0,77.1-34.5,77.1-77.1c0-0.6-0.5-1.1-1.1-1.1
			c-0.6,0-1.1,0.5-1.1,1.1c0,0,0,0,0,0c0,41.4-33.6,75-75,75s-75-33.6-75-75c0-41.4,33.6-75,75-75c0.6,0,1.1-0.5,1.1-1.1
			s-0.5-1.1-1.1-1.1c0,0,0,0,0,0C92.1,617.3,57.6,651.8,57.6,694.3z"/>
		<path class="st1" d="M367.9,1023.8c0-8.5,1.1-16.9,3.4-25.1c0.2-0.6-0.2-1.1-0.7-1.3c-0.1,0-0.2,0-0.3,0c-0.5,0-0.9,0.3-1,0.8
			c-4.7,17.1-4.6,35.2,0.2,52.3c0.2,0.6,0.7,0.9,1.3,0.7c0.6-0.2,0.9-0.7,0.7-1.3c0,0,0,0,0,0
			C369.1,1041.3,367.9,1032.6,367.9,1023.8z"/>
		<path class="st1" d="M442.9,1006.3c0-4.8-3.9-8.8-8.8-8.8l-25.7,0l0.7-1.4c6.7-13.6,5.3-22.8,5.3-23c-0.4-5.5-4.6-9.6-9.7-9.6
			c-5.6,0-9.7,4.2-9.7,9.9v1.1c-0.1,5.5-1.6,10.9-4.5,15.6c-2.4,3.9-7.3,12.7-8.4,17.5c-1.1,5.4-1.5,10.8-1.4,16.3
			c0,6.1,0.6,12.1,1.7,18.1c1.1,5.4,5.8,9.2,11.2,9.2h39.3l1.1,0c0.2,0,0.4,0,0.6,0l0.4,0c0.1,0,0.3,0,0.4-0.1
			c4.2-0.7,7.2-4.4,7.2-8.6c0-2-0.6-3.9-1.9-5.4l-0.5-0.6l0.5-0.6c2.5-3.2,2.5-7.6,0-10.8l-0.5-0.6l0.5-0.6c2.5-3.2,2.5-7.6,0-10.8
			l-0.5-0.6l0.5-0.6C442.3,1010.1,442.9,1008.2,442.9,1006.3z M438.3,1011.5c-0.5,0.4-0.5,1-0.2,1.5c0,0.1,0.1,0.1,0.2,0.2
			c2.9,2.3,3.3,6.5,1,9.4c-0.3,0.4-0.6,0.7-1,1c-0.5,0.4-0.5,1-0.2,1.5c0,0.1,0.1,0.1,0.2,0.2c2.9,2.3,3.3,6.5,1,9.4
			c-0.3,0.4-0.6,0.7-1,1c-0.5,0.4-0.5,1-0.2,1.5c0,0.1,0.1,0.1,0.2,0.2c2.9,2.3,3.3,6.5,1,9.4c-1,1.3-2.5,2.1-4.1,2.4l-0.2,0l-0.1,0
			l-0.5,0.1l-0.3,0h-40.3c-4.5,0-8.3-3.1-9.2-7.5c-1.1-5.8-1.7-11.8-1.7-17.7c-0.2-5.3,0.3-10.6,1.3-15.8c1.1-5.2,6.9-14.9,8.1-16.8
			c3-5,4.7-10.8,4.8-16.7v-1.1c0-4.5,3.2-7.8,7.5-7.8c4,0,7.2,3.3,7.6,7.7c0.1,0.4,1.3,10.4-6.6,24.7c-0.3,0.5-0.1,1.2,0.4,1.4
			c0.2,0.1,0.3,0.1,0.5,0.1l27.1,0l0.4,0c3.7,0,6.7,3,6.7,6.7C440.8,1008.3,439.9,1010.2,438.3,1011.5L438.3,1011.5z"/>
		<path class="st1" d="M1208.4,337l-0.2-0.2l-0.2-0.2c-0.2-0.2-0.5-0.3-0.8-0.3l-74,0.6c-0.6,0-1.1,0.5-1,1.1c0,0.6,0.5,1,1.1,1
			l72.1-0.6l-148,148c-0.4,0.4-0.4,1.1,0,1.5c0.2,0.2,0.5,0.3,0.7,0.3h125.7l-126.5,126.5c-0.4,0.4-0.4,1.1,0,1.5
			c0.4,0.4,1.1,0.4,1.5,0L1187.1,488c0.4-0.4,0.4-1.1,0-1.5c-0.2-0.2-0.5-0.3-0.7-0.3h-125.7l145.5-145.5l-0.4,69.1
			c0,0.6,0.5,1.1,1,1.1s1.1-0.5,1.1-1c0,0,0,0,0,0l0.4-71.2l0.2-0.3C1208.8,338,1208.7,337.4,1208.4,337z"/>
		<path class="st1" d="M1179.4,837.6l-48.6-7.1l-21.7-44c-2.2-4.4-7.6-6.3-12-4.1c-1.8,0.9-3.2,2.3-4.1,4.1l-21.7,44l-48.6,7.1
			c-4.9,0.7-8.3,5.3-7.6,10.2c0.3,2,1.2,3.8,2.6,5.1l35.2,34.3l-8.3,48.4c-0.8,4.9,2.5,9.5,7.4,10.4c0.5,0.1,1,0.1,1.5,0.1
			c1.5,0,2.9-0.4,4.2-1l43.4-22.8l43.4,22.8c1.3,0.7,2.7,1,4.2,1c5,0,9-4.1,9-9c0-0.5,0-1-0.1-1.5l-8.3-48.4l35.2-34.3
			c3.5-3.5,3.6-9.1,0.2-12.7C1183.1,838.8,1181.3,837.9,1179.4,837.6L1179.4,837.6z M1182.9,851.4l-35.5,34.6
			c-0.2,0.2-0.4,0.6-0.3,0.9l8.4,48.9c0.6,3.8-1.9,7.3-5.7,7.9c-0.4,0.1-0.7,0.1-1.1,0.1c-1.1,0-2.2-0.3-3.2-0.8l-43.9-23.1
			c-0.3-0.2-0.7-0.2-1,0l-43.9,23.1c-2.3,1.2-5.1,1-7.2-0.5c-2.1-1.5-3.2-4.1-2.7-6.7l8.4-48.9c0.1-0.3-0.1-0.7-0.3-0.9l-35.5-34.6
			c-2.7-2.6-2.8-7-0.1-9.7c1.1-1.1,2.4-1.8,3.9-2l49.1-7.1c0.3,0,0.6-0.3,0.8-0.6l22-44.5c1.7-3.4,5.8-4.8,9.2-3.1
			c1.4,0.7,2.4,1.8,3.1,3.1l22,44.5c0.2,0.3,0.5,0.5,0.8,0.6l49.1,7.1c3.7,0.5,6.3,4,5.8,7.8C1184.6,849,1183.9,850.4,1182.9,851.4z
			"/>
		<path class="st1" d="M260,1128.9c-0.1,0-0.1,0-0.2,0c-0.6,0-1.1,0.5-1.1,1.1c0,0.5,0.4,1,0.9,1c38.2,6,64.3,41.8,58.3,80
			c-6,38.2-41.8,64.3-80,58.3c-38.2-6-64.3-41.8-58.3-80l16-101.8c6.2-39.3-20.7-76.2-60.1-82.4c0,0,0,0,0,0
			c-39.3-6.2-76.2,20.7-82.4,60.1s20.7,76.2,60.1,82.4c0,0,0,0,0,0c0.1,0,0.1,0,0.2,0c0.6,0,1.1-0.5,1.1-1.1c0-0.5-0.4-1-0.9-1
			c-38.2-6-64.3-41.9-58.2-80c5.4-34,34.6-59.1,69.1-59.1c3.6,0,7.3,0.3,10.9,0.8c38.2,6,64.3,41.8,58.3,80l-16,101.8
			c-6.2,39.3,20.7,76.2,60.1,82.4c0,0,0,0,0,0c39.3,6.1,76.2-20.7,82.4-60.1C326.2,1172,299.3,1135.1,260,1128.9L260,1128.9z"/>
		<path class="st1" d="M748.3,949.6c-75.9,0-137.6,61.7-137.6,137.6c0,50.1,27.3,96.3,71.1,120.5c0.2,0.1,0.3,0.1,0.5,0.1
			c0.4,0,0.7-0.2,0.9-0.5c0.3-0.5,0.1-1.2-0.4-1.4c0,0,0,0,0,0c-43.2-23.9-70-69.3-70-118.7c0-74.7,60.8-135.5,135.5-135.5
			c74.7,0,135.5,60.8,135.5,135.5c-0.1,48.2-25.7,92.8-67.4,117.2c-0.4,0.3-0.6,0.8-0.5,1.3l20.1,54.9l-1.5,0
			c-14-0.2-61.5-2.2-85.7-19.5c-0.2-0.1-0.4-0.2-0.6-0.2c-0.3,0-0.7,0.2-0.9,0.4c-0.3,0.5-0.2,1.1,0.2,1.5c26.5,19,78.4,20,88.6,20
			c0.7,0,1.1,0,1.3,0c0.6,0,1.1-0.5,1-1.1c0-0.1,0-0.2-0.1-0.3l-20.3-55.5l0.7-0.4c41.4-25,66.8-69.7,67-118.1
			C885.9,1011.4,824.2,949.6,748.3,949.6z"/>
		<path class="st1" d="M843,425c0.1,0,0.2,0,0.3,0c0.6-0.2,0.9-0.7,0.7-1.3c0,0,0,0,0,0c-13.2-46.2-13.4-95.2-0.7-141.5
			c0.2-0.6-0.2-1.1-0.7-1.3c0,0,0,0,0,0c-0.6-0.2-1.1,0.2-1.3,0.7c0,0,0,0,0,0c-12.9,46.7-12.6,96.1,0.7,142.6
			C842.2,424.7,842.6,425,843,425z"/>
		<path class="st1" d="M873.8,351.8c0,16.6,1.6,33.2,4.7,49.5c2.7,13.9,14.9,23.9,29.1,23.8l107.9,0l3.1,0c0.4,0,0.8,0,1.1-0.1
			l0.4,0c0.3,0,0.5-0.1,0.8-0.1c0.4,0,0.8-0.1,1.1-0.2c12.1-2.2,20.2-13.7,18-25.8c-0.8-4.5-3-8.7-6.2-11.9l-0.7-0.7l0.7-0.7
			c8.7-8.7,8.8-22.8,0.1-31.5c0,0-0.1-0.1-0.1-0.1l-0.7-0.7l0.7-0.7c8.7-8.7,8.8-22.8,0.1-31.5c0,0-0.1-0.1-0.1-0.1l-0.7-0.7
			l0.7-0.7c4.2-4.2,6.6-9.9,6.6-15.8c0-12.3-10-22.3-22.3-22.3c-0.2,0-0.5,0-0.7,0l-72.9,0l0.8-1.5c21.1-39.6,17.1-67.1,17.1-67.4
			c-1.1-14-11.7-24.6-24.7-24.6c-14.3,0-24.7,10.7-24.7,25.4v2.9c0,14.7-4.1,29.1-12.5,43.8c-0.8,1.3-19.2,31.3-22.7,47.4
			C874.1,324.2,873.8,333.8,873.8,351.8z M902,261.1c8.6-15.1,12.8-29.8,12.8-44.9v-2.9c0-13.7,9.3-23.3,22.6-23.3
			c11.9,0,21.6,9.8,22.6,22.7c0,0.3,3.9,29-18.5,69.2c-0.3,0.5-0.1,1.1,0.4,1.4c0.2,0.1,0.3,0.1,0.5,0.1h68.5l6,0l0.4,0
			c0.2,0,0.4,0,0.5,0c11.1,0,20.2,9,20.2,20.2c0,6.1-2.8,11.9-7.5,15.7c-0.5,0.4-0.5,1-0.2,1.5c0,0.1,0.1,0.1,0.2,0.2
			c8.7,7,10,19.7,3.1,28.4c-0.9,1.1-1.9,2.2-3.1,3.1c-0.5,0.4-0.5,1-0.2,1.5c0,0.1,0.1,0.1,0.2,0.2c8.7,7,10,19.7,3.1,28.4
			c-0.9,1.1-1.9,2.2-3.1,3.1c-0.5,0.4-0.5,1-0.2,1.5c0,0.1,0.1,0.1,0.2,0.2c8.7,7,10,19.7,3.1,28.4c-3.1,3.8-7.4,6.4-12.2,7.2
			c-0.3,0.1-0.7,0.1-1,0.2c-0.2,0-0.5,0.1-0.7,0.1l-0.1,0l0,0l-0.2,0c-0.3,0-0.6,0-1.1,0.1l-110.9,0c-13.1,0.1-24.5-9.2-27-22.1
			c-3.1-16.2-4.6-32.6-4.6-49.1c0-17.8,0.3-27.3,3.7-43.9C882.9,292.5,901.3,262.4,902,261.1z"/>
		<path class="st1" d="M721.5,402.4c1.6,0,3.3,0.1,4.9,0.4c17.2,2.7,29,18.8,26.3,36l-7.4,46.7c-2.9,18.4,9.7,35.6,28.1,38.4
			c1.7,0.3,3.4,0.4,5.2,0.4h0c16.5-0.1,30.5-12.1,33.2-28.4c2.9-18.3-9.7-35.5-28-38.4c-0.1,0-0.1,0-0.2,0c-0.6,0-1,0.5-1,1.1
			c0,0.5,0.4,1,0.9,1c17.2,2.7,29,18.8,26.3,36c-2.4,15.3-15.6,26.6-31.1,26.6c-1.7,0-3.3-0.1-4.9-0.4c-17.2-2.7-28.9-18.8-26.3-36
			l7.4-46.7c2.9-18.3-9.7-35.5-28-38.4c-1.7-0.3-3.5-0.4-5.3-0.4c-18.6,0-33.6,15.1-33.6,33.7c0,16.5,12.1,30.6,28.4,33.2
			c0.6,0.1,1.1-0.3,1.2-0.9s-0.3-1.1-0.9-1.2c-17.2-2.7-29-18.8-26.3-36C692.9,413.8,706,402.5,721.5,402.4z"/>
		<path class="st1" d="M937.7,491.6c-25.7,0-46.5,20.8-46.5,46.5c0,16.9,9.2,32.5,24,40.7c0.2,0.1,0.3,0.1,0.5,0.1
			c0.6,0,1.1-0.5,1.1-1c0-0.1,0-0.2,0-0.3c-0.1-0.3-0.3-0.5-0.5-0.6c-21.5-11.8-29.3-38.8-17.4-60.3c11.8-21.5,38.8-29.3,60.3-17.4
			s29.3,38.8,17.4,60.3c-3.9,7-9.6,12.9-16.6,16.9c-0.4,0.3-0.6,0.8-0.5,1.3l6.3,17.3l-1.5-0.1c-6.8-0.3-19.3-1.4-26.1-6.3
			c-0.5-0.3-1.1-0.2-1.5,0.2s-0.2,1.1,0.2,1.5c9,6.4,26.5,6.8,29.9,6.8l0.4,0c0.6,0,1-0.5,1-1.1c0-0.1,0-0.2-0.1-0.3l-6.6-17.9
			l0.7-0.4c21.7-13.7,28.2-42.4,14.5-64.1C968.5,499.8,953.7,491.6,937.7,491.6z"/>
		<path class="st1" d="M760,824.4c-0.1,0-0.2,0-0.3,0c-0.5,0-0.9,0.3-1,0.8c-4.7,17.1-4.6,35.1,0.2,52.2c0.1,0.4,0.5,0.8,1,0.8
			c0.6,0,1.1-0.5,1.1-1.1c0-0.1,0-0.2,0-0.3c-4.8-16.7-4.8-34.3-0.2-51C760.8,825.1,760.5,824.5,760,824.4z"/>
		<path class="st1" d="M832.2,833.3c0-4.8-3.9-8.8-8.8-8.8l-25.6,0l0.7-1.4c6.7-13.6,5.3-22.8,5.3-23c-0.4-5.4-4.6-9.6-9.6-9.6
			c-5.6,0-9.6,4.2-9.6,9.9v1.1c-0.1,5.5-1.6,10.9-4.5,15.6c-0.1,0.1-7,11.4-8.3,17.4c-1.1,5.3-1.5,10.8-1.4,16.2
			c0,6.1,0.6,12.1,1.7,18.1c1.1,5.4,5.8,9.2,11.2,9.2h39.2l1.1,0c0.2,0,0.4,0,0.6,0l0.3,0c0.2,0,0.3,0,0.4-0.1
			c4.8-0.9,7.9-5.4,7.1-10.2c-0.3-1.4-0.8-2.7-1.7-3.8l-0.5-0.6l0.5-0.6c2.5-3.2,2.5-7.6,0-10.8l-0.5-0.6l0.5-0.6
			c2.5-3.2,2.5-7.6,0-10.8l-0.5-0.6l0.5-0.6C831.6,837.1,832.2,835.2,832.2,833.3z M827.6,838.4c-0.5,0.4-0.5,1-0.2,1.5
			c0,0.1,0.1,0.1,0.2,0.2c2.9,2.3,3.3,6.5,1,9.3c-0.3,0.4-0.6,0.7-1,1c-0.5,0.4-0.5,1-0.2,1.5c0,0.1,0.1,0.1,0.2,0.2
			c2.9,2.3,3.3,6.5,1,9.4c-0.3,0.4-0.6,0.7-1,1c-0.5,0.4-0.5,1-0.2,1.5c0,0.1,0.1,0.1,0.2,0.2c2.9,2.3,3.3,6.5,1,9.4
			c-1,1.3-2.4,2.1-4,2.4l-0.3,0l-0.5,0.1l-0.3,0h-40.3c-4.4,0-8.3-3.1-9.1-7.5c-1.1-5.8-1.7-11.8-1.7-17.7
			c-0.2-5.3,0.3-10.6,1.3-15.8c1.1-5.1,6.9-14.9,8.1-16.8c3-5,4.7-10.8,4.8-16.6v-1.1c-0.2-4.1,2.9-7.6,7-7.8c0.2,0,0.3,0,0.5,0
			c4,0,7.2,3.3,7.5,7.7c0.1,0.4,1.2,10.5-6.6,24.7c-0.3,0.5-0.1,1.1,0.4,1.4c0.2,0.1,0.3,0.1,0.5,0.1l27,0l0.4,0
			c3.7,0,6.7,3,6.7,6.7C830.1,835.3,829.2,837.2,827.6,838.4L827.6,838.4z"/>
		<rect class="st2" width="1080" height="1080"/>
	</g>
</g>
</svg>
