<svg xmlns="http://www.w3.org/2000/svg" xmlns:xlink="http://www.w3.org/1999/xlink" width="116" height="60" viewBox="0 0 116 60">
  <defs>
    <clipPath id="clip-path">
      <rect id="사각형_31" data-name="사각형 31" width="116" height="60" transform="translate(0 0)" fill="none"/>
    </clipPath>
  </defs>
  <g id="logo.svg" transform="translate(0 0)">
    <path id="패스_86" data-name="패스 86" d="M10.381,37.166,5.663,47.4V37.166H1.619V59.684H5.663V52.2l1.573-2.906,2.888,10.391h4.333L10.221,45.915l4.172-8.749Z" fill="#fff"/>
    <g id="그룹_54" data-name="그룹 54">
      <g id="그룹_53" data-name="그룹 53" clip-path="url(#clip-path)">
        <path id="패스_87" data-name="패스 87" d="M26.555,54.062V42.756c0-3.885,2.761-5.937,6.388-5.937,3.531,0,6.355,1.831,6.355,5.811V53.968C39.3,58.042,36.473,60,32.911,60c-3.788,0-6.356-1.895-6.356-5.938m8.635.064V42.534a2.091,2.091,0,0,0-2.279-2.242A2.084,2.084,0,0,0,30.664,42.6V54.126a2.265,2.265,0,1,0,4.526,0" fill="#fff"/>
        <path id="패스_88" data-name="패스 88" d="M52.647,37.166h6.194c3.788,0,6,2.116,6,6.57,0,3.221-1.091,5.115-2.793,5.906L65.1,59.685H60.9l-2.5-9.159h-1.7v9.159H52.647Zm5.874,10.391c1.444,0,2.246-1.074,2.246-3.537,0-2.179-.674-3.506-2.279-3.506h-1.8v7.043Z" fill="#fff"/>
        <path id="패스_89" data-name="패스 89" d="M78.161,37.166h10.5v3.38H82.173v5.812H87.34v3.411H82.173v6.505h6.516v3.412H78.161Z" fill="#fff"/>
        <path id="패스_90" data-name="패스 90" d="M104.065,37.135h5.521l4.462,22.55h-4.077l-1.059-5.464h-4.719l-1.026,5.464H99.411ZM108.27,51l-1.637-9.348h-.1L104.836,51Z" fill="#fff"/>
        <path id="패스_91" data-name="패스 91" d="M53.462,0h-4.19a.989.989,0,0,0-1,.981V31.21a.989.989,0,0,0,1,.982h4.19a.99.99,0,0,0,1-.982V.981a.989.989,0,0,0-1-.981" fill="#fff"/>
        <path id="패스_92" data-name="패스 92" d="M62.838,0H58.649a.99.99,0,0,0-1,.981V31.21a.991.991,0,0,0,1,.982h4.189a.989.989,0,0,0,1-.982V.981a.988.988,0,0,0-1-.981" fill="#fff"/>
        <path id="패스_93" data-name="패스 93" d="M9.784,13.856S15.2,13.811,18.9,14h.011a.992.992,0,0,0,1.04-.929l.192-3.6a.987.987,0,0,0-.911-1.03l-.2-.017c-6.393-.529-10.9-.467-10.9-.467A8.057,8.057,0,0,0,0,15.8v8.584a8.057,8.057,0,0,0,8.135,7.828s4.506.062,10.9-.467l.1-.009a.986.986,0,0,0,.912-1.029l-.2-3.686a.906.906,0,0,0-.95-.848c-3.7.194-9.116.15-9.116.15a3.818,3.818,0,0,1-4-3.557v-5.35a3.818,3.818,0,0,1,4-3.557" fill="#fff"/>
        <path id="패스_94" data-name="패스 94" d="M107.865,8.047s-.642-.009-1.839.01h0c-1.164.019-2.985.069-5.187.191a4.028,4.028,0,0,0-2.591,1.573V8.415h0V.981a.989.989,0,0,0-1-.981H93.259a.99.99,0,0,0-1,.981v29.7a1.365,1.365,0,0,0,1.353,1.494s3.109.008,3.172.019a1.388,1.388,0,0,0,1.153-.978l.307-1.047a7.62,7.62,0,0,0,4.434,1.967c3.177.135,5.144.111,5.144.111A8.056,8.056,0,0,0,116,24.459V15.876a8.057,8.057,0,0,0-8.135-7.828m2.35,14.714a3.817,3.817,0,0,1-4,3.557l-3.173-.015a4.469,4.469,0,0,1-4.485-4.434V16.4a2.18,2.18,0,0,1,.529-1.422,2.841,2.841,0,0,1,2.091-1.1c2.672,0,5.038-.024,5.038-.024a3.817,3.817,0,0,1,4,3.557Z" fill="#fff"/>
        <path id="패스_95" data-name="패스 95" d="M37.7,8.065h-7.78a7.917,7.917,0,0,0-7.979,7.852v8.44a7.917,7.917,0,0,0,7.979,7.852H37.7a7.917,7.917,0,0,0,7.979-7.852v-8.44A7.917,7.917,0,0,0,37.7,8.065M39.7,22.983a3.562,3.562,0,0,1-3.591,3.533H31.519a3.563,3.563,0,0,1-3.591-3.533v-5.5a3.562,3.562,0,0,1,3.591-3.533h4.588A3.562,3.562,0,0,1,39.7,17.487Z" fill="#fff"/>
        <path id="패스_96" data-name="패스 96" d="M81.433,7.968s-4.506-.063-10.9.466l-.2.017a.987.987,0,0,0-.91,1.03l.192,3.6a.992.992,0,0,0,1.04.93h.011c3.7-.194,9.116-.15,9.116-.15a3.958,3.958,0,0,1,3.9,2.77.4.4,0,0,1-.388.489l-9.689.008c-5.122,0-7.564,2.362-7.564,7.5,0,5.182,2.441,7.591,7.564,7.591h3.322c3.036,0,5.26-.641,6.457-2.028l.3,1.011a1.431,1.431,0,0,0,1.336,1.017h3.14a1.4,1.4,0,0,0,1.409-1.388V15.8a8.057,8.057,0,0,0-8.135-7.828m1.974,16.113a4.178,4.178,0,0,1-3.929,2.829H74.315c-1.453,0-2.146-.637-2.146-2.107v-.44c0-1.457.693-1.968,2.146-1.968h8.866a.4.4,0,0,1,.4.372,4.786,4.786,0,0,1-.172,1.314" fill="#fff"/>
      </g>
    </g>
  </g>
</svg>
