<svg xmlns="http://www.w3.org/2000/svg" xmlns:xlink="http://www.w3.org/1999/xlink" width="85.76" height="17" viewBox="0 0 85.76 17">
  <defs>
    <clipPath id="clip-path">
      <rect id="사각형_2" data-name="사각형 2" width="78" height="17" transform="translate(0 0)" fill="none"/>
    </clipPath>
  </defs>
  <g id="그룹_205" data-name="그룹 205" transform="translate(-656 -6064)">
    <g id="그룹_4" data-name="그룹 4" transform="translate(656 6064)">
      <g id="그룹_3" data-name="그룹 3" clip-path="url(#clip-path)">
        <path id="패스_12" data-name="패스 12" d="M24.356,2.655a3.079,3.079,0,0,0-2.2-2.147C20.217,0,12.438,0,12.438,0S4.659,0,2.719.508A3.079,3.079,0,0,0,.52,2.655,30.879,30.879,0,0,0,0,8.5a30.876,30.876,0,0,0,.52,5.845,3.08,3.08,0,0,0,2.2,2.147C4.659,17,12.438,17,12.438,17s7.779,0,9.719-.508a3.08,3.08,0,0,0,2.2-2.147,30.864,30.864,0,0,0,.52-5.845,30.867,30.867,0,0,0-.52-5.845" fill="red"/>
        <path id="패스_13" data-name="패스 13" d="M9.95,12.143,16.413,8.5,9.95,4.857Z" fill="#fff"/>
        <path id="패스_14" data-name="패스 14" d="M36.107,15.466a2.644,2.644,0,0,1-1.049-1.511,9.664,9.664,0,0,1-.311-2.727V9.682A8.76,8.76,0,0,1,35.1,6.921,2.774,2.774,0,0,1,36.214,5.4,3.67,3.67,0,0,1,38.2,4.924a3.444,3.444,0,0,1,1.939.486A2.787,2.787,0,0,1,41.2,6.93a9.118,9.118,0,0,1,.338,2.753v1.546a9.268,9.268,0,0,1-.329,2.735,2.687,2.687,0,0,1-1.067,1.511,3.65,3.65,0,0,1-2,.478,3.674,3.674,0,0,1-2.037-.486M38.865,13.8a5.077,5.077,0,0,0,.2-1.7V8.779a5.019,5.019,0,0,0-.2-1.676.73.73,0,0,0-.721-.53.719.719,0,0,0-.7.53,5.008,5.008,0,0,0-.2,1.676V12.1a5.282,5.282,0,0,0,.2,1.7.714.714,0,0,0,.712.521.729.729,0,0,0,.721-.521" fill="#fff"/>
        <path id="패스_15" data-name="패스 15" d="M73.891,11.253v.538a13.817,13.817,0,0,0,.062,1.537,1.435,1.435,0,0,0,.258.747.743.743,0,0,0,.6.234.764.764,0,0,0,.756-.417,3.552,3.552,0,0,0,.222-1.389l2.117.122a3.18,3.18,0,0,1,.018.382,2.788,2.788,0,0,1-.827,2.206,3.424,3.424,0,0,1-2.339.729,2.811,2.811,0,0,1-2.544-1.111,6.381,6.381,0,0,1-.729-3.439V9.534a6.311,6.311,0,0,1,.756-3.5,2.911,2.911,0,0,1,2.588-1.1,3.488,3.488,0,0,1,1.939.451,2.423,2.423,0,0,1,.952,1.407A9.934,9.934,0,0,1,78,9.43v1.824ZM74.2,6.772a1.445,1.445,0,0,0-.249.738,14.037,14.037,0,0,0-.062,1.554v.764h1.8V9.065a12.645,12.645,0,0,0-.071-1.554,1.466,1.466,0,0,0-.258-.747.722.722,0,0,0-.578-.217.708.708,0,0,0-.578.226" fill="#fff"/>
        <path id="패스_16" data-name="패스 16" d="M30.129,11.054,27.337,1.206h2.437l.978,4.464q.374,1.65.551,2.814h.071q.124-.834.551-2.8L32.94,1.206h2.437l-2.828,9.847v4.724H30.129Z" fill="#fff"/>
        <path id="패스_17" data-name="패스 17" d="M49.468,5.132V15.778H47.547l-.214-1.3H47.28a2.516,2.516,0,0,1-2.348,1.476,1.863,1.863,0,0,1-1.6-.695,3.66,3.66,0,0,1-.516-2.171V5.132H45.27v7.815a2.334,2.334,0,0,0,.16,1.016.555.555,0,0,0,.534.3,1.106,1.106,0,0,0,.614-.191,1.193,1.193,0,0,0,.436-.486V5.132Z" fill="#fff"/>
        <path id="패스_18" data-name="패스 18" d="M62.061,5.132V15.778H60.139l-.214-1.3h-.053a2.516,2.516,0,0,1-2.348,1.476,1.863,1.863,0,0,1-1.6-.695,3.66,3.66,0,0,1-.516-2.171V5.132h2.455v7.815a2.334,2.334,0,0,0,.16,1.016.556.556,0,0,0,.534.3,1.106,1.106,0,0,0,.614-.191,1.194,1.194,0,0,0,.436-.486V5.132Z" fill="#fff"/>
        <path id="패스_19" data-name="패스 19" d="M56.139,3.135H53.7V15.778H51.3V3.135H48.863V1.207h7.276Z" fill="#fff"/>
        <path id="패스_20" data-name="패스 20" d="M70.185,6.834a2.714,2.714,0,0,0-.72-1.459,1.967,1.967,0,0,0-1.37-.451,2.311,2.311,0,0,0-1.263.373,2.558,2.558,0,0,0-.907.981h-.018V.668H63.541v15.11h2.028l.249-1.007h.053a2.057,2.057,0,0,0,.854.851,2.58,2.58,0,0,0,1.263.313,1.938,1.938,0,0,0,1.832-1.12,7.893,7.893,0,0,0,.587-3.5V9.63a13.654,13.654,0,0,0-.222-2.8m-2.25,4.343a13.117,13.117,0,0,1-.1,1.824,1.937,1.937,0,0,1-.329.938.768.768,0,0,1-.622.278,1.158,1.158,0,0,1-.56-.139,1.057,1.057,0,0,1-.418-.417V7.616a1.5,1.5,0,0,1,.427-.712.956.956,0,0,1,.658-.278.669.669,0,0,1,.578.286,2.165,2.165,0,0,1,.284.964,17.525,17.525,0,0,1,.08,1.928Z" fill="#fff"/>
      </g>
    </g>
    <rect id="Shape_4" data-name="Shape 4" width="0.94" height="15.01" transform="translate(740.82 6064.82)" fill="#fff"/>
  </g>
</svg>
