<svg xmlns="http://www.w3.org/2000/svg" xmlns:xlink="http://www.w3.org/1999/xlink" width="129.936" height="17" viewBox="0 0 129.936 17">
  <defs>
    <clipPath id="clip-path">
      <rect id="사각형_2" data-name="사각형 2" width="70" height="15" transform="translate(0 0)" fill="none"/>
    </clipPath>
  </defs>
  <g id="그룹_201" data-name="그룹 201" transform="translate(-754 -5970.322)">
    <g id="Vector_Smart_Object" data-name="Vector Smart Object" transform="translate(754 5971)">
      <g id="그룹_4" data-name="그룹 4">
        <g id="그룹_3" data-name="그룹 3" clip-path="url(#clip-path)">
          <path id="패스_12" data-name="패스 12" d="M21.858,2.342A2.742,2.742,0,0,0,19.884.448C18.143,0,11.162,0,11.162,0S4.181,0,2.44.448A2.742,2.742,0,0,0,.466,2.342,26.8,26.8,0,0,0,0,7.5a26.8,26.8,0,0,0,.466,5.158A2.742,2.742,0,0,0,2.44,14.552C4.181,15,11.162,15,11.162,15s6.981,0,8.722-.448a2.742,2.742,0,0,0,1.974-1.895A26.787,26.787,0,0,0,22.324,7.5a26.789,26.789,0,0,0-.467-5.158" fill="red"/>
          <path id="패스_13" data-name="패스 13" d="M8.93,10.714,14.73,7.5,8.93,4.286Z" fill="#fff"/>
          <path id="패스_14" data-name="패스 14" d="M32.4,13.646a2.334,2.334,0,0,1-.942-1.333,8.392,8.392,0,0,1-.28-2.406V8.543A7.608,7.608,0,0,1,31.5,6.107a2.452,2.452,0,0,1,1-1.341,3.338,3.338,0,0,1,1.78-.421,3.131,3.131,0,0,1,1.74.429,2.461,2.461,0,0,1,.958,1.341,7.918,7.918,0,0,1,.3,2.429V9.907a8.048,8.048,0,0,1-.3,2.414,2.373,2.373,0,0,1-.958,1.333,3.32,3.32,0,0,1-1.8.421,3.342,3.342,0,0,1-1.828-.429m2.475-1.471a4.409,4.409,0,0,0,.184-1.5V7.746a4.359,4.359,0,0,0-.184-1.479.655.655,0,0,0-.647-.467.644.644,0,0,0-.63.467,4.349,4.349,0,0,0-.184,1.479v2.927a4.587,4.587,0,0,0,.175,1.5.639.639,0,0,0,.639.46.653.653,0,0,0,.647-.46" fill="#fff"/>
          <path id="패스_15" data-name="패스 15" d="M66.312,9.929V10.4a11.987,11.987,0,0,0,.056,1.356,1.253,1.253,0,0,0,.232.659.673.673,0,0,0,.543.207.688.688,0,0,0,.678-.368,3.087,3.087,0,0,0,.2-1.226l1.9.107a2.76,2.76,0,0,1,.016.337,2.438,2.438,0,0,1-.742,1.946,3.108,3.108,0,0,1-2.1.643,2.54,2.54,0,0,1-2.283-.981,5.553,5.553,0,0,1-.655-3.034V8.412a5.492,5.492,0,0,1,.679-3.088,2.631,2.631,0,0,1,2.323-.973,3.173,3.173,0,0,1,1.74.4,2.138,2.138,0,0,1,.854,1.241A8.625,8.625,0,0,1,70,8.32V9.929Zm.279-3.954a1.261,1.261,0,0,0-.223.651A12.177,12.177,0,0,0,66.312,8v.674h1.612V8a10.974,10.974,0,0,0-.064-1.372,1.28,1.28,0,0,0-.232-.659.654.654,0,0,0-.519-.192.641.641,0,0,0-.519.2" fill="#fff"/>
          <path id="패스_16" data-name="패스 16" d="M27.039,9.753,24.533,1.065H26.72L27.6,5q.335,1.456.495,2.483h.064q.112-.736.495-2.467l.91-3.954h2.187L29.21,9.753v4.168H27.039Z" fill="#fff"/>
          <path id="패스_17" data-name="패스 17" d="M44.395,4.528v9.394H42.67l-.192-1.149h-.048a2.262,2.262,0,0,1-2.107,1.3,1.684,1.684,0,0,1-1.437-.613,3.187,3.187,0,0,1-.463-1.915V4.528h2.2v6.9a2.028,2.028,0,0,0,.144.9.5.5,0,0,0,.479.268,1,1,0,0,0,.551-.169,1.059,1.059,0,0,0,.391-.429V4.528Z" fill="#fff"/>
          <path id="패스_18" data-name="패스 18" d="M55.7,4.528v9.394H53.971l-.192-1.149h-.048a2.262,2.262,0,0,1-2.107,1.3,1.684,1.684,0,0,1-1.437-.613,3.187,3.187,0,0,1-.463-1.915V4.528h2.2v6.9a2.029,2.029,0,0,0,.144.9.5.5,0,0,0,.479.268,1,1,0,0,0,.551-.169,1.06,1.06,0,0,0,.391-.429V4.528Z" fill="#fff"/>
          <path id="패스_19" data-name="패스 19" d="M50.381,2.766H48.194V13.922H46.039V2.766H43.852v-1.7h6.529Z" fill="#fff"/>
          <path id="패스_20" data-name="패스 20" d="M62.987,6.03a2.38,2.38,0,0,0-.646-1.287,1.784,1.784,0,0,0-1.229-.4,2.1,2.1,0,0,0-1.133.329,2.273,2.273,0,0,0-.814.866h-.016V.59H57.024V13.922h1.82l.224-.889h.048a1.83,1.83,0,0,0,.766.751,2.347,2.347,0,0,0,1.134.276,1.742,1.742,0,0,0,1.644-.988,6.861,6.861,0,0,0,.527-3.088V8.5a11.851,11.851,0,0,0-.2-2.467M60.967,9.862a11.382,11.382,0,0,1-.088,1.609,1.691,1.691,0,0,1-.3.827.7.7,0,0,1-.559.245,1.054,1.054,0,0,1-.5-.123.941.941,0,0,1-.375-.368V6.72a1.323,1.323,0,0,1,.383-.628.865.865,0,0,1,.591-.245.6.6,0,0,1,.519.253,1.887,1.887,0,0,1,.255.851,15.206,15.206,0,0,1,.072,1.7Z" fill="#fff"/>
        </g>
      </g>
    </g>
    <text id="certified" transform="translate(834.936 5984.322)" fill="#8e8e8e" font-size="13.427" font-family="SegoeUI, Segoe UI"><tspan x="0" y="0">certified</tspan></text>
    <rect id="Shape_4" data-name="Shape 4" width="0.84" height="13.43" transform="translate(829.53 5971.73)" fill="#fff"/>
  </g>
</svg>
