<svg xmlns="http://www.w3.org/2000/svg" width="75" height="75" viewBox="0 0 75 75">
    <g fill="none" fill-rule="evenodd" stroke-width="2">
        <g stroke="#FAFA51">
            <path stroke-linecap="round" d="M31.62 42.022h10.144V31.878H31.62z"/>
            <path stroke-linecap="round" d="M47.271 41.432a5.582 5.582 0 1 1-11.163 0 5.582 5.582 0 0 1 11.163 0z"/>
            <path stroke-linecap="round" d="M56.842 39.445c0 9.608-7.789 17.398-17.397 17.398-9.607 0-17.396-7.79-17.396-17.398s7.79-17.397 17.396-17.397c9.608 0 17.397 7.79 17.397 17.397z"/>
            <path stroke-dasharray="4,6,3" stroke-linecap="round" d="M9.751 25.192v27.32"/>
            <path stroke-dasharray="4,5,3" stroke-linecap="round" d="M14.502 59.638l20.192 9.502"/>
            <path stroke-dasharray="4,3,3" stroke-linecap="round" d="M69.14 25.192v27.32"/>
            <path d="M14.502 20.441a4.75 4.75 0 1 1-9.502 0 4.75 4.75 0 0 1 9.502 0zM44.197 9.751a4.75 4.75 0 1 1-9.502 0 4.75 4.75 0 0 1 9.502 0zM44.197 69.14a4.75 4.75 0 1 1-9.502 0 4.75 4.75 0 0 1 9.502 0zM73.891 20.441a4.75 4.75 0 1 1-9.502 0 4.75 4.75 0 0 1 9.502 0zM73.891 57.262a4.75 4.75 0 1 1-9.502 0 4.75 4.75 0 0 1 9.502 0zM14.502 57.262a4.75 4.75 0 1 1-9.502 0 4.75 4.75 0 0 1 9.502 0z"/>
            <path stroke-dasharray="4,5,3" stroke-linecap="round" d="M64.389 59.638L44.197 69.14M64.389 16.878L44.197 8.564M14.502 16.878l20.192-8.314"/>
            <path stroke-linecap="round" d="M14.502 22.817l9.502 5.939M64.389 22.817l-10.69 5.939M14.502 54.776l9.502-5.939M64.389 54.776l-10.053-5.585M39.446 15.25v6.565M39.446 57.283v6.566"/>
        </g>
        <g stroke="#111820">
            <path stroke-linecap="round" d="M27.62 38.022h10.144V27.878H27.62z"/>
            <path stroke-linecap="round" d="M43.271 37.432a5.582 5.582 0 1 1-11.163 0 5.582 5.582 0 0 1 11.163 0z"/>
            <path stroke-linecap="round" d="M52.842 35.445c0 9.608-7.789 17.398-17.397 17.398-9.607 0-17.396-7.79-17.396-17.398s7.79-17.397 17.396-17.397c9.608 0 17.397 7.79 17.397 17.397z"/>
            <path stroke-dasharray="4,6,3" stroke-linecap="round" d="M5.751 21.192v27.32"/>
            <path stroke-dasharray="4,5,3" stroke-linecap="round" d="M10.502 55.638l20.192 9.502"/>
            <path stroke-dasharray="4,3,3" stroke-linecap="round" d="M65.14 21.192v27.32"/>
            <path d="M10.502 16.441a4.75 4.75 0 1 1-9.502 0 4.75 4.75 0 0 1 9.502 0zM40.197 5.751a4.75 4.75 0 1 1-9.502 0 4.75 4.75 0 0 1 9.502 0zM40.197 65.14a4.75 4.75 0 1 1-9.502 0 4.75 4.75 0 0 1 9.502 0zM69.891 16.441a4.75 4.75 0 1 1-9.502 0 4.75 4.75 0 0 1 9.502 0zM69.891 53.262a4.75 4.75 0 1 1-9.502 0 4.75 4.75 0 0 1 9.502 0zM10.502 53.262a4.75 4.75 0 1 1-9.502 0 4.75 4.75 0 0 1 9.502 0z"/>
            <path stroke-dasharray="4,5,3" stroke-linecap="round" d="M60.389 55.638L40.197 65.14M60.389 12.878L40.197 4.564M10.502 12.878l20.192-8.314"/>
            <path stroke-linecap="round" d="M10.502 18.817l9.502 5.939M60.389 18.817l-10.69 5.939M10.502 50.776l9.502-5.939M60.389 50.776l-10.053-5.585M35.446 11.25v6.565M35.446 53.283v6.566"/>
        </g>
    </g>
</svg>
