<svg xmlns="http://www.w3.org/2000/svg" width="95" height="73" viewBox="0 0 95 73">
    <g fill="none" fill-rule="evenodd" stroke-linecap="round" stroke-width="2">
        <g stroke="#FAFA51">
            <path stroke-linejoin="round" d="M36.724 23.078h6.969a3.184 3.184 0 0 1 3.184 3.184v1.426a3.184 3.184 0 0 1-3.184 3.184h-9.5a2.945 2.945 0 0 1-2.944-2.945"/>
            <path stroke-linejoin="round" d="M30.94 35.137V34.4a3.529 3.529 0 0 1 3.53-3.529h9.434a3.815 3.815 0 0 1 3.816 3.815v.164a3.816 3.816 0 0 1-3.816 3.816H34.47a3.529 3.529 0 0 1-3.529-3.529z"/>
            <path stroke-linejoin="round" d="M30.581 42.932v-.737a3.529 3.529 0 0 1 3.53-3.53h8.95a3.815 3.815 0 0 1 3.815 3.816v.164a3.816 3.816 0 0 1-3.815 3.816h-8.95a3.529 3.529 0 0 1-3.53-3.53z"/>
            <path stroke-linejoin="round" d="M29.563 50.76v-.805a3.494 3.494 0 0 1 3.495-3.494h8.354a3.777 3.777 0 0 1 3.778 3.778v.236a3.778 3.778 0 0 1-3.778 3.78h-8.354a3.495 3.495 0 0 1-3.495-3.495zM29.71 53.014c-1.97 1.359-15.21 1.273-18.175-4.37M19.783 41.24s8.865-.949 12.509-11.068M5 50.357h7.196"/>
            <path stroke-linejoin="round" d="M28.792 25.749l4.51 4.04a3.46 3.46 0 1 0 4.886-4.886l-4.438-4.951a5.787 5.787 0 0 0-6.22-1.6l-5.572 1.95a5.785 5.785 0 0 0-2.953 2.329l-2.392 3.714-2.465 3.828s-.53 3.192-8.897 3.595M70.745 23.078H55.33a3.183 3.183 0 0 0-3.184 3.184v1.426a3.183 3.183 0 0 0 3.184 3.184"/>
            <path stroke-linejoin="round" d="M54.738 30.872a3.436 3.436 0 0 0-3.436 3.436v.922a3.436 3.436 0 0 0 3.436 3.436M55.532 38.666a3.386 3.386 0 0 0-3.386 3.386v1.022a3.386 3.386 0 0 0 3.386 3.386M57.148 46.46a3.316 3.316 0 0 0-3.316 3.316v1.162a3.316 3.316 0 0 0 3.316 3.316h15.08M72.232 54.2c4.382.326 11.98-.753 14.233-5.04M94.022 50.357h-8.219M65.272 19.952a5.787 5.787 0 0 1 6.221-1.6l5.571 1.95a5.784 5.784 0 0 1 2.952 2.329l2.393 3.714 2.465 3.828s.53 3.192 8.897 3.595"/>
            <path d="M38.856 10.558l3.88 3.129M60.505 10.558l-3.88 3.129M49.68 10.558V5M60.505 66.175l-3.88-3.129M38.856 66.175l3.88-3.129M49.68 66.175v5.558"/>
        </g>
        <g stroke="#111820">
            <path stroke-linejoin="round" d="M32.724 19.078h6.969a3.184 3.184 0 0 1 3.184 3.184v1.426a3.184 3.184 0 0 1-3.184 3.184h-9.5a2.945 2.945 0 0 1-2.944-2.945"/>
            <path stroke-linejoin="round" d="M26.94 31.137V30.4a3.529 3.529 0 0 1 3.53-3.529h9.434a3.815 3.815 0 0 1 3.816 3.815v.164a3.816 3.816 0 0 1-3.816 3.816H30.47a3.529 3.529 0 0 1-3.529-3.529z"/>
            <path stroke-linejoin="round" d="M26.581 38.932v-.737a3.529 3.529 0 0 1 3.53-3.53h8.95a3.815 3.815 0 0 1 3.815 3.816v.164a3.816 3.816 0 0 1-3.815 3.816h-8.95a3.529 3.529 0 0 1-3.53-3.53z"/>
            <path stroke-linejoin="round" d="M25.563 46.76v-.805a3.494 3.494 0 0 1 3.495-3.494h8.354a3.777 3.777 0 0 1 3.778 3.778v.236a3.778 3.778 0 0 1-3.778 3.78h-8.354a3.495 3.495 0 0 1-3.495-3.495zM25.71 49.014c-1.97 1.359-15.21 1.273-18.175-4.37M15.783 37.24s8.865-.949 12.509-11.068M1 46.357h7.196"/>
            <path stroke-linejoin="round" d="M24.792 21.749l4.51 4.04a3.46 3.46 0 1 0 4.886-4.886l-4.438-4.951a5.787 5.787 0 0 0-6.22-1.6l-5.572 1.95a5.785 5.785 0 0 0-2.953 2.329l-2.392 3.714-2.465 3.828s-.53 3.192-8.897 3.595M66.745 19.078H51.33a3.183 3.183 0 0 0-3.184 3.184v1.426a3.183 3.183 0 0 0 3.184 3.184"/>
            <path stroke-linejoin="round" d="M50.738 26.872a3.436 3.436 0 0 0-3.436 3.436v.922a3.436 3.436 0 0 0 3.436 3.436M51.532 34.666a3.386 3.386 0 0 0-3.386 3.386v1.022a3.386 3.386 0 0 0 3.386 3.386M53.148 42.46a3.316 3.316 0 0 0-3.316 3.316v1.162a3.316 3.316 0 0 0 3.316 3.316h15.08M68.232 50.2c4.382.326 11.98-.753 14.233-5.04M90.022 46.357h-8.219M61.272 15.952a5.787 5.787 0 0 1 6.221-1.6l5.571 1.95a5.784 5.784 0 0 1 2.952 2.329l2.393 3.714 2.465 3.828s.53 3.192 8.897 3.595"/>
            <path d="M34.856 6.558l3.88 3.129M56.505 6.558l-3.88 3.129M45.68 6.558V1M56.505 62.175l-3.88-3.129M34.856 62.175l3.88-3.129M45.68 62.175v5.558"/>
        </g>
    </g>
</svg>
