<svg xmlns="http://www.w3.org/2000/svg" width="85" height="68" viewBox="0 0 85 68">
    <g fill="none" fill-rule="evenodd" stroke-linecap="round" stroke-width="2">
        <g stroke="#FAFA51">
            <path stroke-dasharray="4,4" d="M63.16 58.846c-4.713 4.96-11.373 8.053-18.756 8.053-7.384 0-14.046-3.094-18.76-8.056"/>
            <path d="M75.772 34.04c0 4.21-3.413 9.317-7.623 9.317-4.209 0-7.622-5.108-7.622-9.318 0-5.717 3.413-9.883 7.622-9.883 4.21 0 7.623 4.166 7.623 9.883zM65.063 29.967s4.197 4.297 10.413 2.904"/>
            <path d="M51.913 55.999l1.68-4.737c.06-.243.128-.483.206-.72.91-2.763 3.15-4.887 5.867-5.926l3.363-1.063a2.013 2.013 0 0 0 1.374-1.562M78.577 60.854c.976-.609 5.464-1.767 5.214-2.89l-1.084-6.703a9.821 9.821 0 0 0-.207-.718c-.909-2.764-3.149-4.888-5.867-5.927l-3.363-1.063a2.014 2.014 0 0 1-1.374-1.562M28.274 34.04c0 4.21-3.413 9.317-7.623 9.317-4.21 0-7.622-5.108-7.622-9.318 0-5.717 3.413-9.883 7.622-9.883 4.21 0 7.623 4.166 7.623 9.883zM17.565 29.967s4.197 4.297 10.413 2.904"/>
            <path d="M10.224 60.854c-.976-.609-5.464-1.767-5.214-2.89l1.084-6.703c.06-.242.129-.482.207-.718.909-2.764 3.149-4.888 5.867-5.927l3.363-1.063a2.014 2.014 0 0 0 1.374-1.562M36.89 56.002l-1.68-4.741c-.06-.242-.13-.482-.208-.718-.909-2.764-3.149-4.888-5.867-5.927l-3.363-1.063a2.014 2.014 0 0 1-1.374-1.562M49.093 34.938c.13.326.198.675.198 1.03v3.963a4.53 4.53 0 1 1-9.062 0v-3.963c0-.59.188-1.165.536-1.641l1.935-2.651a2.549 2.549 0 0 1 2.738-.956"/>
            <path d="M40.373 30.255a2.774 2.774 0 0 1-.144-.883V25.41a4.53 4.53 0 1 1 9.062 0v3.962c0 .59-.188 1.165-.536 1.641l-1.935 2.651a2.548 2.548 0 0 1-2.78.944M20.585 59.143v-5.104h5.104M68.723 59.143v-5.104h-5.104"/>
            <path stroke-dasharray="4,4" d="M26.148 13.053C30.861 8.093 37.521 5 44.904 5c7.384 0 14.046 3.094 18.76 8.056"/>
            <path d="M68.723 12.756v5.104h-5.104M20.585 12.756v5.104h5.104"/>
        </g>
        <g stroke="#111820">
            <path stroke-dasharray="4,4" d="M59.16 54.846c-4.713 4.96-11.373 8.053-18.756 8.053-7.384 0-14.046-3.094-18.76-8.056"/>
            <path d="M71.772 30.04c0 4.21-3.413 9.317-7.623 9.317-4.209 0-7.622-5.108-7.622-9.318 0-5.717 3.413-9.883 7.622-9.883 4.21 0 7.623 4.166 7.623 9.883zM61.063 25.967s4.197 4.297 10.413 2.904"/>
            <path d="M47.913 51.999l1.68-4.737c.06-.243.128-.483.206-.72.91-2.763 3.15-4.887 5.867-5.926l3.363-1.063a2.013 2.013 0 0 0 1.374-1.562M74.577 56.854c.976-.609 5.464-1.767 5.214-2.89l-1.084-6.703a9.821 9.821 0 0 0-.207-.718c-.909-2.764-3.149-4.888-5.867-5.927l-3.363-1.063a2.014 2.014 0 0 1-1.374-1.562M24.274 30.04c0 4.21-3.413 9.317-7.623 9.317-4.21 0-7.622-5.108-7.622-9.318 0-5.717 3.413-9.883 7.622-9.883 4.21 0 7.623 4.166 7.623 9.883zM13.565 25.967s4.197 4.297 10.413 2.904"/>
            <path d="M6.224 56.854c-.976-.609-5.464-1.767-5.214-2.89l1.084-6.703c.06-.242.129-.482.207-.718.909-2.764 3.149-4.888 5.867-5.927l3.363-1.063a2.014 2.014 0 0 0 1.374-1.562M32.89 52.002l-1.68-4.741c-.06-.242-.13-.482-.208-.718-.909-2.764-3.149-4.888-5.867-5.927l-3.363-1.063a2.014 2.014 0 0 1-1.374-1.562M45.093 30.938c.13.326.198.675.198 1.03v3.963a4.53 4.53 0 1 1-9.062 0v-3.963c0-.59.188-1.165.536-1.641l1.935-2.651a2.549 2.549 0 0 1 2.738-.956"/>
            <path d="M36.373 26.255a2.774 2.774 0 0 1-.144-.883V21.41a4.53 4.53 0 1 1 9.062 0v3.962c0 .59-.188 1.165-.536 1.641l-1.935 2.651a2.548 2.548 0 0 1-2.78.944M16.585 55.143v-5.104h5.104M64.723 55.143v-5.104h-5.104"/>
            <path stroke-dasharray="4,4" d="M22.148 9.053C26.861 4.093 33.521 1 40.904 1c7.384 0 14.046 3.094 18.76 8.056"/>
            <path d="M64.723 8.756v5.104h-5.104M16.585 8.756v5.104h5.104"/>
        </g>
    </g>
</svg>
