<svg xmlns="http://www.w3.org/2000/svg" width="69" height="78" viewBox="0 0 69 78">
    <g fill="none" fill-rule="evenodd" stroke-width="2">
        <g stroke="#FAFA51">
            <path stroke-linecap="round" d="M61.25 73.499c-1.753-7.416-.75-9.133 1.002-16.548l4.587-19.396c3.746-15.843-7.52-31.696-23.779-32.52A26.933 26.933 0 0 0 41.693 5c-14.67 0-26.562 11.893-26.562 26.563v3.496L5.526 46.234c-1.204 1.4-.209 3.568 1.638 3.568l7.967 2.002v4.474c0 7.329 5.941 13.27 13.27 13.27l4.255-.748a1.223 1.223 0 0 1 1.435 1.205v6.49"/>
            <path d="M37.99 35.81a4 4 0 1 1 8 0 4 4 0 0 1-8 0zM26.714 24.56a4 4 0 1 1 5.658-5.656 4 4 0 0 1-5.658 5.657zM38.99 17.81a3 3 0 1 1 5.999 0 3 3 0 0 1-6 0zM54.178 32.508a3 3 0 1 1 2.898-5.254 3 3 0 0 1-2.898 5.254zM41.99 31.81v-11M52.91 30.666l-6.633 3.231M33.297 20.737l5.693-1.423M32.99 45.81a3 3 0 1 0-6 0 3 3 0 0 0 6 0zM31.99 43.81l7-6M42.764 45.545a3 3 0 1 0 4.24 4.243 3 3 0 0 0-4.24-4.243zM42.056 47.667l-9.191-.707"/>
            <path stroke-linecap="round" d="M25.178 39.983a17.604 17.604 0 0 1-1.082-5.427c-.079-1.98.172-3.897.704-5.698M58.83 37.983a17.646 17.646 0 0 1-6.307 9.77M49.78 18.194a17.703 17.703 0 0 1 5.334 4.24M17.463 61.274l9.82-5.161"/>
        </g>
        <g stroke="#111820">
            <path stroke-linecap="round" d="M57.25 69.499c-1.753-7.416-.75-9.133 1.002-16.548l4.587-19.396c3.746-15.843-7.52-31.696-23.779-32.52A26.933 26.933 0 0 0 37.693 1c-14.67 0-26.562 11.893-26.562 26.563v3.496L1.526 42.234c-1.204 1.4-.209 3.568 1.638 3.568l7.967 2.002v4.474c0 7.329 5.941 13.27 13.27 13.27l4.255-.748a1.223 1.223 0 0 1 1.435 1.205v6.49"/>
            <path d="M33.99 31.81a4 4 0 1 1 8 0 4 4 0 0 1-8 0zM22.714 20.56a4 4 0 1 1 5.658-5.656 4 4 0 0 1-5.658 5.657zM34.99 13.81a3 3 0 1 1 5.999 0 3 3 0 0 1-6 0zM50.178 28.508a3 3 0 1 1 2.898-5.254 3 3 0 0 1-2.898 5.254zM37.99 27.81v-11M48.91 26.666l-6.633 3.231M29.297 16.737l5.693-1.423M28.99 41.81a3 3 0 1 0-6 0 3 3 0 0 0 6 0zM27.99 39.81l7-6M38.764 41.545a3 3 0 1 0 4.24 4.243 3 3 0 0 0-4.24-4.243zM38.056 43.667l-9.191-.707"/>
            <path stroke-linecap="round" d="M21.178 35.983a17.604 17.604 0 0 1-1.082-5.427c-.079-1.98.172-3.897.704-5.698M54.83 33.983a17.646 17.646 0 0 1-6.307 9.77M45.78 14.194a17.703 17.703 0 0 1 5.334 4.24M13.463 57.274l9.82-5.161"/>
        </g>
    </g>
</svg>
