<svg xmlns="http://www.w3.org/2000/svg" width="80" height="72" viewBox="0 0 80 72">
    <g fill="none" fill-rule="evenodd">
        <path stroke="#FAFA51" stroke-linecap="round" stroke-width="2" d="M64.196 45.488H17.061a1 1 0 0 1-1-1V18.411a1 1 0 0 1 1-1h47.135a1 1 0 0 1 1 1v26.077a1 1 0 0 1-1 1z"/>
        <path stroke="#FAFA51" stroke-linecap="round" stroke-linejoin="round" stroke-width="2" d="M19.865 14.018l.19-2.625 38.977 5.146"/>
        <path stroke="#FAFA51" stroke-linecap="round" stroke-width="2" d="M49.082 31.45a8.453 8.453 0 1 1-16.906 0 8.453 8.453 0 0 1 16.906 0zM29.304 21.798H25.69a4.825 4.825 0 0 1-5.242 5.242v8.82c.144-.014.29-.023.438-.023a4.825 4.825 0 0 1 4.804 5.264h3.613M51.954 41.101h3.613a4.825 4.825 0 0 1 5.242-5.242V27.04a4.825 4.825 0 0 1-5.242-5.242h-3.613"/>
        <path fill="#FAFA51" d="M20.887 23.316a1.08 1.08 0 0 1 0-2.158 1.08 1.08 0 0 1 0 2.158M20.887 41.59a1.08 1.08 0 0 1 0-2.159 1.08 1.08 0 0 1 0 2.158M60.373 23.316a1.08 1.08 0 0 1 0-2.158 1.08 1.08 0 0 1 0 2.158M60.373 41.59a1.08 1.08 0 0 1 0-2.159 1.08 1.08 0 0 1 0 2.158"/>
        <path stroke="#FAFA51" stroke-linecap="round" stroke-width="2" d="M64.927 17.411L23.08 5.292l-.28 2.626"/>
        <path stroke="#FAFA51" stroke-linecap="round" stroke-linejoin="round" stroke-width="2" d="M42.243 54.799H30.52l-1.05-1.381H5v3.645a2.43 2.43 0 0 0 2.43 2.431h34.813M14.799 9.786h-3.697a2.331 2.331 0 0 0-2.331 2.331v39.63M71.712 40.589V12.118a2.33 2.33 0 0 0-2.33-2.331h-12.05"/>
        <path stroke="#FAFA51" stroke-linecap="round" stroke-width="2" d="M69.228 65.65a3.446 3.446 0 0 1-4.327 2.21l-4.903-1.59M60.373 66.442a3.436 3.436 0 0 1-2.21-4.327"/>
        <path stroke="#FAFA51" stroke-linecap="round" stroke-width="2" d="M76.97 43.52h-.343a1.982 1.982 0 0 0-1.975 1.976V47.1l-23.62 7.444v-.787c0-.906-.741-1.647-1.647-1.647H49.1c-.906 0-1.648.741-1.648 1.647v6.726c0 .906.742 1.648 1.648 1.648h.285c.906 0 1.647-.742 1.647-1.648v-.786l23.62 7.444v1.602c0 1.087.888 1.977 1.975 1.977h.343c1.087 0 1.977-.89 1.977-1.977V45.496c0-1.087-.89-1.976-1.978-1.976zM74.652 45.497V57.12M51.037 53.748v5.11"/>
        <g>
            <path stroke="#111820" stroke-linecap="round" stroke-width="2" d="M60.196 41.488H13.061a1 1 0 0 1-1-1V14.411a1 1 0 0 1 1-1h47.135a1 1 0 0 1 1 1v26.077a1 1 0 0 1-1 1z"/>
            <path stroke="#111820" stroke-linecap="round" stroke-linejoin="round" stroke-width="2" d="M15.865 10.018l.19-2.625 38.977 5.146"/>
            <path stroke="#111820" stroke-linecap="round" stroke-width="2" d="M45.082 27.45a8.453 8.453 0 1 1-16.906 0 8.453 8.453 0 0 1 16.906 0zM25.304 17.798H21.69a4.825 4.825 0 0 1-5.242 5.242v8.82c.144-.014.29-.023.438-.023a4.825 4.825 0 0 1 4.804 5.264h3.613M47.954 37.101h3.613a4.825 4.825 0 0 1 5.242-5.242V23.04a4.825 4.825 0 0 1-5.242-5.242h-3.613"/>
            <path fill="#111820" d="M16.887 19.316a1.08 1.08 0 0 1 0-2.158 1.08 1.08 0 0 1 0 2.158M16.887 37.59a1.08 1.08 0 0 1 0-2.159 1.08 1.08 0 0 1 0 2.158M56.373 19.316a1.08 1.08 0 0 1 0-2.158 1.08 1.08 0 0 1 0 2.158M56.373 37.59a1.08 1.08 0 0 1 0-2.159 1.08 1.08 0 0 1 0 2.158"/>
            <path stroke="#111820" stroke-linecap="round" stroke-width="2" d="M60.927 13.411L19.08 1.292l-.28 2.626"/>
            <path stroke="#111820" stroke-linecap="round" stroke-linejoin="round" stroke-width="2" d="M38.243 50.799H26.52l-1.05-1.381H1v3.645a2.43 2.43 0 0 0 2.43 2.431h34.813M10.799 5.786H7.102A2.331 2.331 0 0 0 4.77 8.117v39.63M67.712 36.589V8.118a2.33 2.33 0 0 0-2.33-2.331h-12.05"/>
            <path stroke="#111820" stroke-linecap="round" stroke-width="2" d="M65.228 61.65a3.446 3.446 0 0 1-4.327 2.21l-4.903-1.59M56.373 62.442a3.436 3.436 0 0 1-2.21-4.327"/>
            <path stroke="#111820" stroke-linecap="round" stroke-width="2" d="M72.97 39.52h-.343a1.982 1.982 0 0 0-1.975 1.976V43.1l-23.62 7.444v-.787c0-.906-.741-1.647-1.647-1.647H45.1c-.906 0-1.648.741-1.648 1.647v6.726c0 .906.742 1.648 1.648 1.648h.285c.906 0 1.647-.742 1.647-1.648v-.786l23.62 7.444v1.602c0 1.087.888 1.977 1.975 1.977h.343c1.087 0 1.977-.89 1.977-1.977V41.496c0-1.087-.89-1.976-1.978-1.976zM70.652 41.497V53.12M47.037 49.748v5.11"/>
        </g>
    </g>
</svg>
