<svg xmlns="http://www.w3.org/2000/svg" xmlns:xlink="http://www.w3.org/1999/xlink" width="74" height="71" viewBox="0 0 74 71">
    <defs>
        <path id="a" d="M0 66.848h69.56V0H0z"/>
        <path id="c" d="M0 66.848h69.56V0H0z"/>
    </defs>
    <g fill="none" fill-rule="evenodd">
        <g transform="translate(4 4)">
            <path fill="#FAFA51" d="M9.468 7.187a1.995 1.995 0 1 1-3.99 0 1.995 1.995 0 0 1 3.99 0zM15.452 7.187a1.995 1.995 0 1 1-3.99 0 1.995 1.995 0 0 1 3.99 0M21.436 7.187a1.995 1.995 0 1 1-3.99 0 1.995 1.995 0 0 1 3.99 0"/>
            <path stroke="#FAFA51" stroke-width="2" d="M61.651 13.549H1V6.124A5.123 5.123 0 0 1 6.123 1h50.405a5.123 5.123 0 0 1 5.123 5.123v7.425z"/>
            <path stroke="#FAFA51" stroke-linecap="round" stroke-width="2" d="M61.651 30.155V13.548H1v31.95a5.687 5.687 0 0 0 5.687 5.687H39.685"/>
            <path stroke="#FAFA51" stroke-linejoin="round" stroke-width="2" d="M56.028 65.848c-1.61-.63-3.168-1.275-4.648-2.438-4.688-3.684-7.884-10.052-7.884-16.349V36.606c5.605-.715 9.983-2.445 12.532-4.177 2.549 1.732 6.927 3.462 12.532 4.177V47.05c0 6.297-3.196 12.676-7.884 16.36-1.48 1.163-3.038 1.807-4.648 2.438z"/>
            <mask id="b" fill="#fff">
                <use xlink:href="#a"/>
            </mask>
            <path stroke="#FAFA51" stroke-linejoin="round" stroke-width="2" d="M51.316 54.544h9.424v-7.446h-9.424zM58.577 46.5v-2.753a2.549 2.549 0 1 0-5.098 0V46.5" mask="url(#b)"/>
            <path stroke="#FAFA51" stroke-linecap="round" stroke-width="2" d="M35.95 42.713H9.856a1 1 0 0 1-1-1V21.425a1 1 0 0 1 1-1H35.95a1 1 0 0 1 1 1v20.288a1 1 0 0 1-1 1zM43.496 22.787h9.983M43.496 26.973h9.983" mask="url(#b)"/>
            <path stroke="#FAFA51" stroke-linecap="round" stroke-width="2" d="M20.285 27.175l6.876 3.866a.545.545 0 0 1 0 .951l-6.876 3.865a.545.545 0 0 1-.813-.475v-7.73c0-.419.45-.68.813-.477z" mask="url(#b)"/>
        </g>
        <g>
            <path fill="#111820" d="M9.468 7.187a1.995 1.995 0 1 1-3.99 0 1.995 1.995 0 0 1 3.99 0zM15.452 7.187a1.995 1.995 0 1 1-3.99 0 1.995 1.995 0 0 1 3.99 0M21.436 7.187a1.995 1.995 0 1 1-3.99 0 1.995 1.995 0 0 1 3.99 0"/>
            <path stroke="#111820" stroke-width="2" d="M61.651 13.549H1V6.124A5.123 5.123 0 0 1 6.123 1h50.405a5.123 5.123 0 0 1 5.123 5.123v7.425z"/>
            <path stroke="#111820" stroke-linecap="round" stroke-width="2" d="M61.651 30.155V13.548H1v31.95a5.687 5.687 0 0 0 5.687 5.687H39.685"/>
            <path stroke="#111820" stroke-linejoin="round" stroke-width="2" d="M56.028 65.848c-1.61-.63-3.168-1.275-4.648-2.438-4.688-3.684-7.884-10.052-7.884-16.349V36.606c5.605-.715 9.983-2.445 12.532-4.177 2.549 1.732 6.927 3.462 12.532 4.177V47.05c0 6.297-3.196 12.676-7.884 16.36-1.48 1.163-3.038 1.807-4.648 2.438z"/>
            <mask id="d" fill="#fff">
                <use xlink:href="#c"/>
            </mask>
            <path stroke="#111820" stroke-linejoin="round" stroke-width="2" d="M51.316 54.544h9.424v-7.446h-9.424zM58.577 46.5v-2.753a2.549 2.549 0 1 0-5.098 0V46.5" mask="url(#d)"/>
            <path stroke="#111820" stroke-linecap="round" stroke-width="2" d="M35.95 42.713H9.856a1 1 0 0 1-1-1V21.425a1 1 0 0 1 1-1H35.95a1 1 0 0 1 1 1v20.288a1 1 0 0 1-1 1zM43.496 22.787h9.983M43.496 26.973h9.983" mask="url(#d)"/>
            <path stroke="#111820" stroke-linecap="round" stroke-width="2" d="M20.285 27.175l6.876 3.866a.545.545 0 0 1 0 .951l-6.876 3.865a.545.545 0 0 1-.813-.475v-7.73c0-.419.45-.68.813-.477z" mask="url(#d)"/>
        </g>
    </g>
</svg>
