<svg xmlns="http://www.w3.org/2000/svg" width="75" height="70" viewBox="0 0 75 70">
    <g fill="none" fill-rule="evenodd" stroke-linecap="round" stroke-width="2">
        <g stroke="#FAFA51">
            <path d="M9.008 38.297V5h61.895v37.507"/>
            <path d="M9.55 66.14l-2.921-1.824a3.463 3.463 0 0 1-1.546-3.69l3.94-12.669c.076-.31.165-.616.264-.917 1.16-3.529 4.02-6.24 7.49-7.568l4.295-1.357a2.57 2.57 0 0 0 1.754-1.994M45.67 66.14l2.921-1.824a3.463 3.463 0 0 0 1.546-3.69l-3.94-12.669c-.076-.31-.165-.616-.264-.917-1.16-3.529-4.02-6.24-7.49-7.568l-4.295-1.357a2.57 2.57 0 0 1-1.754-1.994"/>
            <path d="M40.297 52.524V65.68a2.463 2.463 0 0 1-2.463 2.463H17.74a2.463 2.463 0 0 1-2.463-2.463V52.524M24.95 48.32c-1.799-1.933-2.738-3.15-3.491-5.68l-.665-3.859M34.78 38.781l-.7 3.894c-.756 2.52-1.689 3.727-3.477 5.657"/>
            <path d="M28.47 47.602a4.183 4.183 0 0 0-4.755 5.07c.276 1.256 1.14 2.29 2.305 2.83.904.418 1.79.476 2.595.314v3.14c0 .453.366.82.818.82h1.71a.82.82 0 0 0 .82-.82v-7.055c0-2.078-1.44-3.974-3.494-4.3zM14.084 60.47l-2.934-1.69M41.175 60.47l2.934-1.69"/>
            <path stroke-linejoin="round" d="M53.103 49.513h20.798v-5.86h-22.8"/>
            <path d="M48.368 18.172a2.462 2.462 0 1 1-.001-4.923 2.462 2.462 0 0 1 0 4.923zM50.83 15.71a4.102 4.102 0 0 1 4.104 4.104M59.038 31.305a4.102 4.102 0 0 1-4.104-4.104M54.934 19.814v7.387M59.038 14.069l3.283 3.282M59.038 17.352l3.283-3.283M46.726 29.664l3.283 3.283M46.726 32.947l3.283-3.283M63.142 31.305l-2.462-2.462M63.142 31.305h-4.104M63.142 31.305l-2.462 2.462M37.343 25.414c0 5.375-4.358 11.897-9.733 11.897-5.375 0-9.733-6.522-9.733-11.897 0-7.299 4.358-12.619 9.733-12.619 5.375 0 9.733 5.32 9.733 12.619zM23.669 20.214s5.358 5.486 13.295 3.708"/>
        </g>
        <g stroke="#111820">
            <path d="M5.008 34.297V1h61.895v37.507"/>
            <path d="M5.55 62.14l-2.921-1.824a3.463 3.463 0 0 1-1.546-3.69l3.94-12.669c.076-.31.165-.616.264-.917 1.16-3.529 4.02-6.24 7.49-7.568l4.295-1.357a2.57 2.57 0 0 0 1.754-1.994M41.67 62.14l2.921-1.824a3.463 3.463 0 0 0 1.546-3.69l-3.94-12.669c-.076-.31-.165-.616-.264-.917-1.16-3.529-4.02-6.24-7.49-7.568l-4.295-1.357a2.57 2.57 0 0 1-1.754-1.994"/>
            <path d="M36.297 48.524V61.68a2.463 2.463 0 0 1-2.463 2.463H13.74a2.463 2.463 0 0 1-2.463-2.463V48.524M20.95 44.32c-1.799-1.933-2.738-3.15-3.491-5.68l-.665-3.859M30.78 34.781l-.7 3.894c-.756 2.52-1.689 3.727-3.477 5.657"/>
            <path d="M24.47 43.602a4.183 4.183 0 0 0-4.755 5.07c.276 1.256 1.14 2.29 2.305 2.83.904.418 1.79.476 2.595.314v3.14c0 .453.366.82.818.82h1.71a.82.82 0 0 0 .82-.82v-7.055c0-2.078-1.44-3.974-3.494-4.3zM10.084 56.47L7.15 54.78M37.175 56.47l2.934-1.69"/>
            <path stroke-linejoin="round" d="M49.103 45.513h20.798v-5.86h-22.8"/>
            <path d="M44.368 14.172a2.462 2.462 0 1 1-.001-4.923 2.462 2.462 0 0 1 0 4.923zM46.83 11.71a4.102 4.102 0 0 1 4.104 4.104M55.038 27.305a4.102 4.102 0 0 1-4.104-4.104M50.934 15.814v7.387M55.038 10.069l3.283 3.282M55.038 13.352l3.283-3.283M42.726 25.664l3.283 3.283M42.726 28.947l3.283-3.283M59.142 27.305l-2.462-2.462M59.142 27.305h-4.104M59.142 27.305l-2.462 2.462M33.343 21.414c0 5.375-4.358 11.897-9.733 11.897-5.375 0-9.733-6.522-9.733-11.897 0-7.299 4.358-12.619 9.733-12.619 5.375 0 9.733 5.32 9.733 12.619zM19.669 16.214s5.358 5.486 13.295 3.708"/>
        </g>
    </g>
</svg>
