<svg xmlns="http://www.w3.org/2000/svg" width="74" height="56" viewBox="0 0 74 56">
  <g id="그룹_201" data-name="그룹 201" transform="translate(-453 -3108)">
    <g id="그룹_108" data-name="그룹 108" transform="translate(430 2959)">
      <g id="그룹_107" data-name="그룹 107">
        <path id="패스_150" data-name="패스 150" d="M89,200H31a4,4,0,0,1-4-4V158a4,4,0,0,1,4-4H89a4,4,0,0,1,4,4v38A4,4,0,0,1,89,200ZM31,156a2,2,0,0,0-2,2v38a2,2,0,0,0,2,2H89a2,2,0,0,0,2-2V158a2,2,0,0,0-2-2Z" fill="#ef373e"/>
        <path id="패스_151" data-name="패스 151" d="M96,151H24a1,1,0,0,1,0-2H96a1,1,0,0,1,0,2Z" fill="#ef373e"/>
        <path id="패스_152" data-name="패스 152" d="M96,205H24a1,1,0,0,1,0-2H96a1,1,0,0,1,0,2Z" fill="#ef373e"/>
        <g id="그룹_106" data-name="그룹 106">
          <path id="패스_153" data-name="패스 153" d="M33.882,184.458a1,1,0,0,1-.715-1.7l7.98-8.165a1,1,0,0,1,1.113-.218l5.437,2.356a1,1,0,1,1-.795,1.835L42.1,176.484l-7.5,7.673A1,1,0,0,1,33.882,184.458Z" fill="#ef373e"/>
          <path id="패스_154" data-name="패스 154" d="M76.034,181.744a1,1,0,0,1-.6-.2l-4.148-3.149a1,1,0,1,1,1.209-1.593l3.412,2.59,8.836-9.9a1,1,0,1,1,1.492,1.332L76.78,181.41A1,1,0,0,1,76.034,181.744Z" fill="#ef373e"/>
          <path id="패스_155" data-name="패스 155" d="M85.485,175.175a1,1,0,0,1-1-1v-3.018H81.467a1,1,0,0,1,0-2h4.018a1,1,0,0,1,1,1v4.018A1,1,0,0,1,85.485,175.175Z" fill="#ef373e"/>
        </g>
      </g>
      <path id="패스_156" data-name="패스 156" d="M54.615,183.313a2.19,2.19,0,0,1-2.185-2.187V170.734a2.186,2.186,0,0,1,3.163-1.955l10.393,5.2a2.186,2.186,0,0,1,0,3.91l-10.392,5.2A2.193,2.193,0,0,1,54.615,183.313Zm0-12.766a.179.179,0,0,0-.1.029.176.176,0,0,0-.088.158v10.392a.187.187,0,0,0,.27.166l10.391-5.2a.185.185,0,0,0,0-.332l-10.392-5.2A.174.174,0,0,0,54.615,170.547Z" fill="#ef373e"/>
    </g>
  </g>
</svg>
