<svg xmlns="http://www.w3.org/2000/svg" width="87" height="64" viewBox="0 0 87 64">
  <g id="그룹_202" data-name="그룹 202" transform="translate(-752 -3100)">
    <g id="그룹_135" data-name="그룹 135" transform="translate(38 557)">
      <g id="app_development" data-name="app development" transform="translate(331 2128)">
        <g id="그룹_126" data-name="그룹 126">
          <g id="그룹_114" data-name="그룹 114">
            <path id="패스_161" data-name="패스 161" d="M448,464" fill="#ef373e"/>
          </g>
          <g id="그룹_115" data-name="그룹 115">
            <path id="패스_162" data-name="패스 162" d="M448,422h-2v-2a3,3,0,0,0-3-3H411a3,3,0,0,0-3,3h-2a5.006,5.006,0,0,1,5-5h32a5.006,5.006,0,0,1,5,5Z" fill="#ef373e"/>
          </g>
          <g id="그룹_116" data-name="그룹 116">
            <path id="패스_163" data-name="패스 163" d="M443,479H411a5.006,5.006,0,0,1-5-5V435h2v39a3,3,0,0,0,3,3h32a3,3,0,0,0,3-3v-8h2v8A5.006,5.006,0,0,1,443,479Z" fill="#ef373e"/>
          </g>
          <g id="그룹_117" data-name="그룹 117">
            <path id="패스_164" data-name="패스 164" d="M438,467H411V421h27v2H413v42h25Z" fill="#ef373e"/>
          </g>
          <g id="그룹_118" data-name="그룹 118">
            <rect id="사각형_47" data-name="사각형 47" width="7" height="2" transform="translate(424 471)" fill="#ef373e"/>
          </g>
          <g id="그룹_125" data-name="그룹 125">
            <g id="그룹_119" data-name="그룹 119">
              <path id="패스_165" data-name="패스 165" d="M418,435h-2v-6a3,3,0,0,1,3-3h6v2h-6a1,1,0,0,0-1,1Z" fill="#ef373e"/>
            </g>
            <g id="그룹_120" data-name="그룹 120">
              <path id="패스_166" data-name="패스 166" d="M418,448h-2v-6a3,3,0,0,1,3-3h6v2h-6a1,1,0,0,0-1,1Z" fill="#ef373e"/>
            </g>
            <g id="그룹_121" data-name="그룹 121">
              <path id="패스_167" data-name="패스 167" d="M418,461h-2v-6a3,3,0,0,1,3-3h6v2h-6a1,1,0,0,0-1,1Z" fill="#ef373e"/>
            </g>
            <g id="그룹_122" data-name="그룹 122">
              <path id="패스_168" data-name="패스 168" d="M431,435h-2v-6a3,3,0,0,1,3-3h6v2h-6a1,1,0,0,0-1,1Z" fill="#ef373e"/>
            </g>
            <g id="그룹_123" data-name="그룹 123">
              <path id="패스_169" data-name="패스 169" d="M431,448h-2v-6a3,3,0,0,1,3-3h6v2h-6a1,1,0,0,0-1,1Z" fill="#ef373e"/>
            </g>
            <g id="그룹_124" data-name="그룹 124">
              <path id="패스_170" data-name="패스 170" d="M431,461h-2v-6a3,3,0,0,1,3-3h6v2h-6a1,1,0,0,0-1,1Z" fill="#ef373e"/>
            </g>
          </g>
        </g>
        <g id="그룹_129" data-name="그룹 129">
          <g id="그룹_127" data-name="그룹 127">
            <path id="패스_171" data-name="패스 171" d="M450,467h-6a2,2,0,0,1-2-2v-1h2v1h6v-1.423a1.993,1.993,0,0,1,1.235-1.848l5.307-2.2a2,2,0,0,1,2.179.433l1.007,1.008,4.243-4.243-1.007-1.006a2,2,0,0,1-.434-2.179l2.2-5.309A1.993,1.993,0,0,1,466.577,447H468v-6h-1.423a1.993,1.993,0,0,1-1.848-1.235l-2.2-5.307a2,2,0,0,1,.433-2.179l1.008-1.007-4.243-4.243-1.006,1.007a2,2,0,0,1-2.181.433l-5.307-2.2A1.993,1.993,0,0,1,450,424.423V423h-6v1h-2v-1a2,2,0,0,1,2-2h6a2,2,0,0,1,2,2v1.423l5.308,2.2,1-1.006a1.987,1.987,0,0,1,1.415-.586h0a1.984,1.984,0,0,1,1.414.587l4.242,4.241a2,2,0,0,1,0,2.83l-1.007,1,2.2,5.308H468a2,2,0,0,1,2,2v6a2,2,0,0,1-2,2h-1.423l-2.2,5.308,1.007,1a2,2,0,0,1,0,2.83l-4.242,4.242a1.983,1.983,0,0,1-1.413.586h0a1.987,1.987,0,0,1-1.415-.586l-1-1.007-5.308,2.2V465A2,2,0,0,1,450,467Z" fill="#ef373e"/>
          </g>
          <g id="그룹_128" data-name="그룹 128">
            <path id="패스_172" data-name="패스 172" d="M447,457v-2a11,11,0,0,0,0-22v-2a13,13,0,0,1,0,26Z" fill="#ef373e"/>
          </g>
        </g>
      </g>
      <g id="그룹_134" data-name="그룹 134" transform="translate(177 2217.207)">
        <g id="그룹_132" data-name="그룹 132" transform="translate(537 332)">
          <g id="그룹_130" data-name="그룹 130">
            <path id="패스_173" data-name="패스 173" d="M547.253,344.951a.808.808,0,0,1-.747-.5l-3.975-9.539-3.974,9.539a.809.809,0,1,1-1.494-.623l4.721-11.332a.81.81,0,0,1,1.494,0L548,343.83a.809.809,0,0,1-.436,1.059A.8.8,0,0,1,547.253,344.951Z" transform="translate(-537 -332)" fill="#ef373e"/>
          </g>
          <g id="그룹_131" data-name="그룹 131" transform="translate(2.429 7.285)">
            <path id="패스_174" data-name="패스 174" d="M545.666,342.619h-4.857a.809.809,0,1,1,0-1.619h4.857a.809.809,0,1,1,0,1.619Z" transform="translate(-540 -341)" fill="#ef373e"/>
          </g>
        </g>
        <g id="그룹_133" data-name="그룹 133" transform="translate(549.951 332)">
          <path id="패스_175" data-name="패스 175" d="M557.047,344.951h-3.238a.809.809,0,0,1-.809-.809V332.809a.809.809,0,0,1,.809-.809h3.238a6.475,6.475,0,1,1,0,12.951Zm-2.428-1.619h2.428a4.857,4.857,0,0,0,0-9.713h-2.428Z" transform="translate(-553 -332)" fill="#ef373e"/>
        </g>
      </g>
    </g>
  </g>
</svg>
