<svg xmlns="http://www.w3.org/2000/svg" width="66.397" height="66.397" viewBox="0 0 66.397 66.397">
  <g id="그룹_203" data-name="그룹 203" transform="translate(-1084 -3098)">
    <g id="personalization" transform="translate(791 2683)">
      <g id="그룹_59" data-name="그룹 59" transform="translate(293 415)">
        <g id="그룹_55" data-name="그룹 55">
          <path id="패스_107" data-name="패스 107" d="M326.2,481.4a33.2,33.2,0,1,1,33.2-33.2A33.236,33.236,0,0,1,326.2,481.4Zm0-64.322A31.124,31.124,0,1,0,357.322,448.2,31.159,31.159,0,0,0,326.2,417.075Z" transform="translate(-293 -415)" fill="#ef373e"/>
        </g>
        <g id="그룹_56" data-name="그룹 56" transform="translate(32.161)">
          <path id="패스_108" data-name="패스 108" d="M325.037,428.487A1.037,1.037,0,0,1,324,427.449V416.037a1.037,1.037,0,0,1,2.075,0v11.412A1.037,1.037,0,0,1,325.037,428.487Z" transform="translate(-324 -415)" fill="#ef373e"/>
        </g>
        <g id="그룹_57" data-name="그룹 57" transform="translate(52.91 32.161)">
          <path id="패스_109" data-name="패스 109" d="M356.449,448.075H345.037a1.037,1.037,0,1,1,0-2.075h11.412a1.037,1.037,0,1,1,0,2.075Z" transform="translate(-344 -446)" fill="#ef373e"/>
        </g>
        <g id="그룹_58" data-name="그룹 58" transform="translate(0 32.161)">
          <path id="패스_110" data-name="패스 110" d="M305.449,448.075H294.037a1.037,1.037,0,1,1,0-2.075h11.412a1.037,1.037,0,1,1,0,2.075Z" transform="translate(-293 -446)" fill="#ef373e"/>
        </g>
      </g>
      <g id="_Grupo_" data-name="&lt;Grupo&gt;" transform="translate(304.412 433.674)">
        <g id="그룹_60" data-name="그룹 60" transform="translate(13.757 7.911)">
          <path id="패스_111" data-name="패스 111" d="M336.286,446.616a6.791,6.791,0,0,1-5.867-3.525.809.809,0,0,0-.507-.369.8.8,0,0,0-.592.1,15.744,15.744,0,0,1-11.17,2.41,1.037,1.037,0,1,1,.3-2.052,13.564,13.564,0,0,0,9.736-2.1,2.873,2.873,0,0,1,4,.927,4.674,4.674,0,0,0,4.1,2.533,1.037,1.037,0,1,1,0,2.075Z" transform="translate(-317.26 -440.625)" fill="#ef373e"/>
        </g>
        <g id="그룹_62" data-name="그룹 62">
          <g id="그룹_61" data-name="그룹 61">
            <path id="패스_112" data-name="패스 112" d="M305.037,472.423a1.037,1.037,0,0,1-.267-2.04c4.785-1.275,11.992-3.615,13.03-4.823.31-.413.317-2.492.029-4.484a11.36,11.36,0,0,1-3.3-5.665c-.491-2.075-1.237-6.015-1.465-7.988a16.606,16.606,0,0,1,.083-4.95l.024-.179C313.884,437,319.227,433,325.6,433s11.714,3.994,12.432,9.29l.026.2a16.554,16.554,0,0,1,.078,4.937c-.23,2.007-.979,5.944-1.469,7.988a11.358,11.358,0,0,1-3.308,5.676c-.284,1.985-.272,4.054.042,4.469,1.084,1.239,8.486,3.566,13.395,4.822a1.038,1.038,0,0,1-.515,2.011c-2.078-.532-12.541-3.294-14.446-5.471-1.165-1.333-.716-5-.47-6.518a1.038,1.038,0,0,1,.339-.612,9.327,9.327,0,0,0,2.945-4.857c.466-1.949,1.207-5.839,1.427-7.746a14.553,14.553,0,0,0-.074-4.424l-.027-.2c-.577-4.27-5.038-7.491-10.375-7.491s-9.8,3.222-10.371,7.5l-.024.178a14.572,14.572,0,0,0-.079,4.435c.218,1.874.957,5.77,1.423,7.749a9.317,9.317,0,0,0,2.937,4.845,1.04,1.04,0,0,1,.338.609c.249,1.516.7,5.184-.448,6.525-1.833,2.132-12.043,4.935-14.071,5.476A1.035,1.035,0,0,1,305.037,472.423Z" transform="translate(-304 -433)" fill="#ef373e"/>
          </g>
        </g>
      </g>
    </g>
  </g>
</svg>
