<svg xmlns="http://www.w3.org/2000/svg" width="72.368" height="72.368" viewBox="0 0 72.368 72.368">
  <g id="그룹_204" data-name="그룹 204" transform="translate(-1395 -3095)">
    <g id="그룹_105" data-name="그룹 105" transform="translate(1026.65 3046.65)">
      <g id="그룹_87" data-name="그룹 87" transform="translate(398.95 48.35)">
        <path id="패스_140" data-name="패스 140" d="M393.934,59.519a5.584,5.584,0,1,1,5.584-5.584A5.59,5.59,0,0,1,393.934,59.519Zm0-9.18a3.6,3.6,0,1,0,3.6,3.6A3.6,3.6,0,0,0,393.934,50.339Z" transform="translate(-388.35 -48.35)" fill="#ef373e"/>
      </g>
      <g id="그룹_88" data-name="그룹 88" transform="translate(398.95 109.549)">
        <path id="패스_141" data-name="패스 141" d="M393.934,99.519a5.584,5.584,0,1,1,5.584-5.584A5.59,5.59,0,0,1,393.934,99.519Zm0-9.18a3.6,3.6,0,1,0,3.6,3.6A3.6,3.6,0,0,0,393.934,90.339Z" transform="translate(-388.35 -88.35)" fill="#ef373e"/>
      </g>
      <g id="그룹_89" data-name="그룹 89" transform="translate(421.899 57.53)">
        <path id="패스_142" data-name="패스 142" d="M408.934,65.519a5.584,5.584,0,1,1,5.584-5.584A5.59,5.59,0,0,1,408.934,65.519Zm0-9.18a3.6,3.6,0,1,0,3.6,3.6A3.6,3.6,0,0,0,408.934,56.339Z" transform="translate(-403.35 -54.35)" fill="#ef373e"/>
      </g>
      <g id="그룹_90" data-name="그룹 90" transform="translate(429.549 78.95)">
        <path id="패스_143" data-name="패스 143" d="M413.934,79.519a5.584,5.584,0,1,1,5.584-5.584A5.59,5.59,0,0,1,413.934,79.519Zm0-9.18a3.6,3.6,0,1,0,3.6,3.6A3.6,3.6,0,0,0,413.934,70.339Z" transform="translate(-408.35 -68.35)" fill="#ef373e"/>
      </g>
      <g id="그룹_91" data-name="그룹 91" transform="translate(421.899 100.369)">
        <path id="패스_144" data-name="패스 144" d="M408.934,93.519a5.584,5.584,0,1,1,5.584-5.584A5.59,5.59,0,0,1,408.934,93.519Zm0-9.18a3.6,3.6,0,1,0,3.6,3.6A3.6,3.6,0,0,0,408.934,84.339Z" transform="translate(-403.35 -82.35)" fill="#ef373e"/>
      </g>
      <g id="그룹_92" data-name="그룹 92" transform="translate(403.539 58.524)">
        <rect id="사각형_39" data-name="사각형 39" width="1.99" height="6.12" fill="#ef373e"/>
      </g>
      <g id="그룹_93" data-name="그룹 93" transform="translate(403.539 104.424)">
        <rect id="사각형_40" data-name="사각형 40" width="1.99" height="6.12" fill="#ef373e"/>
      </g>
      <g id="그룹_94" data-name="그룹 94" transform="translate(419.131 65.47)">
        <rect id="사각형_41" data-name="사각형 41" width="6.491" height="1.989" transform="translate(0 4.592) rotate(-45.03)" fill="#ef373e"/>
      </g>
      <g id="그룹_95" data-name="그룹 95" transform="translate(419.13 97.6)">
        <rect id="사각형_42" data-name="사각형 42" width="1.989" height="6.491" transform="translate(0 1.407) rotate(-45)" fill="#ef373e"/>
      </g>
      <g id="그룹_96" data-name="그룹 96" transform="translate(424.424 83.54)">
        <rect id="사각형_43" data-name="사각형 43" width="6.12" height="1.989" fill="#ef373e"/>
      </g>
      <g id="그룹_97" data-name="그룹 97" transform="translate(376 57.53)">
        <path id="패스_145" data-name="패스 145" d="M378.934,65.519a5.584,5.584,0,1,1,5.584-5.584A5.59,5.59,0,0,1,378.934,65.519Zm0-9.18a3.6,3.6,0,1,0,3.6,3.6A3.6,3.6,0,0,0,378.934,56.339Z" transform="translate(-373.35 -54.35)" fill="#ef373e"/>
      </g>
      <g id="그룹_98" data-name="그룹 98" transform="translate(368.35 78.95)">
        <path id="패스_146" data-name="패스 146" d="M373.934,79.519a5.584,5.584,0,1,1,5.584-5.584A5.59,5.59,0,0,1,373.934,79.519Zm0-9.18a3.6,3.6,0,1,0,3.6,3.6A3.6,3.6,0,0,0,373.934,70.339Z" transform="translate(-368.35 -68.35)" fill="#ef373e"/>
      </g>
      <g id="그룹_99" data-name="그룹 99" transform="translate(376 100.369)">
        <path id="패스_147" data-name="패스 147" d="M378.934,93.519a5.584,5.584,0,1,1,5.584-5.584A5.59,5.59,0,0,1,378.934,93.519Zm0-9.18a3.6,3.6,0,1,0,3.6,3.6A3.6,3.6,0,0,0,378.934,84.339Z" transform="translate(-373.35 -82.35)" fill="#ef373e"/>
      </g>
      <g id="그룹_100" data-name="그룹 100" transform="translate(383.941 65.471)">
        <rect id="사각형_44" data-name="사각형 44" width="1.989" height="6.491" transform="translate(0 1.407) rotate(-45)" fill="#ef373e"/>
      </g>
      <g id="그룹_101" data-name="그룹 101" transform="translate(383.942 97.6)">
        <rect id="사각형_45" data-name="사각형 45" width="6.491" height="1.989" transform="translate(0 4.592) rotate(-45.03)" fill="#ef373e"/>
      </g>
      <g id="그룹_102" data-name="그룹 102" transform="translate(378.524 83.54)">
        <rect id="사각형_46" data-name="사각형 46" width="6.12" height="1.989" fill="#ef373e"/>
      </g>
      <g id="그룹_103" data-name="그룹 103" transform="translate(383.65 63.65)">
        <path id="패스_148" data-name="패스 148" d="M399.234,100.118a20.884,20.884,0,1,1,20.884-20.884A20.908,20.908,0,0,1,399.234,100.118Zm0-39.779a18.9,18.9,0,1,0,18.9,18.9A18.916,18.916,0,0,0,399.234,60.339Z" transform="translate(-378.35 -58.35)" fill="#ef373e"/>
      </g>
      <g id="그룹_104" data-name="그룹 104" transform="translate(391.3 68.965)">
        <path id="패스_149" data-name="패스 149" d="M404.852,89.1H393.524a4.772,4.772,0,0,1-3.348-1.065,1.654,1.654,0,0,0-1.242-.465H383.35V71.809H388.5c1.077-.1,5.563-3.871,5.563-6.655v-1.53a1.677,1.677,0,0,1,.886-1.463,3.744,3.744,0,0,1,3.568.272c1.056.61,2.826,2.18,2.826,5.845a16.557,16.557,0,0,1-.558,3.9,6.4,6.4,0,0,0-.144.656l0,1.5c0,3.283-1.787,6.294-5.031,8.476L394.5,81.157c2.676-1.8,4.149-4.223,4.149-6.824V72.8a5.067,5.067,0,0,1,.2-1.094,14.666,14.666,0,0,0,.5-3.432c0-2.748-1.206-3.794-1.926-4.175a2.1,2.1,0,0,0-1.375-.26v1.311c0,3.84-5.476,8.644-7.552,8.644h-3.158V85.578h3.6a3.578,3.578,0,0,1,2.446.871,2.846,2.846,0,0,0,2.143.659h11.328a1.611,1.611,0,0,0,1.244-1.226l.014-.162,1.492-9.07a2.549,2.549,0,0,0-.58-2.038,2.181,2.181,0,0,0-1.674-.815H402.7V71.809h2.644a4.194,4.194,0,0,1,3.192,1.519,4.494,4.494,0,0,1,1.024,3.649l-1.479,9A3.505,3.505,0,0,1,404.852,89.1Z" transform="translate(-383.35 -61.824)" fill="#ef373e"/>
      </g>
    </g>
  </g>
</svg>
