<svg xmlns="http://www.w3.org/2000/svg" width="80" height="80" viewBox="0 0 80 80">
    <defs>
        <style>
            .cls-1{fill:none}.cls-2{fill:#ef373e}.cls-3{clip-path:url(#clip-path)}.cls-4{fill:#fff}
        </style>
        <clipPath id="clip-path">
            <path id="사각형_20" d="M0 0h36v36H0z" class="cls-1" data-name="사각형 20"/>
        </clipPath>
    </defs>
    <g id="pgrm10.svg" transform="translate(22 22)">
        <circle id="Ellipse_4_copy" cx="40" cy="40" r="40" class="cls-2" data-name="Ellipse 4 copy" transform="translate(-22 -22)"/>
        <g id="그룹_32" data-name="그룹 32">
            <g id="그룹_31" class="cls-3" data-name="그룹 31">
                <path id="패스_53" d="M23.625 2.25a.562.562 0 0 1-.562-.562V.563a.563.563 0 0 1 1.125 0v1.125a.562.562 0 0 1-.562.563" class="cls-4" data-name="패스 53"/>
                <path id="패스_54" d="M33.139 6.039a.562.562 0 0 1-.389-.968l.827-.8a.562.562 0 0 1 .779.811l-.828.8a.56.56 0 0 1-.389.157" class="cls-4" data-name="패스 54"/>
                <path id="패스_55" d="M28.774 3.235a.556.556 0 0 1-.223-.046.563.563 0 0 1-.294-.74L28.7 1.41a.562.562 0 0 1 1.033.446l-.443 1.039a.562.562 0 0 1-.517.34" class="cls-4" data-name="패스 55"/>
                <path id="패스_56" d="M18.476 3.235a.561.561 0 0 1-.516-.34l-.448-1.039a.563.563 0 0 1 1.033-.446l.447 1.039a.563.563 0 0 1-.294.74.556.556 0 0 1-.223.046" class="cls-4" data-name="패스 56"/>
                <path id="패스_57" d="M27.563 30.938h-8.438a.563.563 0 0 1 0-1.125H27v-.686a8.68 8.68 0 0 1 .26-2.11 2.246 2.246 0 0 1 2.182-1.7h.933a1.69 1.69 0 0 0 1.688-1.687v-3.38a.562.562 0 0 1 .563-.562h2.032l-1.44-4.322a.563.563 0 0 1-.029-.178 9.573 9.573 0 0 0-9.562-9.562 9.461 9.461 0 0 0-9.562 9.563c0 3.166 2.008 6.243 4.178 9.094a10.874 10.874 0 0 1 1.437 3.738.562.562 0 0 1-1.1.21 9.957 9.957 0 0 0-1.227-3.267c-2.289-3.009-4.408-6.276-4.408-9.776a10.687 10.687 0 0 1 21.374-.093l1.659 4.978a.562.562 0 0 1-.533.74h-2.25v2.813a2.816 2.816 0 0 1-2.812 2.813h-.933a1.125 1.125 0 0 0-1.092.852 7.592 7.592 0 0 0-.226 1.837v1.248a.562.562 0 0 1-.562.563" class="cls-4" data-name="패스 57"/>
                <path id="패스_58" d="M25.313 25.313a.562.562 0 0 1-.562-.562c0-3 0-6.094 1.615-8.437h-5.48C22.5 18.656 22.5 21.748 22.5 24.75a.563.563 0 0 1-1.125 0c0-3.351 0-6.517-2.085-8.6a.562.562 0 0 1 .4-.96h7.875a.562.562 0 0 1 .4.96c-2.085 2.085-2.085 5.251-2.085 8.6a.562.562 0 0 1-.562.563" class="cls-4" data-name="패스 58"/>
                <path id="패스_59" d="M24.75 36h-2.812a3.378 3.378 0 0 1-3.375-3.375v-.562h1.125v.563a2.252 2.252 0 0 0 2.25 2.25h2.812A2.252 2.252 0 0 0 27 32.625v-.562h1.125v.563A3.378 3.378 0 0 1 24.75 36" class="cls-4" data-name="패스 59"/>
                <path id="패스_60" d="M16.875 36h-2.812a1.69 1.69 0 0 1-1.687-1.687v-.473a.561.561 0 0 0-.348-.52l-2.888-1.2a.562.562 0 0 0-.613.122l-.334.334a1.728 1.728 0 0 1-2.386 0l-2.388-2.382a1.689 1.689 0 0 1 0-2.387l.334-.334a.561.561 0 0 0 .122-.613l-1.2-2.888a.561.561 0 0 0-.52-.347h-.467A1.69 1.69 0 0 1 0 21.938v-3.375a1.69 1.69 0 0 1 1.688-1.687h.472a.561.561 0 0 0 .52-.347l1.34-3.236-.6-.6a1.689 1.689 0 0 1 0-2.387L5.806 7.92a1.729 1.729 0 0 1 2.386 0l.334.334a.559.559 0 0 0 .613.122l2.888-1.2a.561.561 0 0 0 .348-.52v-.468A1.69 1.69 0 0 1 14.063 4.5h2.25v1.125h-2.25a.563.563 0 0 0-.562.563v.472a1.682 1.682 0 0 1-1.042 1.559L9.57 9.415a1.68 1.68 0 0 1-1.839-.366L7.4 8.715a.576.576 0 0 0-.8 0L4.215 11.1a.565.565 0 0 0 0 .8l.6.6a1.12 1.12 0 0 1 .244 1.226l-1.34 3.235A1.68 1.68 0 0 1 2.159 18h-.471a.563.563 0 0 0-.562.563v3.375a.563.563 0 0 0 .563.563h.472a1.68 1.68 0 0 1 1.559 1.042l1.2 2.887a1.682 1.682 0 0 1-.366 1.839l-.334.334a.565.565 0 0 0 0 .8l2.38 2.382a.575.575 0 0 0 .8 0l.334-.334a1.682 1.682 0 0 1 1.839-.366l2.887 1.2a1.682 1.682 0 0 1 1.04 1.555v.472a.563.563 0 0 0 .563.563h2.813z" class="cls-4" data-name="패스 60"/>
                <path id="패스_61" d="M19.125 28.688h-2.812a8.439 8.439 0 0 1-6.926-13.26.563.563 0 0 1 .923.644 7.314 7.314 0 0 0 6 11.491h2.813a.563.563 0 0 1 0 1.125" class="cls-4" data-name="패스 61"/>
            </g>
        </g>
    </g>
</svg>
