<svg xmlns="http://www.w3.org/2000/svg" width="80" height="80" viewBox="0 0 80 80">
    <defs>
        <style>
            .cls-1{fill:none}.cls-2{fill:#ef373e}.cls-3{clip-path:url(#clip-path)}.cls-4{fill:#fff}
        </style>
        <clipPath id="clip-path">
            <path id="사각형_21" d="M0 0h36v36H0z" class="cls-1" data-name="사각형 21"/>
        </clipPath>
    </defs>
    <g id="pgrm11.svg" transform="translate(22 21)">
        <circle id="Ellipse_4_copy_2" cx="40" cy="40" r="40" class="cls-2" data-name="Ellipse 4 copy 2" transform="translate(-22 -21)"/>
        <g id="그룹_34" data-name="그룹 34">
            <g id="그룹_33" class="cls-3" data-name="그룹 33">
                <path id="패스_62" d="M18 36a18 18 0 1 1 18-18 .563.563 0 0 1-1.125 0 16.874 16.874 0 1 0-5.988 12.894.563.563 0 1 1 .727.859A18.015 18.015 0 0 1 18 36" class="cls-4" data-name="패스 62"/>
                <path id="패스_63" d="M18 19.406A1.406 1.406 0 1 1 19.406 18 1.407 1.407 0 0 1 18 19.406m0-2.25a.844.844 0 1 0 .844.844.845.845 0 0 0-.844-.844" class="cls-4" data-name="패스 63"/>
                <path id="패스_64" d="M18 14.625a5.063 5.063 0 1 1 5.063-5.062A5.068 5.068 0 0 1 18 14.625m0-9a3.938 3.938 0 1 0 3.938 3.938A3.943 3.943 0 0 0 18 5.625" class="cls-4" data-name="패스 64"/>
                <path id="패스_65" d="M18 31.5a5.063 5.063 0 1 1 5.063-5.062A5.068 5.068 0 0 1 18 31.5m0-9a3.938 3.938 0 1 0 3.938 3.938A3.943 3.943 0 0 0 18 22.5" class="cls-4" data-name="패스 65"/>
                <path id="패스_66" d="M9.563 23.063A5.063 5.063 0 1 1 14.625 18a5.068 5.068 0 0 1-5.062 5.063m0-9A3.938 3.938 0 1 0 13.5 18a3.943 3.943 0 0 0-3.937-3.937" class="cls-4" data-name="패스 66"/>
                <path id="패스_67" d="M24.749 22.735a.558.558 0 0 1-.211-.041 5.063 5.063 0 1 1 6.8-5.96.563.563 0 1 1-1.09.28 3.938 3.938 0 1 0-5.29 4.637.562.562 0 0 1-.211 1.084" class="cls-4" data-name="패스 67"/>
                <path id="패스_68" d="M35.438 36a26.47 26.47 0 0 1-9.715-1.947.563.563 0 1 1 .413-1.047 25.346 25.346 0 0 0 9.3 1.869.563.563 0 0 1 0 1.125" class="cls-4" data-name="패스 68"/>
                <path id="패스_69" d="M32.813 30.375a.562.562 0 0 1-.483-.273l-2.287-3.812-2.12 1.767a.563.563 0 0 1-.923-.432V18a.563.563 0 0 1 .875-.468l7.875 5.25a.563.563 0 0 1-.158 1.009l-2.357.674 2.248 3.746a.563.563 0 0 1-.193.772L33.1 30.3a.564.564 0 0 1-.289.08m-2.625-5.5a.588.588 0 0 1 .094.008.561.561 0 0 1 .388.265l2.336 3.892 1.223-.733-2.336-3.893a.564.564 0 0 1 .328-.831l1.893-.541-5.988-3.992v7.373l1.7-1.419a.565.565 0 0 1 .36-.13" class="cls-4" data-name="패스 69"/>
            </g>
        </g>
    </g>
</svg>
