<svg xmlns="http://www.w3.org/2000/svg" width="80" height="80" viewBox="0 0 80 80">
    <defs>
        <style>
            .cls-1{fill:none}.cls-2{fill:#ef373e}.cls-3{clip-path:url(#clip-path)}.cls-4{fill:#fff}
        </style>
        <clipPath id="clip-path">
            <path id="사각형_19" d="M0 0h36v36H0z" class="cls-1" data-name="사각형 19"/>
        </clipPath>
    </defs>
    <g id="pgrm9.svg" transform="translate(22 21)">
        <circle id="Ellipse_4" cx="40" cy="40" r="40" class="cls-2" data-name="Ellipse 4" transform="translate(-22 -21)"/>
        <g id="그룹_30" data-name="그룹 30">
            <g id="그룹_29" class="cls-3" data-name="그룹 29">
                <path id="패스_45" d="M33.188 36H2.813A2.816 2.816 0 0 1 0 33.188V11.252h1.125v21.936a1.69 1.69 0 0 0 1.688 1.687h30.375a1.69 1.69 0 0 0 1.688-1.687V11.252H36v21.936A2.816 2.816 0 0 1 33.188 36" class="cls-4" data-name="패스 45"/>
                <path id="패스_46" d="M.586 11.782a.563.563 0 0 1-.3-1.037l3.349-2.134a.562.562 0 1 1 .6.949L.888 11.694a.558.558 0 0 1-.3.088" class="cls-4" data-name="패스 46"/>
                <path id="패스_47" d="M23.916 4.5a.56.56 0 0 1-.3-.087l-4.772-3.018a1.614 1.614 0 0 0-1.784 0l-4.737 3.019a.563.563 0 1 1-.6-.949L16.46.445a2.727 2.727 0 0 1 2.982 0l4.775 3.023a.562.562 0 0 1-.3 1.038" class="cls-4" data-name="패스 47"/>
                <path id="패스_48" d="M35.414 11.782a.56.56 0 0 1-.3-.087l-3.352-2.122a.562.562 0 1 1 .6-.95l3.351 2.122a.562.562 0 0 1-.3 1.038" class="cls-4" data-name="패스 48"/>
                <path id="패스_49" d="M17.951 29.806a2.784 2.784 0 0 1-1.487-.444L.284 19.06a.563.563 0 1 1 .6-.949l16.177 10.3a1.611 1.611 0 0 0 1.784 0l16.265-10.3a.562.562 0 1 1 .6.95L19.446 29.36a2.817 2.817 0 0 1-1.5.445" class="cls-4" data-name="패스 49"/>
                <path id="패스_50" d="M32.063 18a.562.562 0 0 1-.562-.562V4.5H4.5v12.939a.563.563 0 0 1-1.125 0V3.94a.562.562 0 0 1 .563-.562h28.125a.562.562 0 0 1 .563.562v13.5a.562.562 0 0 1-.562.562" class="cls-4" data-name="패스 50"/>
                <path id="패스_51" d="M19.289 23.866a10.185 10.185 0 0 1-6.042-1.8c-2.993-2.208-3.853-6.746-1.958-10.331a7.927 7.927 0 0 1 8.7-3.918 7.307 7.307 0 0 1 5.832 6.808v.275c.048 2.86-.9 4.031-1.71 4.508a3.026 3.026 0 0 1-3.058-.1 2.386 2.386 0 0 1-1.365-1.893v-5.6a.563.563 0 0 1 1.125 0v5.6c0 .224.28.62.8.916a1.972 1.972 0 0 0 1.928.111c.778-.461 1.189-1.712 1.158-3.521v-.272a6.171 6.171 0 0 0-4.944-5.732 6.889 6.889 0 0 0-7.465 3.343c-1.438 2.722-1.221 6.8 1.631 8.9a9.151 9.151 0 0 0 5.506 1.581h.006a.562.562 0 0 1 .006 1.125h-.145" class="cls-4" data-name="패스 51"/>
                <path id="패스_52" d="M17.714 19.653a3.865 3.865 0 0 1-1.137-.182 3.348 3.348 0 0 1-2.177-2.3 4.562 4.562 0 0 1 2.265-5.317 4.646 4.646 0 0 1 3.17-.156.562.562 0 1 1-.263 1.093 3.5 3.5 0 0 0-2.436.084 3.46 3.46 0 0 0-1.653 3.991 2.243 2.243 0 0 0 1.425 1.534 1.966 1.966 0 0 0 2.665-1.352.562.562 0 0 1 1.038.434 3.109 3.109 0 0 1-2.9 2.175" class="cls-4" data-name="패스 52"/>
            </g>
        </g>
    </g>
</svg>
