<svg xmlns="http://www.w3.org/2000/svg" width="80" height="80" viewBox="0 0 80 80">
    <defs>
        <style>
            .cls-1{fill:none}.cls-2{fill:#ef373e}.cls-3{clip-path:url(#clip-path)}.cls-4{fill:#fff}
        </style>
        <clipPath id="clip-path">
            <path id="사각형_22" d="M0 0h36v36H0z" class="cls-1" data-name="사각형 22"/>
        </clipPath>
    </defs>
    <g id="pgrm12.svg" transform="translate(22 23)">
        <circle id="Ellipse_4_copy_3" cx="40" cy="40" r="40" class="cls-2" data-name="Ellipse 4 copy 3" transform="translate(-22 -23)"/>
        <g id="그룹_36" data-name="그룹 36">
            <g id="그룹_35" class="cls-3" data-name="그룹 35">
                <path id="패스_70" d="M.562 36a.562.562 0 0 1-.524-.768 6.932 6.932 0 0 1 2.485-3.09l1.162-.583a.565.565 0 0 1 .5 0 5.09 5.09 0 0 0 2 .5 5.092 5.092 0 0 0 2-.5.565.565 0 0 1 .5 0l1.125.563a6.959 6.959 0 0 1 2.522 3.111.563.563 0 0 1-1.047.411 5.868 5.868 0 0 0-2.015-2.536l-.845-.421a6.183 6.183 0 0 1-2.242.5 6.179 6.179 0 0 1-2.241-.5l-.883.442a5.8 5.8 0 0 0-1.978 2.514.562.562 0 0 1-.519.357" class="cls-4" data-name="패스 70"/>
                <path id="패스_71" d="M6.187 30.938A2.813 2.813 0 1 1 9 28.126a2.816 2.816 0 0 1-2.812 2.813m0-4.5a1.688 1.688 0 1 0 1.687 1.688 1.69 1.69 0 0 0-1.687-1.687" class="cls-4" data-name="패스 71"/>
                <path id="패스_72" d="M12.375 36a.562.562 0 0 1-.524-.768 6.932 6.932 0 0 1 2.485-3.09l1.164-.582a.565.565 0 0 1 .5 0 5.09 5.09 0 0 0 2 .5 5.092 5.092 0 0 0 2-.5.565.565 0 0 1 .5 0l1.125.563a6.959 6.959 0 0 1 2.522 3.111.563.563 0 0 1-1.047.411 5.868 5.868 0 0 0-2.015-2.536l-.845-.421a6.183 6.183 0 0 1-2.242.5 6.179 6.179 0 0 1-2.241-.5l-.883.442a5.8 5.8 0 0 0-1.974 2.513.562.562 0 0 1-.524.357" class="cls-4" data-name="패스 72"/>
                <path id="패스_73" d="M18 30.938a2.813 2.813 0 1 1 2.812-2.812A2.816 2.816 0 0 1 18 30.938m0-4.5a1.688 1.688 0 1 0 1.687 1.688A1.69 1.69 0 0 0 18 26.438" class="cls-4" data-name="패스 73"/>
                <path id="패스_74" d="M24.187 36a.562.562 0 0 1-.524-.768 6.932 6.932 0 0 1 2.485-3.09l1.162-.583a.565.565 0 0 1 .5 0 5.09 5.09 0 0 0 2 .5 5.092 5.092 0 0 0 2-.5.565.565 0 0 1 .5 0l1.125.563a6.959 6.959 0 0 1 2.522 3.111.563.563 0 0 1-1.047.411 5.868 5.868 0 0 0-2.01-2.536l-.845-.421a6.183 6.183 0 0 1-2.242.5 6.179 6.179 0 0 1-2.241-.5l-.883.442a5.8 5.8 0 0 0-1.978 2.514.562.562 0 0 1-.524.357" class="cls-4" data-name="패스 74"/>
                <path id="패스_75" d="M29.812 30.938a2.813 2.813 0 1 1 2.812-2.812 2.816 2.816 0 0 1-2.812 2.813m0-4.5a1.688 1.688 0 1 0 1.688 1.687 1.69 1.69 0 0 0-1.687-1.687" class="cls-4" data-name="패스 75"/>
                <path id="패스_76" d="M25.875 18H14.062a.563.563 0 0 1 0-1.125h11.813a.563.563 0 0 1 0 1.125" class="cls-4" data-name="패스 76"/>
                <path id="패스_77" d="M13.5 18h-3.375a.563.563 0 0 1 0-1.125H13.5a.563.563 0 0 1 0 1.125" class="cls-4" data-name="패스 77"/>
                <path id="패스_78" d="M14.062 17.438a1.125 1.125 0 1 1-1.125-1.125 1.125 1.125 0 0 1 1.125 1.125" class="cls-4" data-name="패스 78"/>
                <path id="패스_79" d="M12.937 18.844a1.406 1.406 0 1 1 1.406-1.406 1.407 1.407 0 0 1-1.406 1.406m0-2.25a.844.844 0 1 0 .844.844.845.845 0 0 0-.844-.844" class="cls-4" data-name="패스 79"/>
                <path id="패스_80" d="M12.937 14.063a.569.569 0 0 1-.3-.087.563.563 0 0 1-.261-.475v-9a.562.562 0 0 1 .8-.508l9.562 4.5a.563.563 0 0 1 0 1.018l-9.562 4.5a.559.559 0 0 1-.24.053m.564-8.677v7.228L21.179 9z" class="cls-4" data-name="패스 80"/>
                <path id="패스_81" d="M29.812 24.188a.563.563 0 0 1-.312-.094l-3.233-2.156H21.01l-2.658 2.127a.565.565 0 0 1-.7 0l-2.662-2.127H9.733L6.5 24.094a.563.563 0 0 1-.762-.13l-1.519-2.026H2.812a1.69 1.69 0 0 1-1.687-1.687V1.688A1.689 1.689 0 0 1 2.812 0h30.375a1.689 1.689 0 0 1 1.687 1.687v18.564a1.69 1.69 0 0 1-1.687 1.688h-1.406l-1.519 2.025a.562.562 0 0 1-.451.225M9.562 20.813h5.625a.562.562 0 0 1 .352.123L18 22.906l2.461-1.969a.562.562 0 0 1 .352-.123h5.625a.566.566 0 0 1 .312.094l2.932 1.955 1.368-1.825a.563.563 0 0 1 .45-.225h1.687a.563.563 0 0 0 .562-.562V1.688a.563.563 0 0 0-.562-.562H2.812a.563.563 0 0 0-.562.563v18.562a.563.563 0 0 0 .562.563H4.5a.563.563 0 0 1 .45.225l1.368 1.825 2.932-1.956a.566.566 0 0 1 .312-.094" class="cls-4" data-name="패스 81"/>
            </g>
        </g>
    </g>
</svg>
